<?xml version="1.0" encoding="UTF-8"?>
<svg id="Calque_2" data-name="Calque 2" xmlns="http://www.w3.org/2000/svg" viewBox="0 0 423.79 348.27">
  <defs>
    <style>
      .cls-1 {
        font-family: CenturyGothic, 'Century Gothic';
        font-size: 20.65px;
        letter-spacing: .1em;
        stroke: #000;
        stroke-miterlimit: 10;
        stroke-width: .75px;
      }

      .cls-2 {
        fill: #1a1a1a;
      }

      .cls-2, .cls-3, .cls-4 {
        fill-rule: evenodd;
        stroke-width: 0px;
      }

      .cls-4 {
        fill: #fff;
      }
    </style>
  </defs>
  <g id="Calque_1-2" data-name="Calque 1">
    <g>
      <path class="cls-2" d="M269.51,259.07l11.22,8.11c.65.51,1.02,1.21,1.02,2.04s-.37,1.53-1.02,2.04l-11.22,8.11c-.79.56-1.76.6-2.6.19-.88-.46-1.39-1.25-1.39-2.22v-16.22c0-.97.51-1.81,1.39-2.22.83-.46,1.81-.37,2.6.19h0ZM289.35,258.61h.37c.7,0,1.25.56,1.25,1.25v18.73c0,.7-.56,1.25-1.25,1.25h-.37c-.7,0-1.25-.56-1.25-1.25v-18.73c0-.7.56-1.25,1.25-1.25h0Z"/>
      <path class="cls-2" d="M87.67,259.07l-11.22,8.11c-.65.51-1.02,1.21-1.02,2.04s.37,1.53,1.02,2.04l11.22,8.11c.79.56,1.76.6,2.6.19.88-.46,1.39-1.25,1.39-2.22v-16.22c0-.97-.51-1.81-1.39-2.22-.83-.46-1.81-.37-2.6.19h0ZM67.83,258.61h-.37c-.7,0-1.25.56-1.25,1.25v18.73c0,.7.56,1.25,1.25,1.25h.37c.7,0,1.25-.56,1.25-1.25v-18.73c0-.7-.56-1.25-1.25-1.25h0Z"/>
      <path class="cls-2" d="M327.59,0c1.76,0,3.24,1.44,3.24,3.24s-1.48,3.24-3.24,3.24-3.24-1.44-3.24-3.24,1.44-3.24,3.24-3.24h0Z"/>
      <path class="cls-2" d="M327.59,11.54c1.76,0,3.24,1.48,3.24,3.24s-1.48,3.24-3.24,3.24-3.24-1.44-3.24-3.24,1.44-3.24,3.24-3.24h0Z"/>
      <path class="cls-2" d="M327.59,23.13c1.76,0,3.24,1.44,3.24,3.24s-1.48,3.24-3.24,3.24-3.24-1.48-3.24-3.24,1.44-3.24,3.24-3.24h0Z"/>
      <path class="cls-4" d="M19.56,314.17h318.06c2.16,0,3.89,1.79,3.89,3.89h0c0,2.16-1.74,3.89-3.89,3.89H19.56c-2.16,0-3.89-1.74-3.89-3.89h0c0-2.11,1.74-3.89,3.89-3.89h0Z"/>
      <path class="cls-3" d="M19.56,314.17h219.48c2.16,0,3.89,1.79,3.89,3.89h0c0,2.16-1.74,3.89-3.89,3.89H19.56c-2.16,0-3.89-1.74-3.89-3.89h0c0-2.11,1.74-3.89,3.89-3.89h0Z"/>
      <text class="cls-1" transform="translate(310.15 304) scale(.58)"><tspan x="0" y="0">06:31</tspan></text>
      <text class="cls-1" transform="translate(15.67 304.29) scale(.58)"><tspan x="0" y="0">04:25</tspan></text>
      <path class="cls-2" d="M178.57,222.64c24.15,0,43.66,19.56,43.66,43.66s-19.51,43.66-43.66,43.66-43.62-19.51-43.62-43.66,19.51-43.66,43.62-43.66h0ZM178.57,233.76c17.99,0,32.54,14.6,32.54,32.54s-14.55,32.54-32.54,32.54-32.49-14.55-32.49-32.54,14.55-32.54,32.49-32.54h0ZM175.55,254.34l13.21,9.6c.79.56,1.21,1.39,1.21,2.36s-.42,1.85-1.21,2.41l-13.21,9.55c-.93.7-2.09.74-3.11.23-1.02-.51-1.58-1.48-1.58-2.6v-19.14c0-1.11.56-2.13,1.58-2.64,1.02-.51,2.18-.42,3.11.23h0Z"/>
    </g>
  </g>
</svg>