<?xml version="1.0" encoding="UTF-8"?>
<svg xmlns="http://www.w3.org/2000/svg" xmlns:xlink="http://www.w3.org/1999/xlink" viewBox="0 0 113.01 119.01">
  <defs>
    <style>
      .cls-1 {
        fill: #999;
      }

      .cls-1, .cls-2, .cls-3, .cls-4, .cls-5, .cls-6, .cls-7, .cls-8, .cls-9, .cls-10, .cls-11, .cls-12, .cls-13, .cls-14, .cls-15, .cls-16, .cls-17, .cls-18, .cls-19, .cls-20, .cls-21, .cls-22, .cls-23, .cls-24, .cls-25, .cls-26, .cls-27, .cls-28, .cls-29, .cls-30, .cls-31, .cls-32, .cls-33, .cls-34, .cls-35, .cls-36, .cls-37, .cls-38, .cls-39, .cls-40, .cls-41, .cls-42, .cls-43, .cls-44, .cls-45 {
        stroke-width: 0px;
      }

      .cls-2 {
        fill: url(#linear-gradient-12);
      }

      .cls-3 {
        fill: url(#linear-gradient-17);
      }

      .cls-4 {
        fill: url(#linear-gradient-19);
      }

      .cls-5 {
        fill: #666;
      }

      .cls-6 {
        fill: url(#linear-gradient);
      }

      .cls-46 {
        opacity: .2;
      }

      .cls-46, .cls-47 {
        mix-blend-mode: screen;
      }

      .cls-7 {
        fill: #b2b2b2;
      }

      .cls-8 {
        fill: url(#New_Gradient_Swatch_3-2);
      }

      .cls-48 {
        opacity: .5;
      }

      .cls-9 {
        fill: url(#linear-gradient-21);
      }

      .cls-10 {
        fill: url(#linear-gradient-6);
      }

      .cls-49 {
        isolation: isolate;
      }

      .cls-50 {
        opacity: .02;
      }

      .cls-11 {
        fill: #e5e5e5;
      }

      .cls-13 {
        fill: url(#linear-gradient-15);
      }

      .cls-51 {
        opacity: .05;
      }

      .cls-14 {
        fill: url(#linear-gradient-11);
      }

      .cls-15 {
        fill: url(#linear-gradient-5);
      }

      .cls-52 {
        mix-blend-mode: soft-light;
      }

      .cls-16 {
        fill: url(#New_Gradient_Swatch_3-4);
      }

      .cls-17 {
        fill: #333;
      }

      .cls-18 {
        fill: url(#linear-gradient-13);
      }

      .cls-19 {
        fill: url(#linear-gradient-23);
      }

      .cls-20 {
        fill: #7f7f7f;
      }

      .cls-21 {
        fill: #ccc;
      }

      .cls-22 {
        fill: url(#linear-gradient-25);
      }

      .cls-23 {
        fill: url(#linear-gradient-16);
      }

      .cls-24 {
        fill: url(#linear-gradient-22);
      }

      .cls-25 {
        fill: #fff;
      }

      .cls-26 {
        fill: url(#New_Gradient_Swatch_3-6);
      }

      .cls-27 {
        fill: url(#linear-gradient-20);
      }

      .cls-28 {
        fill: url(#linear-gradient-14);
      }

      .cls-29 {
        fill: url(#linear-gradient-2);
      }

      .cls-53 {
        opacity: .03;
      }

      .cls-30 {
        fill: #4c4c4c;
      }

      .cls-31 {
        fill: url(#linear-gradient-7);
      }

      .cls-32 {
        fill: url(#linear-gradient-3);
      }

      .cls-54 {
        opacity: .1;
      }

      .cls-33 {
        fill: url(#linear-gradient-9);
      }

      .cls-34 {
        fill: url(#linear-gradient-27);
      }

      .cls-35 {
        fill: url(#New_Gradient_Swatch_3-3);
      }

      .cls-36 {
        fill: url(#linear-gradient-8);
      }

      .cls-37 {
        fill: url(#linear-gradient-24);
      }

      .cls-38 {
        fill: url(#linear-gradient-26);
      }

      .cls-39 {
        fill: url(#linear-gradient-18);
      }

      .cls-40 {
        fill: url(#New_Gradient_Swatch_3-5);
      }

      .cls-41 {
        fill: url(#linear-gradient-28);
      }

      .cls-42 {
        fill: url(#linear-gradient-10);
      }

      .cls-43 {
        fill: url(#New_Gradient_Swatch_3);
      }

      .cls-44 {
        fill: #191919;
      }

      .cls-45 {
        fill: url(#linear-gradient-4);
      }
    </style>
    <linearGradient id="New_Gradient_Swatch_3" data-name="New Gradient Swatch 3" x1="55.41" y1="9.01" x2="55.41" y2="107.81" gradientUnits="userSpaceOnUse">
      <stop offset="0" stop-color="#007bff"/>
      <stop offset="1" stop-color="#ff0080"/>
    </linearGradient>
    <linearGradient id="New_Gradient_Swatch_3-2" data-name="New Gradient Swatch 3" x1="55.41" y1="9.01" x2="55.41" y2="107.81" xlink:href="#New_Gradient_Swatch_3"/>
    <linearGradient id="New_Gradient_Swatch_3-3" data-name="New Gradient Swatch 3" x1="55.45" y1="9.07" x2="55.45" y2="107.87" xlink:href="#New_Gradient_Swatch_3"/>
    <linearGradient id="New_Gradient_Swatch_3-4" data-name="New Gradient Swatch 3" x1="55.45" y1="9.07" x2="55.45" y2="107.87" xlink:href="#New_Gradient_Swatch_3"/>
    <linearGradient id="linear-gradient" x1="55.45" y1="9.07" x2="55.45" y2="107.87" gradientUnits="userSpaceOnUse">
      <stop offset="0" stop-color="#007bff"/>
      <stop offset="1" stop-color="#ff0080"/>
    </linearGradient>
    <linearGradient id="linear-gradient-2" x1="55.45" y1="9.07" x2="55.45" y2="107.87" xlink:href="#linear-gradient"/>
    <linearGradient id="linear-gradient-3" x1="55.45" y1="9.07" x2="55.45" y2="107.83" xlink:href="#linear-gradient"/>
    <linearGradient id="linear-gradient-4" x1="55.45" y1="9.07" x2="55.45" y2="107.87" xlink:href="#linear-gradient"/>
    <linearGradient id="linear-gradient-5" x1="55.45" y1="9.07" x2="55.45" y2="107.87" xlink:href="#linear-gradient"/>
    <linearGradient id="linear-gradient-6" y1="9.07" y2="107.87" xlink:href="#linear-gradient"/>
    <linearGradient id="linear-gradient-7" x1="55.45" y1="9.07" x2="55.45" y2="107.87" xlink:href="#linear-gradient"/>
    <linearGradient id="linear-gradient-8" y1="9.07" y2="107.87" xlink:href="#linear-gradient"/>
    <linearGradient id="linear-gradient-9" x1="55.45" y1="9.07" x2="55.45" y2="107.87" xlink:href="#linear-gradient"/>
    <linearGradient id="linear-gradient-10" x1="55.45" y1="9.07" x2="55.45" y2="107.87" xlink:href="#linear-gradient"/>
    <linearGradient id="linear-gradient-11" x1="55.45" y1="9.07" x2="55.45" y2="107.87" xlink:href="#linear-gradient"/>
    <linearGradient id="linear-gradient-12" x1="55.45" y1="9.07" x2="55.45" y2="107.87" xlink:href="#linear-gradient"/>
    <linearGradient id="linear-gradient-13" y1="9.07" y2="107.87" xlink:href="#linear-gradient"/>
    <linearGradient id="linear-gradient-14" x1="55.45" y1="9.07" x2="55.45" y2="107.87" xlink:href="#linear-gradient"/>
    <linearGradient id="linear-gradient-15" x1="55.45" y1="9.07" x2="55.45" y2="107.87" xlink:href="#linear-gradient"/>
    <linearGradient id="linear-gradient-16" x1="55.45" y1="9.07" x2="55.45" y2="107.87" xlink:href="#linear-gradient"/>
    <linearGradient id="linear-gradient-17" x1="55.45" y1="9.07" x2="55.45" y2="107.87" xlink:href="#linear-gradient"/>
    <linearGradient id="linear-gradient-18" x1="55.45" y1="9.07" x2="55.45" y2="107.87" xlink:href="#linear-gradient"/>
    <linearGradient id="linear-gradient-19" y1="9.07" y2="107.87" xlink:href="#linear-gradient"/>
    <linearGradient id="linear-gradient-20" x1="55.45" y1="9.07" x2="55.45" y2="107.87" xlink:href="#linear-gradient"/>
    <linearGradient id="linear-gradient-21" y1="9.07" y2="107.87" xlink:href="#linear-gradient"/>
    <linearGradient id="linear-gradient-22" x1="55.45" y1="9.07" x2="55.45" y2="107.87" xlink:href="#linear-gradient"/>
    <linearGradient id="linear-gradient-23" x1="55.45" y1="9.07" x2="55.45" y2="107.87" xlink:href="#linear-gradient"/>
    <linearGradient id="linear-gradient-24" x1="55.45" y1="9.07" x2="55.45" y2="107.87" xlink:href="#linear-gradient"/>
    <linearGradient id="linear-gradient-25" x1="55.45" y1="9.07" x2="55.45" y2="107.87" xlink:href="#linear-gradient"/>
    <linearGradient id="linear-gradient-26" x1="55.45" y1="9.07" x2="55.45" y2="107.87" xlink:href="#linear-gradient"/>
    <linearGradient id="linear-gradient-27" x1="55.45" y1="9.07" x2="55.45" y2="107.87" xlink:href="#linear-gradient"/>
    <linearGradient id="linear-gradient-28" y1="9.07" y2="107.87" xlink:href="#linear-gradient"/>
    <linearGradient id="New_Gradient_Swatch_3-5" data-name="New Gradient Swatch 3" x1="55.45" y1="9.07" x2="55.45" y2="107.87" xlink:href="#New_Gradient_Swatch_3"/>
    <linearGradient id="New_Gradient_Swatch_3-6" data-name="New Gradient Swatch 3" x1="55.45" y1="9.07" x2="55.45" y2="107.87" xlink:href="#New_Gradient_Swatch_3"/>
  </defs>
  <g class="cls-49">
    <g id="Calque_2" data-name="Calque 2">
      <g id="Calque_1-2" data-name="Calque 1">
        <g>
          <g class="cls-46">
            <path class="cls-12" d="M88.21,28.63c-3.27-3.27-8.57-3.27-11.84,0-3.27,3.27-3.27,8.57,0,11.84,11.56,11.56,11.56,30.36,0,41.92-5.78,5.78-13.37,8.67-20.96,8.67-7.59,0-15.18-2.89-20.96-8.67-11.56-11.56-11.56-30.36,0-41.92,3.27-3.27,3.27-8.57,0-11.84-3.27-3.27-8.57-3.27-11.84,0-8.76,8.76-13.59,20.41-13.59,32.8s4.83,24.04,13.59,32.8c8.76,8.76,20.41,13.59,32.8,13.59s24.04-4.83,32.8-13.59c8.76-8.76,13.59-20.41,13.59-32.8s-4.83-24.04-13.59-32.8Z"/>
            <path class="cls-43" d="M88.21,28.63c-3.27-3.27-8.57-3.27-11.84,0-3.27,3.27-3.27,8.57,0,11.84,11.56,11.56,11.56,30.36,0,41.92-5.78,5.78-13.37,8.67-20.96,8.67-7.59,0-15.18-2.89-20.96-8.67-11.56-11.56-11.56-30.36,0-41.92,3.27-3.27,3.27-8.57,0-11.84-3.27-3.27-8.57-3.27-11.84,0-8.76,8.76-13.59,20.41-13.59,32.8s4.83,24.04,13.59,32.8c8.76,8.76,20.41,13.59,32.8,13.59s24.04-4.83,32.8-13.59c8.76-8.76,13.59-20.41,13.59-32.8s-4.83-24.04-13.59-32.8Z"/>
            <path class="cls-12" d="M55.41,57.57c4.62,0,8.37-3.75,8.37-8.37v-31.82c0-4.62-3.75-8.37-8.37-8.37s-8.37,3.75-8.37,8.37v31.82c0,4.62,3.75,8.37,8.37,8.37Z"/>
            <path class="cls-8" d="M55.41,57.57c4.62,0,8.37-3.75,8.37-8.37v-31.82c0-4.62-3.75-8.37-8.37-8.37s-8.37,3.75-8.37,8.37v31.82c0,4.62,3.75,8.37,8.37,8.37Z"/>
          </g>
          <g class="cls-48">
            <g class="cls-51">
              <path class="cls-12" d="M57.55,119.01c-14.81,0-28.74-5.77-39.21-16.24C7.87,92.29,2.1,78.37,2.1,63.55s5.77-28.74,16.24-39.21c3.29-3.29,7.67-5.11,12.33-5.11s9.04,1.81,12.33,5.11,5.11,7.67,5.11,12.33-1.81,9.04-5.11,12.33c-8.02,8.02-8.02,21.07,0,29.09,3.88,3.88,9.04,6.01,14.55,6.01h0c5.5,0,10.67-2.13,14.54-6.01,8.02-8.02,8.02-21.07,0-29.09-3.29-3.29-5.11-7.67-5.11-12.33s1.81-9.04,5.11-12.33c6.8-6.8,17.86-6.8,24.66,0h0c10.47,10.47,16.24,24.4,16.24,39.21s-5.77,28.74-16.24,39.21c-10.47,10.47-24.4,16.24-39.21,16.24Z"/>
              <path class="cls-12" d="M57.55,68.77c-9.62,0-17.44-7.82-17.44-17.44v-31.82c0-9.62,7.82-17.44,17.44-17.44s17.44,7.82,17.44,17.44v31.82c0,9.62-7.82,17.44-17.44,17.44Z"/>
            </g>
            <g class="cls-51">
              <path class="cls-12" d="M57.55,118.5c-14.68,0-28.48-5.72-38.86-16.09C8.32,92.03,2.61,78.23,2.61,63.55s5.72-28.48,16.09-38.86c3.2-3.2,7.45-4.96,11.98-4.96s8.78,1.76,11.98,4.96c3.2,3.2,4.96,7.45,4.96,11.98s-1.76,8.78-4.96,11.98c-8.22,8.22-8.22,21.59,0,29.81,3.97,3.97,9.26,6.16,14.9,6.16h0c5.64,0,10.93-2.19,14.9-6.16,8.22-8.22,8.22-21.59,0-29.81-3.2-3.2-4.96-7.45-4.96-11.98s1.76-8.78,4.96-11.98c6.6-6.6,17.35-6.6,23.95,0h0c10.38,10.38,16.09,24.18,16.09,38.86s-5.72,28.48-16.09,38.86c-10.38,10.38-24.18,16.09-38.86,16.09Z"/>
              <path class="cls-12" d="M57.55,68.27c-9.34,0-16.94-7.6-16.94-16.94v-31.82c0-9.34,7.6-16.94,16.94-16.94s16.94,7.6,16.94,16.94v31.82c0,9.34-7.6,16.94-16.94,16.94Z"/>
            </g>
            <g class="cls-51">
              <path class="cls-12" d="M57.55,118c-14.54,0-28.22-5.66-38.5-15.95-10.28-10.28-15.95-23.96-15.95-38.5s5.66-28.22,15.95-38.5c3.1-3.1,7.23-4.81,11.62-4.81s8.52,1.71,11.62,4.81c3.1,3.1,4.81,7.23,4.81,11.62s-1.71,8.52-4.81,11.62c-8.41,8.41-8.41,22.1,0,30.52,4.07,4.07,9.49,6.31,15.26,6.31h0c5.77,0,11.19-2.24,15.26-6.31,8.41-8.41,8.41-22.1,0-30.52-3.1-3.1-4.81-7.23-4.81-11.62s1.71-8.52,4.81-11.62c6.41-6.41,16.83-6.41,23.24,0h0c10.28,10.28,15.95,23.96,15.95,38.5s-5.66,28.22-15.95,38.5c-10.28,10.28-23.96,15.95-38.5,15.95ZM30.68,36.36c-.13,0-.19.06-.22.09-7.24,7.24-11.23,16.86-11.23,27.1s3.99,19.86,11.23,27.1c7.24,7.24,16.86,11.23,27.1,11.23s19.86-3.99,27.1-11.23c7.24-7.24,11.23-16.86,11.23-27.1s-3.99-19.86-11.23-27.1c-.12-.12-.32-.12-.44,0-.03.03-.09.09-.09.22s.06.19.09.22c14.7,14.7,14.7,38.62,0,53.32-7.11,7.11-16.58,11.03-26.66,11.03h0c-10.08,0-19.55-3.92-26.66-11.03-14.7-14.7-14.7-38.62,0-53.32.03-.03.09-.09.09-.22s-.06-.19-.09-.22-.09-.09-.22-.09Z"/>
              <path class="cls-12" d="M57.55,67.76c-9.06,0-16.43-7.37-16.43-16.43v-31.82c0-9.06,7.37-16.43,16.43-16.43s16.43,7.37,16.43,16.43v31.82c0,9.06-7.37,16.43-16.43,16.43ZM57.55,19.2c-.17,0-.31.14-.31.31v31.82c0,.17.14.31.31.31s.31-.14.31-.31v-31.82c0-.17-.14-.31-.31-.31Z"/>
            </g>
            <g class="cls-51">
              <path class="cls-12" d="M57.55,117.5c-14.41,0-27.95-5.61-38.14-15.8-10.19-10.19-15.8-23.73-15.8-38.14s5.61-27.95,15.8-38.14c3.01-3.01,7.01-4.67,11.26-4.67s8.26,1.66,11.26,4.67c3.01,3.01,4.67,7.01,4.67,11.26s-1.66,8.26-4.67,11.26c-8.61,8.61-8.61,22.62,0,31.23,4.16,4.16,9.71,6.45,15.62,6.45h0c5.91,0,11.45-2.29,15.61-6.45,8.61-8.61,8.61-22.62,0-31.23-3.01-3.01-4.67-7.01-4.67-11.26s1.66-8.25,4.67-11.26c6.21-6.21,16.32-6.21,22.53,0h0c10.19,10.19,15.8,23.73,15.8,38.14s-5.61,27.95-15.8,38.14c-10.19,10.19-23.73,15.8-38.14,15.8ZM30.68,35.86c-.22,0-.42.08-.58.24-7.33,7.33-11.37,17.08-11.37,27.46s4.04,20.12,11.37,27.46c7.33,7.33,17.08,11.37,27.46,11.37s20.12-4.04,27.46-11.37c7.33-7.33,11.37-17.08,11.37-27.46s-4.04-20.12-11.37-27.46c-.32-.32-.84-.32-1.15,0-.16.16-.24.35-.24.58s.08.42.24.58c14.5,14.5,14.5,38.1,0,52.6-7.02,7.02-16.36,10.88-26.3,10.88h0c-9.95,0-19.29-3.86-26.3-10.88-14.5-14.5-14.5-38.1,0-52.6.16-.16.24-.35.24-.58s-.08-.42-.24-.58c-.16-.16-.35-.24-.58-.24Z"/>
              <path class="cls-12" d="M57.55,67.26c-8.78,0-15.93-7.15-15.93-15.93v-31.82c0-8.78,7.15-15.93,15.93-15.93s15.93,7.15,15.93,15.93v31.82c0,8.78-7.15,15.93-15.93,15.93ZM57.55,18.7c-.45,0-.82.37-.82.82v31.82c0,.45.37.82.82.82s.82-.37.82-.82v-31.82c0-.45-.37-.82-.82-.82Z"/>
            </g>
            <g class="cls-51">
              <path class="cls-12" d="M57.55,116.99c-14.27,0-27.69-5.56-37.79-15.65-10.09-10.09-15.65-23.51-15.65-37.79s5.56-27.69,15.65-37.79c2.91-2.91,6.79-4.52,10.91-4.52s7.99,1.6,10.91,4.52c2.91,2.91,4.52,6.79,4.52,10.91s-1.6,7.99-4.52,10.91c-8.81,8.81-8.81,23.14,0,31.94,4.26,4.26,9.93,6.6,15.97,6.6h0c6.04,0,11.71-2.34,15.97-6.6,8.81-8.81,8.81-23.14,0-31.94-2.91-2.91-4.52-6.79-4.52-10.91s1.6-7.99,4.52-10.91c6.01-6.01,15.8-6.01,21.81,0h0c10.09,10.09,15.65,23.51,15.65,37.79s-5.56,27.69-15.65,37.79c-10.09,10.09-23.51,15.65-37.79,15.65ZM30.68,35.35c-.25,0-.61.07-.93.39-7.43,7.43-11.52,17.31-11.52,27.81s4.09,20.38,11.52,27.81c7.43,7.43,17.31,11.52,27.81,11.52s20.38-4.09,27.81-11.52c7.43-7.43,11.52-17.31,11.52-27.81s-4.09-20.38-11.52-27.81c-.52-.51-1.35-.51-1.87,0-.32.32-.39.68-.39.93s.07.61.39.93c14.31,14.31,14.31,37.59,0,51.89-6.92,6.92-16.14,10.73-25.94,10.73h0c-9.81,0-19.02-3.81-25.94-10.73-14.31-14.31-14.31-37.58,0-51.89.32-.32.39-.68.39-.93s-.07-.61-.39-.93-.68-.39-.93-.39Z"/>
              <path class="cls-12" d="M57.55,66.75c-8.51,0-15.43-6.92-15.43-15.43v-31.82c0-8.51,6.92-15.43,15.43-15.43s15.43,6.92,15.43,15.43v31.82c0,8.51-6.92,15.43-15.43,15.43ZM57.55,18.19c-.73,0-1.32.59-1.32,1.32v31.82c0,.73.59,1.32,1.32,1.32s1.32-.59,1.32-1.32v-31.82c0-.73-.59-1.32-1.32-1.32Z"/>
            </g>
            <g class="cls-51">
              <path class="cls-12" d="M57.55,116.49c-14.14,0-27.43-5.51-37.43-15.5-10-10-15.5-23.29-15.5-37.43s5.51-27.43,15.5-37.43c2.82-2.82,6.57-4.37,10.55-4.37s7.73,1.55,10.55,4.37c2.82,2.82,4.37,6.57,4.37,10.55s-1.55,7.73-4.37,10.55c-9,9-9,23.65,0,32.66,4.35,4.35,10.15,6.75,16.33,6.75h0c6.18,0,11.97-2.4,16.33-6.75,9-9,9-23.65,0-32.66-2.82-2.82-4.37-6.57-4.37-10.55s1.55-7.73,4.37-10.55c5.82-5.82,15.28-5.82,21.1,0h0c10,10,15.5,23.29,15.5,37.43s-5.51,27.43-15.5,37.43c-10,10-23.29,15.5-37.43,15.5ZM30.68,34.85c-.34,0-.85.09-1.29.53-7.52,7.52-11.67,17.53-11.67,28.17s4.14,20.64,11.67,28.17c7.52,7.52,17.53,11.67,28.17,11.67s20.65-4.14,28.17-11.67c7.52-7.52,11.67-17.53,11.67-28.17s-4.14-20.64-11.67-28.17h0c-.71-.71-1.87-.71-2.58,0-.44.44-.53.95-.53,1.29s.09.85.53,1.29c14.11,14.11,14.11,37.07,0,51.18-6.83,6.83-15.91,10.59-25.59,10.59h0c-9.68,0-18.76-3.76-25.59-10.59-14.11-14.11-14.11-37.07,0-51.18.44-.44.53-.95.53-1.29s-.09-.85-.53-1.29c-.44-.44-.95-.53-1.29-.53Z"/>
              <path class="cls-12" d="M57.55,66.25c-8.23,0-14.92-6.69-14.92-14.92v-31.82c0-8.23,6.69-14.92,14.92-14.92s14.92,6.69,14.92,14.92v31.82c0,8.23-6.69,14.92-14.92,14.92ZM57.55,17.69c-1.01,0-1.82.82-1.82,1.82v31.82c0,1.01.82,1.82,1.82,1.82s1.82-.82,1.82-1.82v-31.82c0-1.01-.82-1.82-1.82-1.82Z"/>
            </g>
            <g class="cls-51">
              <path class="cls-12" d="M57.55,115.98c-14,0-27.17-5.45-37.07-15.36-9.9-9.9-15.36-23.07-15.36-37.07s5.45-27.17,15.36-37.07c2.72-2.72,6.34-4.22,10.2-4.22s7.47,1.5,10.2,4.22,4.22,6.34,4.22,10.2-1.5,7.47-4.22,10.2c-9.2,9.2-9.2,24.17,0,33.37,4.45,4.45,10.37,6.9,16.68,6.9h0c6.31,0,12.23-2.45,16.68-6.9,9.2-9.2,9.2-24.17,0-33.37-2.72-2.72-4.22-6.34-4.22-10.2s1.5-7.47,4.22-10.2c5.62-5.62,14.77-5.62,20.39,0h0c9.9,9.9,15.36,23.07,15.36,37.07s-5.45,27.17-15.36,37.07c-9.9,9.9-23.07,15.36-37.07,15.36ZM30.68,34.35c-.36,0-1.05.09-1.65.68-7.62,7.62-11.82,17.75-11.82,28.53s4.2,20.91,11.82,28.53c7.62,7.62,17.75,11.82,28.53,11.82s20.91-4.2,28.53-11.82c7.62-7.62,11.82-17.75,11.82-28.53s-4.2-20.91-11.82-28.53c-.91-.91-2.38-.91-3.29,0-.59.59-.68,1.29-.68,1.65s.09,1.05.68,1.65c13.91,13.91,13.91,36.55,0,50.47-6.73,6.73-15.69,10.44-25.23,10.44h0c-9.54,0-18.5-3.71-25.23-10.44-13.91-13.91-13.91-36.55,0-50.47.59-.59.68-1.29.68-1.65s-.09-1.05-.68-1.65-1.29-.68-1.65-.68Z"/>
              <path class="cls-12" d="M57.55,65.75c-7.95,0-14.42-6.47-14.42-14.42v-31.82c0-7.95,6.47-14.42,14.42-14.42s14.42,6.47,14.42,14.42v31.82c0,7.95-6.47,14.42-14.42,14.42ZM57.55,17.18c-1.28,0-2.33,1.04-2.33,2.33v31.82c0,1.28,1.04,2.33,2.33,2.33s2.33-1.04,2.33-2.33v-31.82c0-1.28-1.04-2.33-2.33-2.33Z"/>
            </g>
            <g class="cls-51">
              <path class="cls-12" d="M57.55,115.48c-13.87,0-26.91-5.4-36.72-15.21-9.81-9.81-15.21-22.85-15.21-36.72s5.4-26.91,15.21-36.72c2.63-2.63,6.12-4.08,9.84-4.08s7.21,1.45,9.84,4.08c2.63,2.63,4.08,6.12,4.08,9.84s-1.45,7.21-4.08,9.84c-9.4,9.4-9.4,24.68,0,34.08,4.54,4.54,10.59,7.04,17.04,7.04h0c6.44,0,12.5-2.5,17.04-7.04,9.4-9.4,9.4-24.68,0-34.08-2.63-2.63-4.08-6.12-4.08-9.84s1.45-7.21,4.08-9.84c5.43-5.43,14.25-5.43,19.68,0h0c9.81,9.81,15.21,22.85,15.21,36.72s-5.4,26.91-15.21,36.72c-9.81,9.81-22.85,15.21-36.72,15.21ZM30.68,33.84c-.76,0-1.47.29-2,.83-7.71,7.71-11.96,17.97-11.96,28.88s4.25,21.17,11.96,28.88c7.71,7.71,17.97,11.96,28.88,11.96s21.17-4.25,28.88-11.96c7.71-7.71,11.96-17.97,11.96-28.88s-4.25-21.17-11.96-28.88c-1.1-1.1-2.9-1.1-4,0-.53.53-.83,1.25-.83,2s.29,1.47.83,2c13.72,13.72,13.72,36.04,0,49.75-6.64,6.64-15.47,10.29-24.87,10.29h0c-9.41,0-18.24-3.66-24.88-10.29-13.72-13.72-13.72-36.04,0-49.75.53-.54.83-1.25.83-2s-.29-1.47-.83-2-1.25-.83-2-.83Z"/>
              <path class="cls-12" d="M57.55,65.24c-7.67,0-13.91-6.24-13.91-13.91v-31.82c0-7.67,6.24-13.91,13.91-13.91s13.91,6.24,13.91,13.91v31.82c0,7.67-6.24,13.91-13.91,13.91ZM57.55,16.68c-1.56,0-2.83,1.27-2.83,2.83v31.82c0,1.56,1.27,2.83,2.83,2.83s2.83-1.27,2.83-2.83v-31.82c0-1.56-1.27-2.83-2.83-2.83Z"/>
            </g>
            <g class="cls-51">
              <path class="cls-12" d="M57.55,114.98c-13.74,0-26.65-5.35-36.36-15.06-9.71-9.71-15.06-22.63-15.06-36.36s5.35-26.65,15.06-36.36c2.53-2.53,5.9-3.93,9.48-3.93s6.95,1.4,9.48,3.93,3.93,5.9,3.93,9.48-1.39,6.95-3.93,9.48c-9.59,9.59-9.59,25.2,0,34.79,4.64,4.64,10.82,7.19,17.4,7.19h0c6.58,0,12.76-2.55,17.39-7.19,9.59-9.59,9.59-25.2,0-34.79-2.53-2.53-3.93-5.9-3.93-9.48s1.39-6.95,3.93-9.48c5.23-5.23,13.74-5.23,18.96,0h0c9.71,9.71,15.06,22.63,15.06,36.36s-5.35,26.65-15.06,36.36c-9.71,9.71-22.63,15.06-36.36,15.06ZM30.68,33.34c-.89,0-1.73.35-2.36.98-7.81,7.81-12.11,18.19-12.11,29.24s4.3,21.43,12.11,29.24c7.81,7.81,18.19,12.11,29.24,12.11s21.43-4.3,29.24-12.11,12.11-18.19,12.11-29.24-4.3-21.43-12.11-29.24c-1.3-1.3-3.42-1.3-4.72,0-.63.63-.98,1.47-.98,2.36s.35,1.73.98,2.36c13.52,13.52,13.52,35.52,0,49.04-6.54,6.54-15.25,10.14-24.52,10.14h0c-9.27,0-17.98-3.6-24.52-10.14-13.52-13.52-13.52-35.52,0-49.04.63-.63.98-1.47.98-2.36s-.35-1.73-.98-2.36c-.63-.63-1.47-.98-2.36-.98Z"/>
              <path class="cls-12" d="M57.55,64.74c-7.39,0-13.41-6.02-13.41-13.41v-31.82c0-7.39,6.02-13.41,13.41-13.41s13.41,6.02,13.41,13.41v31.82c0,7.39-6.02,13.41-13.41,13.41ZM57.55,16.18c-1.84,0-3.34,1.5-3.34,3.34v31.82c0,1.84,1.5,3.34,3.34,3.34s3.34-1.5,3.34-3.34v-31.82c0-1.84-1.5-3.34-3.34-3.34Z"/>
            </g>
            <g class="cls-51">
              <path class="cls-12" d="M57.55,114.47c-13.6,0-26.39-5.3-36.01-14.91-9.62-9.62-14.91-22.4-14.91-36.01s5.3-26.39,14.91-36.01c2.44-2.44,5.68-3.78,9.13-3.78s6.69,1.34,9.13,3.78c2.44,2.44,3.78,5.68,3.78,9.13s-1.34,6.69-3.78,9.13c-9.79,9.79-9.79,25.72,0,35.51,4.73,4.73,11.04,7.34,17.75,7.34h0c6.71,0,13.02-2.61,17.75-7.34,9.79-9.79,9.79-25.72,0-35.51-2.44-2.44-3.78-5.68-3.78-9.13s1.34-6.69,3.78-9.13c5.03-5.03,13.22-5.03,18.25,0h0c9.62,9.62,14.91,22.4,14.91,36.01s-5.3,26.39-14.91,36.01c-9.62,9.62-22.4,14.91-36.01,14.91ZM30.68,32.84c-1.03,0-1.99.4-2.71,1.12-7.9,7.9-12.26,18.41-12.26,29.59s4.35,21.69,12.26,29.59c7.9,7.9,18.41,12.26,29.59,12.26s21.69-4.35,29.59-12.26c7.9-7.9,12.26-18.41,12.26-29.59s-4.35-21.69-12.26-29.59c-1.5-1.5-3.93-1.5-5.43,0-.72.73-1.12,1.69-1.12,2.71s.4,1.99,1.12,2.71c13.32,13.32,13.32,35.01,0,48.33-6.45,6.45-15.03,10-24.16,10h0c-9.14,0-17.72-3.55-24.16-10-13.32-13.32-13.32-35,0-48.33.73-.72,1.12-1.69,1.12-2.71s-.4-1.99-1.12-2.71-1.69-1.12-2.71-1.12Z"/>
              <path class="cls-12" d="M57.55,64.24c-7.12,0-12.91-5.79-12.91-12.91v-31.82c0-7.12,5.79-12.91,12.91-12.91s12.91,5.79,12.91,12.91v31.82c0,7.12-5.79,12.91-12.91,12.91ZM57.55,15.67c-2.12,0-3.84,1.72-3.84,3.84v31.82c0,2.12,1.72,3.84,3.84,3.84s3.84-1.72,3.84-3.84v-31.82c0-2.12-1.72-3.84-3.84-3.84Z"/>
            </g>
            <g class="cls-51">
              <path class="cls-12" d="M57.55,113.97c-13.47,0-26.13-5.24-35.65-14.77-9.52-9.52-14.77-22.18-14.77-35.65s5.24-26.13,14.77-35.65c2.34-2.34,5.46-3.63,8.77-3.63s6.43,1.29,8.77,3.63c2.34,2.34,3.63,5.46,3.63,8.77s-1.29,6.43-3.63,8.77c-9.99,9.99-9.99,26.23,0,36.22,4.83,4.83,11.26,7.49,18.11,7.49h0c6.85,0,13.28-2.66,18.11-7.49,9.99-9.98,9.99-26.23,0-36.22-2.34-2.34-3.63-5.46-3.63-8.77s1.29-6.43,3.63-8.77c4.84-4.84,12.7-4.84,17.54,0h0c9.52,9.52,14.77,22.18,14.77,35.65s-5.24,26.13-14.77,35.65c-9.52,9.52-22.18,14.77-35.65,14.77ZM30.68,32.33c-1.16,0-2.25.45-3.07,1.27-8,8-12.41,18.64-12.41,29.95s4.41,21.95,12.41,29.95c8,8,18.64,12.41,29.95,12.41s21.95-4.41,29.95-12.41c8-8,12.41-18.64,12.41-29.95s-4.41-21.95-12.41-29.95h0c-1.69-1.69-4.45-1.69-6.14,0-.82.82-1.27,1.91-1.27,3.07s.45,2.25,1.27,3.07c13.13,13.13,13.13,34.49,0,47.62-6.35,6.35-14.81,9.85-23.81,9.85h0c-9,0-17.46-3.5-23.81-9.85-13.13-13.13-13.13-34.49,0-47.62.82-.82,1.27-1.91,1.27-3.07s-.45-2.25-1.27-3.07c-.82-.82-1.91-1.27-3.07-1.27Z"/>
              <path class="cls-12" d="M57.55,63.73c-6.84,0-12.4-5.56-12.4-12.4v-31.82c0-6.84,5.56-12.4,12.4-12.4s12.4,5.56,12.4,12.4v31.82c0,6.84-5.56,12.4-12.4,12.4ZM57.55,15.17c-2.39,0-4.34,1.95-4.34,4.34v31.82c0,2.39,1.95,4.34,4.34,4.34s4.34-1.95,4.34-4.34v-31.82c0-2.39-1.95-4.34-4.34-4.34Z"/>
            </g>
            <g class="cls-51">
              <path class="cls-12" d="M57.55,113.47c-13.33,0-25.87-5.19-35.29-14.62-9.43-9.43-14.62-21.96-14.62-35.29s5.19-25.87,14.62-35.29c2.25-2.25,5.24-3.49,8.41-3.49s6.17,1.24,8.41,3.49c2.25,2.25,3.49,5.24,3.49,8.41s-1.24,6.17-3.49,8.41c-10.18,10.18-10.18,26.75,0,36.93,4.92,4.92,11.48,7.63,18.47,7.63h0c6.98,0,13.54-2.71,18.46-7.63,10.18-10.18,10.18-26.75,0-36.93-2.25-2.25-3.49-5.24-3.49-8.41s1.24-6.17,3.49-8.41c4.64-4.64,12.19-4.64,16.83,0h0c9.43,9.43,14.62,21.96,14.62,35.29s-5.19,25.87-14.62,35.29c-9.43,9.43-21.96,14.62-35.29,14.62ZM30.68,31.83c-1.29,0-2.51.5-3.43,1.42-8.1,8.1-12.55,18.86-12.55,30.31s4.46,22.21,12.55,30.31c8.1,8.09,18.86,12.55,30.31,12.55s22.21-4.46,30.31-12.55c8.1-8.1,12.55-18.86,12.55-30.31s-4.46-22.21-12.55-30.31h0c-1.89-1.89-4.96-1.89-6.85,0-.92.92-1.42,2.13-1.42,3.43s.5,2.51,1.42,3.43c12.93,12.93,12.93,33.97,0,46.9-6.26,6.26-14.58,9.7-23.45,9.7h0c-8.87,0-17.2-3.45-23.45-9.7-12.93-12.93-12.93-33.97,0-46.9.92-.92,1.42-2.13,1.42-3.43s-.5-2.51-1.42-3.43c-.92-.92-2.13-1.42-3.43-1.42Z"/>
              <path class="cls-12" d="M57.55,63.23c-6.56,0-11.9-5.34-11.9-11.9v-31.82c0-6.56,5.34-11.9,11.9-11.9s11.9,5.34,11.9,11.9v31.82c0,6.56-5.34,11.9-11.9,11.9ZM57.55,14.67c-2.67,0-4.85,2.17-4.85,4.85v31.82c0,2.67,2.17,4.85,4.85,4.85s4.85-2.17,4.85-4.85v-31.82c0-2.67-2.17-4.85-4.85-4.85Z"/>
            </g>
            <g class="cls-51">
              <path class="cls-12" d="M57.55,112.96c-13.2,0-25.61-5.14-34.94-14.47-9.33-9.33-14.47-21.74-14.47-34.94s5.14-25.61,14.47-34.94c2.15-2.15,5.01-3.34,8.06-3.34s5.91,1.19,8.06,3.34c2.15,2.15,3.34,5.01,3.34,8.06s-1.19,5.91-3.34,8.06c-10.38,10.38-10.38,27.26,0,37.64,5.02,5.02,11.7,7.78,18.82,7.78h0c7.12,0,13.8-2.76,18.82-7.78,10.38-10.38,10.38-27.26,0-37.64-2.15-2.15-3.34-5.01-3.34-8.06s1.19-5.91,3.34-8.06c4.44-4.44,11.67-4.44,16.12,0h0c9.33,9.33,14.47,21.74,14.47,34.94s-5.14,25.61-14.47,34.94c-9.33,9.33-21.74,14.47-34.94,14.47ZM30.68,31.32c-1.43,0-2.77.56-3.78,1.57-8.19,8.19-12.7,19.08-12.7,30.66s4.51,22.47,12.7,30.66c8.19,8.19,19.08,12.7,30.66,12.7s22.47-4.51,30.66-12.7c8.19-8.19,12.7-19.08,12.7-30.66s-4.51-22.47-12.7-30.66c-2.09-2.09-5.48-2.09-7.57,0-1.01,1.01-1.57,2.35-1.57,3.78s.56,2.77,1.57,3.78c12.74,12.74,12.74,33.46,0,46.19-6.16,6.16-14.36,9.55-23.09,9.55h0c-8.73,0-16.94-3.39-23.1-9.55-12.74-12.74-12.74-33.46,0-46.19,1.01-1.01,1.57-2.35,1.57-3.78s-.56-2.77-1.57-3.78c-1.01-1.01-2.35-1.57-3.78-1.57Z"/>
              <path class="cls-12" d="M57.55,62.72c-6.28,0-11.4-5.11-11.4-11.4v-31.82c0-6.28,5.11-11.4,11.4-11.4s11.4,5.11,11.4,11.4v31.82c0,6.28-5.11,11.4-11.4,11.4ZM57.55,14.16c-2.95,0-5.35,2.4-5.35,5.35v31.82c0,2.95,2.4,5.35,5.35,5.35s5.35-2.4,5.35-5.35v-31.82c0-2.95-2.4-5.35-5.35-5.35Z"/>
            </g>
            <g class="cls-51">
              <path class="cls-12" d="M57.55,112.46c-13.06,0-25.34-5.09-34.58-14.32-9.24-9.24-14.32-21.52-14.32-34.58s5.09-25.34,14.32-34.58c2.06-2.06,4.79-3.19,7.7-3.19s5.64,1.13,7.7,3.19,3.19,4.79,3.19,7.7-1.13,5.64-3.19,7.7c-10.57,10.57-10.57,27.78,0,38.35,5.11,5.11,11.92,7.93,19.18,7.93h0c7.25,0,14.06-2.82,19.18-7.93,10.57-10.57,10.57-27.78,0-38.36-2.06-2.06-3.19-4.79-3.19-7.7s1.13-5.64,3.19-7.7c4.25-4.25,11.16-4.25,15.4,0h0c9.24,9.24,14.32,21.52,14.32,34.58s-5.09,25.34-14.32,34.58-21.52,14.32-34.58,14.32ZM30.68,30.82c-1.56,0-3.03.61-4.14,1.71-8.29,8.29-12.85,19.3-12.85,31.02s4.56,22.73,12.85,31.02,19.3,12.85,31.02,12.85,22.73-4.56,31.02-12.85c8.29-8.29,12.85-19.3,12.85-31.02s-4.56-22.73-12.85-31.02c-2.28-2.28-6-2.28-8.28,0-1.11,1.11-1.71,2.58-1.71,4.14s.61,3.03,1.71,4.14c12.54,12.54,12.54,32.94,0,45.48-6.06,6.06-14.14,9.41-22.74,9.41h0c-8.6,0-16.68-3.34-22.74-9.41-12.54-12.54-12.54-32.94,0-45.48,1.11-1.11,1.71-2.58,1.71-4.14s-.61-3.03-1.71-4.14c-1.11-1.11-2.58-1.71-4.14-1.71Z"/>
              <path class="cls-12" d="M57.55,62.22c-6.01,0-10.89-4.89-10.89-10.89v-31.82c0-6.01,4.89-10.89,10.89-10.89s10.89,4.89,10.89,10.89v31.82c0,6.01-4.89,10.89-10.89,10.89ZM57.55,13.66c-3.23,0-5.85,2.63-5.85,5.85v31.82c0,3.23,2.63,5.85,5.85,5.85s5.85-2.63,5.85-5.85v-31.82c0-3.23-2.63-5.85-5.85-5.85Z"/>
            </g>
            <g class="cls-54">
              <path class="cls-12" d="M57.55,111.95c-12.93,0-25.08-5.03-34.22-14.18-9.14-9.14-14.18-21.3-14.18-34.22s5.03-25.08,14.18-34.22c1.96-1.96,4.57-3.04,7.35-3.04s5.38,1.08,7.35,3.04c1.96,1.96,3.04,4.57,3.04,7.35s-1.08,5.38-3.04,7.35c-10.77,10.77-10.77,28.3,0,39.07,5.21,5.21,12.15,8.08,19.53,8.08h0c7.39,0,14.32-2.87,19.53-8.08,10.77-10.77,10.77-28.3,0-39.07-1.96-1.96-3.04-4.57-3.04-7.35s1.08-5.38,3.04-7.35c4.05-4.05,10.64-4.05,14.69,0h0c9.14,9.14,14.18,21.3,14.18,34.22s-5.03,25.08-14.18,34.22c-9.14,9.14-21.3,14.18-34.23,14.18ZM30.68,30.32c-1.7,0-3.29.66-4.5,1.86-8.38,8.38-13,19.52-13,31.37s4.62,22.99,13,31.37c8.38,8.38,19.52,13,31.37,13s22.99-4.62,31.38-13c8.38-8.38,13-19.52,13-31.37s-4.62-22.99-13-31.37c-2.48-2.48-6.51-2.48-8.99,0-1.2,1.2-1.86,2.8-1.86,4.5s.66,3.29,1.86,4.5c12.34,12.34,12.34,32.42,0,44.77-5.97,5.97-13.92,9.26-22.38,9.26h0c-8.47,0-16.41-3.29-22.38-9.26-12.34-12.34-12.34-32.42,0-44.77,1.2-1.2,1.86-2.8,1.86-4.5s-.66-3.29-1.86-4.5-2.8-1.86-4.5-1.86Z"/>
              <path class="cls-12" d="M57.55,61.72c-5.73,0-10.39-4.66-10.39-10.39v-31.82c0-5.73,4.66-10.39,10.39-10.39s10.39,4.66,10.39,10.39v31.82c0,5.73-4.66,10.39-10.39,10.39ZM57.55,13.15c-3.51,0-6.36,2.85-6.36,6.36v31.82c0,3.51,2.85,6.36,6.36,6.36s6.36-2.85,6.36-6.36v-31.82c0-3.51-2.85-6.36-6.36-6.36Z"/>
            </g>
          </g>
          <g>
            <path class="cls-35" d="M55.45,109.88c-12.93,0-25.08-5.03-34.22-14.18-9.14-9.14-14.18-21.3-14.18-34.22s5.03-25.08,14.18-34.22c1.96-1.96,4.57-3.04,7.35-3.04s5.38,1.08,7.35,3.04c4.05,4.05,4.05,10.64,0,14.69-10.77,10.77-10.77,28.3,0,39.07,5.21,5.21,12.15,8.08,19.53,8.08h0c7.39,0,14.32-2.87,19.53-8.08,10.77-10.77,10.77-28.3,0-39.07-1.96-1.96-3.04-4.57-3.04-7.35s1.08-5.38,3.04-7.35c1.96-1.96,4.57-3.04,7.35-3.04s5.38,1.08,7.35,3.04h0c9.14,9.14,14.18,21.3,14.18,34.22s-5.03,25.08-14.18,34.22c-9.14,9.14-21.3,14.18-34.22,14.18ZM28.57,28.24c-1.7,0-3.29.66-4.5,1.86-8.38,8.38-13,19.52-13,31.37s4.62,22.99,13,31.37c8.38,8.38,19.52,13,31.37,13s22.99-4.62,31.37-13c8.38-8.38,13-19.52,13-31.37s-4.62-22.99-13-31.37h0c-1.2-1.2-2.8-1.86-4.5-1.86s-3.29.66-4.5,1.86c-1.2,1.2-1.86,2.8-1.86,4.5s.66,3.29,1.86,4.5c12.34,12.34,12.34,32.42,0,44.77-5.97,5.97-13.92,9.26-22.38,9.26h0c-8.47,0-16.41-3.29-22.38-9.26-12.34-12.34-12.34-32.42,0-44.77,2.48-2.48,2.48-6.51,0-8.99-1.2-1.2-2.8-1.86-4.5-1.86Z"/>
            <path class="cls-16" d="M55.45,59.65c-5.73,0-10.39-4.66-10.39-10.39v-31.82c0-5.73,4.66-10.39,10.39-10.39s10.39,4.66,10.39,10.39v31.82c0,5.73-4.66,10.39-10.39,10.39ZM55.45,11.08c-3.51,0-6.36,2.85-6.36,6.36v31.82c0,3.51,2.85,6.36,6.36,6.36s6.36-2.85,6.36-6.36v-31.82c0-3.51-2.85-6.36-6.36-6.36Z"/>
          </g>
          <g class="cls-47">
            <g class="cls-50">
              <path class="cls-6" d="M55.45,116.94c-14.81,0-28.74-5.77-39.21-16.24C5.77,90.22,0,76.29,0,61.48s5.77-28.74,16.24-39.21c3.29-3.29,7.67-5.11,12.33-5.11s9.04,1.81,12.33,5.11c6.8,6.8,6.8,17.86,0,24.66-8.02,8.02-8.02,21.07,0,29.09,3.88,3.88,9.04,6.01,14.55,6.01h0c5.5,0,10.67-2.13,14.54-6.01,8.02-8.02,8.02-21.07,0-29.09-3.29-3.29-5.11-7.67-5.11-12.33s1.81-9.04,5.11-12.33c3.29-3.29,7.67-5.11,12.33-5.11s9.04,1.81,12.33,5.11h0c10.47,10.47,16.24,24.4,16.24,39.21s-5.77,28.74-16.24,39.21c-10.47,10.47-24.4,16.24-39.21,16.24ZM81.84,35.09h0s0,0,0,0c0,0,0,0,0,0Z"/>
              <path class="cls-29" d="M55.45,66.7c-9.62,0-17.44-7.82-17.44-17.44v-31.82C38.01,7.82,45.84,0,55.45,0s17.44,7.82,17.44,17.44v31.82c0,9.62-7.82,17.44-17.44,17.44Z"/>
            </g>
            <g class="cls-50">
              <path class="cls-32" d="M55.45,116.43c-14.68,0-28.48-5.72-38.86-16.09C6.22,89.96.5,76.16.5,61.48s5.72-28.48,16.09-38.86c3.2-3.2,7.45-4.96,11.98-4.96s8.78,1.76,11.98,4.96c6.6,6.6,6.6,17.35,0,23.95-8.22,8.22-8.22,21.59,0,29.81,3.97,3.97,9.26,6.16,14.9,6.16h0c5.64,0,10.93-2.19,14.9-6.16,8.22-8.22,8.22-21.59,0-29.81-3.2-3.2-4.96-7.45-4.96-11.98s1.76-8.78,4.96-11.98c3.2-3.2,7.45-4.96,11.98-4.96s8.78,1.76,11.98,4.96h0,0c10.38,10.38,16.09,24.18,16.09,38.86s-5.72,28.48-16.09,38.86c-10.38,10.38-24.18,16.09-38.86,16.09Z"/>
              <path class="cls-45" d="M55.45,66.19c-9.34,0-16.94-7.6-16.94-16.94v-31.82c0-9.34,7.6-16.94,16.94-16.94s16.94,7.6,16.94,16.94v31.82c0,9.34-7.6,16.94-16.94,16.94Z"/>
            </g>
            <g class="cls-50">
              <path class="cls-15" d="M55.45,115.93c-14.54,0-28.22-5.66-38.5-15.95C6.67,89.7,1.01,76.02,1.01,61.48s5.66-28.22,15.95-38.5c3.1-3.1,7.23-4.81,11.62-4.81s8.52,1.71,11.62,4.81c6.41,6.41,6.41,16.83,0,23.24-8.41,8.41-8.41,22.1,0,30.52,4.07,4.07,9.49,6.31,15.26,6.31h0c5.77,0,11.19-2.24,15.26-6.31,8.41-8.41,8.41-22.1,0-30.52-3.1-3.1-4.81-7.23-4.81-11.62s1.71-8.52,4.81-11.62c3.1-3.1,7.23-4.81,11.62-4.81,4.39,0,8.52,1.71,11.62,4.81h0c10.28,10.28,15.95,23.96,15.95,38.5s-5.66,28.22-15.95,38.5-23.96,15.95-38.5,15.95ZM28.57,34.29c-.13,0-.19.06-.22.09-7.24,7.24-11.23,16.86-11.23,27.1s3.99,19.86,11.23,27.1c7.24,7.24,16.86,11.23,27.1,11.23s19.86-3.99,27.1-11.23c7.24-7.24,11.23-16.86,11.23-27.1s-3.99-19.86-11.23-27.1h0s-.09-.09-.22-.09-.19.06-.22.09-.09.09-.09.22.06.19.09.22c14.7,14.7,14.7,38.62,0,53.32-7.11,7.11-16.58,11.03-26.66,11.03h0c-10.08,0-19.55-3.92-26.66-11.03-14.7-14.7-14.7-38.62,0-53.32.12-.12.12-.32,0-.44-.03-.03-.09-.09-.22-.09Z"/>
              <path class="cls-10" d="M55.45,65.69c-9.06,0-16.43-7.37-16.43-16.43v-31.82c0-9.06,7.37-16.43,16.43-16.43s16.43,7.37,16.43,16.43v31.82c0,9.06-7.37,16.43-16.43,16.43ZM55.45,17.13c-.17,0-.31.14-.31.31v31.82c0,.17.14.31.31.31s.31-.14.31-.31v-31.82c0-.17-.14-.31-.31-.31Z"/>
            </g>
            <g class="cls-50">
              <path class="cls-31" d="M55.45,115.42c-14.41,0-27.95-5.61-38.14-15.8C7.12,89.44,1.51,75.89,1.51,61.48s5.61-27.95,15.8-38.14c3.01-3.01,7.01-4.67,11.26-4.67s8.25,1.66,11.26,4.67c6.21,6.21,6.21,16.32,0,22.53-8.61,8.61-8.61,22.62,0,31.23,4.16,4.16,9.71,6.45,15.62,6.45h0c5.91,0,11.45-2.29,15.61-6.45,8.61-8.61,8.61-22.62,0-31.23-3.01-3.01-4.67-7.01-4.67-11.26s1.66-8.26,4.67-11.26c3.01-3.01,7.01-4.67,11.26-4.67,4.26,0,8.26,1.66,11.26,4.67h0c10.19,10.19,15.8,23.73,15.8,38.14s-5.61,27.95-15.8,38.14c-10.19,10.19-23.73,15.8-38.14,15.8ZM28.57,33.79c-.22,0-.42.08-.58.24-7.33,7.33-11.37,17.08-11.37,27.46s4.04,20.12,11.37,27.46,17.09,11.37,27.46,11.37,20.12-4.04,27.46-11.37c7.33-7.33,11.37-17.08,11.37-27.46s-4.04-20.12-11.37-27.46h0c-.16-.16-.35-.24-.58-.24s-.42.08-.58.24c-.16.16-.24.35-.24.58s.08.42.24.58c14.5,14.5,14.5,38.1,0,52.6-7.02,7.02-16.36,10.88-26.3,10.88h0c-9.95,0-19.29-3.87-26.3-10.88-14.5-14.5-14.5-38.1,0-52.6.32-.32.32-.84,0-1.15-.16-.16-.35-.24-.58-.24Z"/>
              <path class="cls-36" d="M55.45,65.19c-8.78,0-15.93-7.15-15.93-15.93v-31.82c0-8.78,7.15-15.93,15.93-15.93s15.93,7.15,15.93,15.93v31.82c0,8.78-7.15,15.93-15.93,15.93ZM55.45,16.62c-.45,0-.82.37-.82.82v31.82c0,.45.37.82.82.82s.82-.37.82-.82v-31.82c0-.45-.37-.82-.82-.82Z"/>
            </g>
            <g class="cls-50">
              <path class="cls-33" d="M55.45,114.92c-14.27,0-27.69-5.56-37.79-15.65-10.09-10.09-15.65-23.51-15.65-37.79s5.56-27.69,15.65-37.79c2.91-2.91,6.79-4.52,10.91-4.52s7.99,1.6,10.91,4.52c6.01,6.01,6.01,15.8,0,21.81-8.81,8.81-8.81,23.14,0,31.94,4.26,4.26,9.93,6.6,15.97,6.6h0c6.04,0,11.71-2.34,15.97-6.6,8.81-8.81,8.81-23.14,0-31.94-2.91-2.91-4.52-6.79-4.52-10.91s1.6-7.99,4.52-10.91c2.91-2.91,6.79-4.52,10.91-4.52s7.99,1.6,10.91,4.52h0c10.09,10.09,15.65,23.51,15.65,37.79s-5.56,27.69-15.65,37.79c-10.09,10.09-23.51,15.65-37.79,15.65ZM28.57,33.28c-.25,0-.61.07-.93.39-7.43,7.43-11.52,17.31-11.52,27.81s4.09,20.38,11.52,27.81c7.43,7.43,17.31,11.52,27.81,11.52s20.38-4.09,27.81-11.52c7.43-7.43,11.52-17.31,11.52-27.81s-4.09-20.38-11.52-27.81h0c-.32-.32-.68-.39-.93-.39s-.61.07-.93.39c-.32.32-.39.68-.39.93s.07.61.39.93c14.31,14.31,14.31,37.59,0,51.89-6.92,6.92-16.14,10.73-25.94,10.73h0c-9.81,0-19.02-3.81-25.94-10.73-14.31-14.31-14.31-37.58,0-51.89.51-.51.51-1.35,0-1.87-.32-.32-.68-.39-.93-.39Z"/>
              <path class="cls-42" d="M55.45,64.68c-8.51,0-15.43-6.92-15.43-15.43v-31.82c0-8.51,6.92-15.43,15.43-15.43s15.43,6.92,15.43,15.43v31.82c0,8.51-6.92,15.43-15.43,15.43ZM55.45,16.12c-.73,0-1.32.59-1.32,1.32v31.82c0,.73.59,1.32,1.32,1.32s1.32-.59,1.32-1.32v-31.82c0-.73-.59-1.32-1.32-1.32Z"/>
            </g>
            <g class="cls-53">
              <path class="cls-14" d="M55.45,114.42c-14.14,0-27.43-5.51-37.43-15.5-10-10-15.5-23.29-15.5-37.43s5.51-27.43,15.5-37.43c2.82-2.82,6.57-4.37,10.55-4.37s7.73,1.55,10.55,4.37c5.82,5.82,5.82,15.28,0,21.1-9,9-9,23.65,0,32.66,4.35,4.35,10.15,6.75,16.33,6.75h0c6.17,0,11.97-2.4,16.33-6.75,9-9,9-23.65,0-32.66-2.82-2.82-4.37-6.57-4.37-10.55s1.55-7.73,4.37-10.55c2.82-2.82,6.57-4.37,10.55-4.37s7.73,1.55,10.55,4.37c10,10,15.5,23.29,15.5,37.43s-5.51,27.43-15.5,37.43c-10,10-23.29,15.5-37.43,15.5ZM28.57,32.78c-.34,0-.85.09-1.29.53-7.52,7.52-11.67,17.53-11.67,28.17s4.14,20.64,11.67,28.17c7.52,7.52,17.53,11.67,28.17,11.67s20.64-4.14,28.17-11.67,11.67-17.53,11.67-28.17-4.14-20.65-11.67-28.17h0c-.44-.44-.94-.53-1.29-.53s-.85.09-1.29.53c-.44.44-.53.95-.53,1.29s.09.85.53,1.29c14.11,14.11,14.11,37.07,0,51.18-6.83,6.83-15.91,10.59-25.59,10.59h0c-9.68,0-18.76-3.76-25.59-10.59-14.11-14.11-14.11-37.07,0-51.18.71-.71.71-1.87,0-2.58-.44-.44-.94-.53-1.29-.53Z"/>
              <path class="cls-2" d="M55.45,64.18c-8.23,0-14.92-6.69-14.92-14.92v-31.82c0-8.23,6.69-14.92,14.92-14.92s14.92,6.69,14.92,14.92v31.82c0,8.23-6.69,14.92-14.92,14.92ZM55.45,15.62c-1.01,0-1.82.82-1.82,1.82v31.82c0,1.01.82,1.82,1.82,1.82s1.82-.82,1.82-1.82v-31.82c0-1.01-.82-1.82-1.82-1.82Z"/>
            </g>
            <g class="cls-53">
              <path class="cls-18" d="M55.45,113.91c-14.01,0-27.17-5.45-37.07-15.36-9.9-9.9-15.36-23.07-15.36-37.07s5.45-27.17,15.36-37.07c2.72-2.72,6.34-4.22,10.19-4.22s7.47,1.5,10.2,4.22c5.62,5.62,5.62,14.77,0,20.39-9.2,9.2-9.2,24.17,0,33.37,4.45,4.45,10.37,6.9,16.68,6.9h0c6.31,0,12.23-2.45,16.68-6.9,9.2-9.2,9.2-24.17,0-33.37-2.72-2.72-4.22-6.34-4.22-10.2s1.5-7.47,4.22-10.2c2.72-2.72,6.34-4.22,10.19-4.22s7.47,1.5,10.2,4.22h0c9.9,9.9,15.36,23.07,15.36,37.07s-5.45,27.17-15.36,37.07c-9.9,9.9-23.07,15.36-37.07,15.36ZM28.57,32.27c-.36,0-1.05.09-1.65.68-7.62,7.62-11.82,17.75-11.82,28.53s4.2,20.91,11.82,28.53c7.62,7.62,17.75,11.82,28.53,11.82s20.91-4.2,28.53-11.82c7.62-7.62,11.82-17.75,11.82-28.53s-4.2-20.91-11.82-28.53h0c-.59-.59-1.29-.68-1.65-.68s-1.05.09-1.65.68c-.59.59-.68,1.29-.68,1.65s.09,1.05.68,1.65c13.91,13.91,13.91,36.55,0,50.47-6.73,6.73-15.69,10.44-25.23,10.44h0c-9.54,0-18.5-3.71-25.23-10.44-13.91-13.91-13.91-36.55,0-50.47.91-.91.91-2.38,0-3.29-.59-.59-1.29-.68-1.65-.68Z"/>
              <path class="cls-28" d="M55.45,63.68c-7.95,0-14.42-6.47-14.42-14.42v-31.82c0-7.95,6.47-14.42,14.42-14.42s14.42,6.47,14.42,14.42v31.82c0,7.95-6.47,14.42-14.42,14.42ZM55.45,15.11c-1.28,0-2.33,1.04-2.33,2.33v31.82c0,1.28,1.04,2.33,2.33,2.33s2.33-1.04,2.33-2.33v-31.82c0-1.28-1.04-2.33-2.33-2.33Z"/>
            </g>
            <g class="cls-53">
              <path class="cls-13" d="M55.45,113.41c-13.87,0-26.91-5.4-36.72-15.21-9.81-9.81-15.21-22.85-15.21-36.72s5.4-26.91,15.21-36.72c2.63-2.63,6.12-4.08,9.84-4.08s7.21,1.45,9.84,4.08c5.43,5.43,5.43,14.25,0,19.68-9.4,9.4-9.4,24.68,0,34.08,4.54,4.54,10.59,7.04,17.04,7.04h0c6.44,0,12.49-2.5,17.04-7.04,9.4-9.4,9.4-24.69,0-34.08-2.63-2.63-4.08-6.12-4.08-9.84s1.45-7.21,4.08-9.84c2.63-2.63,6.12-4.08,9.84-4.08s7.21,1.45,9.84,4.08c9.81,9.81,15.21,22.85,15.21,36.72s-5.4,26.91-15.21,36.72c-9.81,9.81-22.85,15.21-36.72,15.21ZM28.57,31.77c-.76,0-1.47.29-2,.83-7.71,7.71-11.96,17.97-11.96,28.88s4.25,21.17,11.96,28.88c7.71,7.71,17.97,11.96,28.88,11.96s21.17-4.25,28.88-11.96c7.71-7.71,11.96-17.97,11.96-28.88s-4.25-21.17-11.96-28.88h0c-.54-.54-1.25-.83-2-.83s-1.47.29-2,.83c-.54.53-.83,1.25-.83,2s.29,1.47.83,2c13.72,13.72,13.72,36.04,0,49.75-6.64,6.64-15.47,10.29-24.87,10.29h0c-9.41,0-18.24-3.66-24.88-10.29-13.72-13.72-13.72-36.04,0-49.75,1.1-1.1,1.1-2.9,0-4-.53-.54-1.25-.83-2-.83Z"/>
              <path class="cls-23" d="M55.45,63.17c-7.67,0-13.91-6.24-13.91-13.91v-31.82c0-7.67,6.24-13.91,13.91-13.91s13.91,6.24,13.91,13.91v31.82c0,7.67-6.24,13.91-13.91,13.91ZM55.45,14.61c-1.56,0-2.83,1.27-2.83,2.83v31.82c0,1.56,1.27,2.83,2.83,2.83s2.83-1.27,2.83-2.83v-31.82c0-1.56-1.27-2.83-2.83-2.83Z"/>
            </g>
            <g class="cls-53">
              <path class="cls-3" d="M55.45,112.91c-13.74,0-26.65-5.35-36.36-15.06-9.71-9.71-15.06-22.63-15.06-36.36s5.35-26.65,15.06-36.36c2.53-2.53,5.9-3.93,9.48-3.93s6.95,1.4,9.48,3.93c5.23,5.23,5.23,13.74,0,18.97-9.59,9.59-9.59,25.2,0,34.79,4.64,4.64,10.82,7.19,17.4,7.19h0c6.58,0,12.76-2.55,17.39-7.19,9.59-9.59,9.59-25.2,0-34.79-2.53-2.53-3.93-5.9-3.93-9.48s1.4-6.95,3.93-9.48c2.53-2.53,5.9-3.93,9.48-3.93,3.58,0,6.95,1.39,9.48,3.93h0c9.71,9.71,15.06,22.63,15.06,36.36s-5.35,26.65-15.06,36.36c-9.71,9.71-22.63,15.06-36.36,15.06ZM28.57,31.27c-.89,0-1.73.35-2.36.98-7.81,7.81-12.11,18.19-12.11,29.24s4.3,21.43,12.11,29.24,18.19,12.11,29.24,12.11,21.43-4.3,29.24-12.11c7.81-7.81,12.11-18.19,12.11-29.24s-4.3-21.43-12.11-29.24h0c-.63-.63-1.47-.98-2.36-.98s-1.73.35-2.36.98c-.63.63-.98,1.47-.98,2.36s.35,1.73.98,2.36c13.52,13.52,13.52,35.52,0,49.04-6.54,6.54-15.25,10.14-24.52,10.14h0c-9.27,0-17.98-3.6-24.52-10.14-13.52-13.52-13.52-35.52,0-49.04,1.3-1.3,1.3-3.42,0-4.72-.63-.63-1.47-.98-2.36-.98Z"/>
              <path class="cls-39" d="M55.45,62.67c-7.39,0-13.41-6.02-13.41-13.41v-31.82c0-7.39,6.02-13.41,13.41-13.41s13.41,6.02,13.41,13.41v31.82c0,7.39-6.02,13.41-13.41,13.41ZM55.45,14.11c-1.84,0-3.34,1.5-3.34,3.34v31.82c0,1.84,1.5,3.34,3.34,3.34s3.34-1.5,3.34-3.34v-31.82c0-1.84-1.5-3.34-3.34-3.34Z"/>
            </g>
            <g class="cls-51">
              <path class="cls-4" d="M55.45,112.4c-13.6,0-26.39-5.3-36.01-14.91-9.62-9.62-14.91-22.4-14.91-36.01s5.3-26.39,14.91-36.01c2.44-2.44,5.68-3.78,9.13-3.78s6.69,1.34,9.13,3.78c5.03,5.03,5.03,13.22,0,18.25-9.79,9.79-9.79,25.72,0,35.51,4.73,4.73,11.04,7.34,17.75,7.34h0c6.71,0,13.02-2.61,17.75-7.34,9.79-9.79,9.79-25.72,0-35.51-2.44-2.44-3.78-5.68-3.78-9.13s1.34-6.69,3.78-9.13,5.68-3.78,9.13-3.78,6.69,1.34,9.13,3.78h0c9.62,9.62,14.91,22.4,14.91,36.01s-5.3,26.39-14.91,36.01c-9.62,9.62-22.4,14.91-36.01,14.91ZM28.57,30.76c-1.03,0-1.99.4-2.71,1.12-7.9,7.9-12.26,18.41-12.26,29.59s4.35,21.69,12.26,29.59c7.91,7.91,18.42,12.26,29.59,12.26s21.69-4.35,29.59-12.26c7.9-7.9,12.26-18.41,12.26-29.59s-4.35-21.69-12.26-29.59h0c-.72-.72-1.69-1.12-2.71-1.12s-1.99.4-2.71,1.12c-.72.73-1.12,1.69-1.12,2.71s.4,1.99,1.12,2.71c13.32,13.32,13.32,35.01,0,48.33-6.45,6.45-15.03,10-24.16,10h0c-9.14,0-17.72-3.55-24.16-10-13.32-13.32-13.32-35.01,0-48.33,1.5-1.5,1.5-3.93,0-5.43-.72-.72-1.69-1.12-2.71-1.12Z"/>
              <path class="cls-27" d="M55.45,62.16c-7.12,0-12.91-5.79-12.91-12.91v-31.82c0-7.12,5.79-12.91,12.91-12.91s12.91,5.79,12.91,12.91v31.82c0,7.12-5.79,12.91-12.91,12.91ZM55.45,13.6c-2.12,0-3.84,1.72-3.84,3.84v31.82c0,2.12,1.72,3.84,3.84,3.84s3.84-1.72,3.84-3.84v-31.82c0-2.12-1.72-3.84-3.84-3.84Z"/>
            </g>
            <g class="cls-51">
              <path class="cls-9" d="M55.45,111.9c-13.47,0-26.13-5.24-35.65-14.77-9.52-9.52-14.77-22.18-14.77-35.65s5.24-26.13,14.77-35.65c2.34-2.34,5.46-3.63,8.77-3.63s6.43,1.29,8.77,3.63c4.84,4.84,4.84,12.7,0,17.54-9.99,9.99-9.99,26.23,0,36.22,4.83,4.83,11.26,7.49,18.11,7.49h0c6.85,0,13.28-2.66,18.11-7.49,9.98-9.99,9.98-26.23,0-36.22-2.34-2.34-3.63-5.46-3.63-8.77s1.29-6.43,3.63-8.77c2.34-2.34,5.46-3.63,8.77-3.63s6.43,1.29,8.77,3.63h0c9.52,9.52,14.77,22.18,14.77,35.65s-5.24,26.13-14.77,35.65c-9.52,9.52-22.18,14.77-35.65,14.77ZM28.57,30.26c-1.16,0-2.25.45-3.07,1.27-8,8-12.41,18.64-12.41,29.95s4.41,21.95,12.41,29.95c8,8,18.64,12.41,29.95,12.41s21.95-4.41,29.95-12.41c8-8,12.41-18.64,12.41-29.95s-4.41-21.95-12.41-29.95h0c-.82-.82-1.91-1.27-3.07-1.27s-2.25.45-3.07,1.27-1.27,1.91-1.27,3.07.45,2.25,1.27,3.07c13.13,13.13,13.13,34.49,0,47.62-6.35,6.35-14.81,9.85-23.81,9.85h0c-9,0-17.46-3.5-23.81-9.85-13.13-13.13-13.13-34.49,0-47.62,1.69-1.69,1.69-4.45,0-6.14-.82-.82-1.91-1.27-3.07-1.27Z"/>
              <path class="cls-24" d="M55.45,61.66c-6.84,0-12.4-5.56-12.4-12.4v-31.82c0-6.84,5.56-12.4,12.4-12.4s12.4,5.56,12.4,12.4v31.82c0,6.84-5.56,12.4-12.4,12.4ZM55.45,13.1c-2.39,0-4.34,1.95-4.34,4.34v31.82c0,2.39,1.95,4.34,4.34,4.34s4.34-1.95,4.34-4.34v-31.82c0-2.39-1.95-4.34-4.34-4.34Z"/>
            </g>
            <g class="cls-51">
              <path class="cls-19" d="M55.45,111.39c-13.33,0-25.87-5.19-35.29-14.62-9.43-9.43-14.62-21.96-14.62-35.29s5.19-25.87,14.62-35.29c2.25-2.25,5.24-3.49,8.41-3.49s6.17,1.24,8.41,3.49c4.64,4.64,4.64,12.19,0,16.83-10.18,10.18-10.18,26.75,0,36.93,4.92,4.92,11.48,7.63,18.47,7.63h0c6.98,0,13.54-2.71,18.46-7.63,10.18-10.18,10.18-26.75,0-36.93-2.25-2.25-3.49-5.24-3.49-8.41s1.24-6.17,3.49-8.41,5.24-3.49,8.41-3.49,6.17,1.24,8.41,3.49h0,0c9.43,9.43,14.62,21.96,14.62,35.29s-5.19,25.87-14.62,35.29c-9.43,9.43-21.96,14.62-35.29,14.62ZM28.57,29.76c-1.29,0-2.51.5-3.43,1.42-8.1,8.1-12.55,18.86-12.55,30.31s4.46,22.21,12.55,30.31,18.86,12.55,30.31,12.55,22.21-4.46,30.31-12.55c8.1-8.1,12.55-18.86,12.55-30.31s-4.46-22.21-12.55-30.31h0c-.92-.92-2.13-1.42-3.43-1.42s-2.51.5-3.43,1.42c-.92.92-1.42,2.13-1.42,3.43s.5,2.51,1.42,3.43c12.93,12.93,12.93,33.97,0,46.9-6.26,6.26-14.58,9.7-23.45,9.7h0c-8.87,0-17.2-3.45-23.45-9.7-12.93-12.93-12.93-33.97,0-46.9,1.89-1.89,1.89-4.96,0-6.85-.92-.92-2.13-1.42-3.43-1.42Z"/>
              <path class="cls-37" d="M55.45,61.16c-6.56,0-11.9-5.34-11.9-11.9v-31.82c0-6.56,5.34-11.9,11.9-11.9s11.9,5.34,11.9,11.9v31.82c0,6.56-5.34,11.9-11.9,11.9ZM55.45,12.59c-2.67,0-4.85,2.17-4.85,4.85v31.82c0,2.67,2.17,4.85,4.85,4.85s4.85-2.17,4.85-4.85v-31.82c0-2.67-2.17-4.85-4.85-4.85Z"/>
            </g>
            <g class="cls-51">
              <path class="cls-22" d="M55.45,110.89c-13.2,0-25.61-5.14-34.94-14.47-9.33-9.33-14.47-21.74-14.47-34.94s5.14-25.61,14.47-34.94c2.15-2.15,5.01-3.34,8.06-3.34s5.91,1.19,8.06,3.34c4.44,4.44,4.44,11.67,0,16.12-10.38,10.38-10.38,27.26,0,37.64,5.02,5.02,11.7,7.78,18.82,7.78h0c7.12,0,13.8-2.76,18.82-7.78,10.38-10.38,10.38-27.26,0-37.64-2.15-2.15-3.34-5.01-3.34-8.06s1.19-5.91,3.34-8.06,5.01-3.34,8.06-3.34,5.91,1.19,8.06,3.34h0c9.33,9.33,14.47,21.74,14.47,34.94s-5.14,25.6-14.47,34.94c-9.33,9.33-21.74,14.47-34.94,14.47ZM28.57,29.25c-1.43,0-2.77.56-3.78,1.57-8.19,8.19-12.7,19.08-12.7,30.66s4.51,22.47,12.7,30.66c8.19,8.19,19.08,12.7,30.66,12.7s22.47-4.51,30.66-12.7c8.19-8.19,12.7-19.08,12.7-30.66s-4.51-22.47-12.7-30.66h0c-1.01-1.01-2.35-1.57-3.78-1.57s-2.77.56-3.78,1.57-1.57,2.35-1.57,3.78.56,2.77,1.57,3.78c12.74,12.74,12.74,33.46,0,46.19-6.16,6.16-14.36,9.55-23.09,9.55h0c-8.73,0-16.94-3.39-23.1-9.55-12.74-12.74-12.74-33.46,0-46.19,2.09-2.09,2.09-5.48,0-7.57-1.01-1.01-2.35-1.57-3.78-1.57Z"/>
              <path class="cls-38" d="M55.45,60.65c-6.28,0-11.4-5.11-11.4-11.4v-31.82c0-6.28,5.11-11.4,11.4-11.4s11.4,5.11,11.4,11.4v31.82c0,6.28-5.11,11.4-11.4,11.4ZM55.45,12.09c-2.95,0-5.35,2.4-5.35,5.35v31.82c0,2.95,2.4,5.35,5.35,5.35s5.35-2.4,5.35-5.35v-31.82c0-2.95-2.4-5.35-5.35-5.35Z"/>
            </g>
            <g class="cls-51">
              <path class="cls-34" d="M55.45,110.39c-13.06,0-25.34-5.09-34.58-14.32-9.24-9.24-14.32-21.52-14.32-34.58s5.09-25.34,14.32-34.58c2.06-2.06,4.79-3.19,7.7-3.19s5.64,1.13,7.7,3.19c4.25,4.25,4.25,11.16,0,15.4-10.57,10.57-10.57,27.78,0,38.36,5.11,5.11,11.92,7.93,19.18,7.93h0c7.25,0,14.06-2.82,19.17-7.93,10.57-10.57,10.57-27.78,0-38.36-2.06-2.06-3.19-4.79-3.19-7.7s1.13-5.64,3.19-7.7c2.06-2.06,4.79-3.19,7.7-3.19,2.91,0,5.64,1.13,7.7,3.19h0c9.24,9.24,14.32,21.52,14.32,34.58s-5.09,25.34-14.32,34.58c-9.24,9.24-21.52,14.32-34.58,14.32ZM28.57,28.75c-1.56,0-3.03.61-4.14,1.71-8.29,8.29-12.85,19.3-12.85,31.02s4.56,22.73,12.85,31.02c8.29,8.29,19.3,12.85,31.02,12.85s22.73-4.56,31.02-12.85c8.29-8.29,12.85-19.3,12.85-31.02s-4.56-22.73-12.85-31.02h0c-1.11-1.11-2.58-1.71-4.14-1.71s-3.03.61-4.14,1.71c-1.11,1.11-1.71,2.58-1.71,4.14s.61,3.03,1.71,4.14c12.54,12.54,12.54,32.94,0,45.48-6.06,6.06-14.14,9.4-22.74,9.41h0c-8.6,0-16.68-3.34-22.74-9.41-12.54-12.54-12.54-32.94,0-45.48,2.28-2.28,2.28-6,0-8.28-1.11-1.11-2.58-1.71-4.14-1.71Z"/>
              <path class="cls-41" d="M55.45,60.15c-6.01,0-10.89-4.89-10.89-10.89v-31.82c0-6.01,4.89-10.89,10.89-10.89s10.89,4.89,10.89,10.89v31.82c0,6.01-4.89,10.89-10.89,10.89ZM55.45,11.59c-3.23,0-5.85,2.63-5.85,5.85v31.82c0,3.23,2.63,5.85,5.85,5.85s5.85-2.63,5.85-5.85v-31.82c0-3.23-2.63-5.85-5.85-5.85Z"/>
            </g>
            <g>
              <path class="cls-40" d="M55.45,109.88c-12.93,0-25.08-5.03-34.22-14.18-9.14-9.14-14.18-21.3-14.18-34.22s5.03-25.08,14.18-34.22c1.96-1.96,4.57-3.04,7.35-3.04s5.38,1.08,7.35,3.04c4.05,4.05,4.05,10.64,0,14.69-10.77,10.77-10.77,28.3,0,39.07,5.21,5.21,12.15,8.08,19.53,8.08h0c7.39,0,14.32-2.87,19.53-8.08,10.77-10.77,10.77-28.3,0-39.07-1.96-1.96-3.04-4.57-3.04-7.35s1.08-5.38,3.04-7.35c1.96-1.96,4.57-3.04,7.35-3.04s5.38,1.08,7.35,3.04h0c9.14,9.14,14.18,21.3,14.18,34.22s-5.03,25.08-14.18,34.22c-9.14,9.14-21.3,14.18-34.22,14.18ZM28.57,28.24c-1.7,0-3.29.66-4.5,1.86-8.38,8.38-13,19.52-13,31.37s4.62,22.99,13,31.37c8.38,8.38,19.52,13,31.37,13s22.99-4.62,31.37-13c8.38-8.38,13-19.52,13-31.37s-4.62-22.99-13-31.37h0c-1.2-1.2-2.8-1.86-4.5-1.86s-3.29.66-4.5,1.86c-1.2,1.2-1.86,2.8-1.86,4.5s.66,3.29,1.86,4.5c12.34,12.34,12.34,32.42,0,44.77-5.97,5.97-13.92,9.26-22.38,9.26h0c-8.47,0-16.41-3.29-22.38-9.26-12.34-12.34-12.34-32.42,0-44.77,2.48-2.48,2.48-6.51,0-8.99-1.2-1.2-2.8-1.86-4.5-1.86Z"/>
              <path class="cls-26" d="M55.45,59.65c-5.73,0-10.39-4.66-10.39-10.39v-31.82c0-5.73,4.66-10.39,10.39-10.39s10.39,4.66,10.39,10.39v31.82c0,5.73-4.66,10.39-10.39,10.39ZM55.45,11.08c-3.51,0-6.36,2.85-6.36,6.36v31.82c0,3.51,2.85,6.36,6.36,6.36s6.36-2.85,6.36-6.36v-31.82c0-3.51-2.85-6.36-6.36-6.36Z"/>
            </g>
          </g>
          <g class="cls-52">
            <g>
              <path class="cls-12" d="M55.45,109.88c-12.93,0-25.08-5.03-34.22-14.18-9.14-9.14-14.18-21.3-14.18-34.22s5.03-25.08,14.18-34.22c1.96-1.96,4.57-3.04,7.35-3.04s5.38,1.08,7.35,3.04c4.05,4.05,4.05,10.64,0,14.69-10.77,10.77-10.77,28.3,0,39.07,5.21,5.21,12.15,8.08,19.53,8.08h0c7.39,0,14.32-2.87,19.53-8.08,10.77-10.77,10.77-28.3,0-39.07-1.96-1.96-3.04-4.57-3.04-7.35s1.08-5.38,3.04-7.35c1.96-1.96,4.57-3.04,7.35-3.04s5.38,1.08,7.35,3.04h0c9.14,9.14,14.18,21.3,14.18,34.22s-5.03,25.08-14.18,34.22c-9.14,9.14-21.3,14.18-34.22,14.18ZM28.57,28.24c-1.7,0-3.29.66-4.5,1.86-8.38,8.38-13,19.52-13,31.37s4.62,22.99,13,31.37c8.38,8.38,19.52,13,31.37,13s22.99-4.62,31.37-13c8.38-8.38,13-19.52,13-31.37s-4.62-22.99-13-31.37h0c-1.2-1.2-2.8-1.86-4.5-1.86s-3.29.66-4.5,1.86c-1.2,1.2-1.86,2.8-1.86,4.5s.66,3.29,1.86,4.5c12.34,12.34,12.34,32.42,0,44.77-5.97,5.97-13.92,9.26-22.38,9.26h0c-8.47,0-16.41-3.29-22.38-9.26-12.34-12.34-12.34-32.42,0-44.77,2.48-2.48,2.48-6.51,0-8.99-1.2-1.2-2.8-1.86-4.5-1.86Z"/>
              <path class="cls-12" d="M55.45,59.65c-5.73,0-10.39-4.66-10.39-10.39v-31.82c0-5.73,4.66-10.39,10.39-10.39s10.39,4.66,10.39,10.39v31.82c0,5.73-4.66,10.39-10.39,10.39ZM55.45,11.08c-3.51,0-6.36,2.85-6.36,6.36v31.82c0,3.51,2.85,6.36,6.36,6.36s6.36-2.85,6.36-6.36v-31.82c0-3.51-2.85-6.36-6.36-6.36Z"/>
            </g>
            <g>
              <path class="cls-44" d="M55.45,109.78c-12.9,0-25.03-5.02-34.15-14.15-9.12-9.12-14.15-21.25-14.15-34.15s5.02-25.03,14.15-34.15c1.94-1.94,4.53-3.01,7.27-3.01s5.33,1.07,7.27,3.01c4.01,4.01,4.01,10.54,0,14.55-10.81,10.81-10.81,28.4,0,39.21,5.23,5.23,12.19,8.11,19.61,8.11h0c7.41,0,14.37-2.88,19.6-8.11,10.81-10.81,10.81-28.4,0-39.21-1.94-1.94-3.01-4.53-3.01-7.27s1.07-5.33,3.01-7.27c1.94-1.94,4.53-3.01,7.27-3.01,2.75,0,5.33,1.07,7.27,3.01h0c9.12,9.12,14.15,21.25,14.15,34.15s-5.02,25.03-14.15,34.15c-9.12,9.12-21.25,14.15-34.15,14.15ZM28.57,28.14c-1.73,0-3.35.67-4.57,1.89-8.4,8.4-13.03,19.57-13.03,31.45s4.63,23.05,13.03,31.45,19.57,13.03,31.45,13.03,23.05-4.63,31.45-13.03c8.4-8.4,13.03-19.57,13.03-31.45s-4.63-23.05-13.03-31.45h0c-1.22-1.22-2.84-1.89-4.57-1.89s-3.35.67-4.57,1.89c-1.22,1.22-1.89,2.84-1.89,4.57s.67,3.35,1.89,4.57c12.3,12.3,12.3,32.32,0,44.62-5.95,5.95-13.87,9.23-22.31,9.23h0c-8.44,0-16.36-3.28-22.31-9.23-12.3-12.3-12.3-32.32,0-44.62,2.52-2.52,2.52-6.62,0-9.13-1.22-1.22-2.84-1.89-4.57-1.89Z"/>
              <path class="cls-44" d="M55.45,59.54c-5.67,0-10.29-4.62-10.29-10.29v-31.82c0-5.67,4.61-10.29,10.29-10.29s10.29,4.62,10.29,10.29v31.82c0,5.67-4.61,10.29-10.29,10.29ZM55.45,10.98c-3.56,0-6.46,2.9-6.46,6.46v31.82c0,3.56,2.9,6.46,6.46,6.46s6.46-2.9,6.46-6.46v-31.82c0-3.56-2.9-6.46-6.46-6.46Z"/>
            </g>
            <g>
              <path class="cls-17" d="M55.45,109.68c-12.87,0-24.98-5.01-34.08-14.12-9.1-9.1-14.12-21.21-14.12-34.08s5.01-24.98,14.12-34.08c1.92-1.92,4.48-2.98,7.2-2.98s5.28,1.06,7.2,2.98c3.97,3.97,3.97,10.43,0,14.41-10.85,10.85-10.85,28.5,0,39.35,5.25,5.25,12.23,8.14,19.68,8.14h0c7.44,0,14.43-2.89,19.67-8.14,10.85-10.85,10.85-28.5,0-39.35-1.92-1.92-2.98-4.48-2.98-7.2s1.06-5.28,2.98-7.2c1.92-1.92,4.48-2.98,7.2-2.98s5.28,1.06,7.2,2.98h0c9.1,9.1,14.12,21.21,14.12,34.08s-5.01,24.98-14.12,34.08c-9.1,9.1-21.21,14.12-34.08,14.12ZM28.57,28.04c-1.75,0-3.4.68-4.64,1.92-8.42,8.42-13.05,19.61-13.05,31.52s4.64,23.1,13.05,31.52,19.61,13.06,31.52,13.06,23.1-4.64,31.52-13.06c8.42-8.42,13.05-19.61,13.05-31.52s-4.64-23.1-13.05-31.52h0c-1.24-1.24-2.89-1.92-4.64-1.92s-3.4.68-4.64,1.92c-1.24,1.24-1.92,2.89-1.92,4.64s.68,3.4,1.92,4.64c12.26,12.26,12.26,32.22,0,44.48-5.93,5.93-13.83,9.2-22.24,9.2h0c-8.41,0-16.31-3.27-22.24-9.2-12.26-12.26-12.26-32.22,0-44.48,2.56-2.56,2.56-6.72,0-9.28-1.24-1.24-2.89-1.92-4.64-1.92Z"/>
              <path class="cls-17" d="M55.45,59.44c-5.62,0-10.19-4.57-10.19-10.19v-31.82c0-5.62,4.57-10.19,10.19-10.19s10.19,4.57,10.19,10.19v31.82c0,5.62-4.57,10.19-10.19,10.19ZM55.45,10.88c-3.62,0-6.56,2.94-6.56,6.56v31.82c0,3.62,2.94,6.56,6.56,6.56s6.56-2.94,6.56-6.56v-31.82c0-3.62-2.94-6.56-6.56-6.56Z"/>
            </g>
            <g>
              <path class="cls-30" d="M55.45,109.58c-12.85,0-24.93-5-34.01-14.09-9.08-9.08-14.09-21.16-14.09-34.01s5-24.93,14.09-34.01c1.9-1.9,4.44-2.95,7.13-2.95s5.23,1.05,7.13,2.95c3.93,3.93,3.93,10.33,0,14.26-10.89,10.89-10.89,28.61,0,39.5,5.26,5.26,12.28,8.16,19.75,8.17h0c7.47,0,14.48-2.9,19.74-8.17,10.89-10.89,10.89-28.61,0-39.5-1.9-1.9-2.95-4.44-2.95-7.13s1.05-5.23,2.95-7.13,4.44-2.95,7.13-2.95,5.23,1.05,7.13,2.95c9.08,9.08,14.09,21.16,14.09,34.01s-5,24.93-14.09,34.01c-9.08,9.08-21.16,14.09-34.01,14.09ZM28.57,27.94c-1.78,0-3.45.69-4.71,1.95-8.44,8.44-13.08,19.66-13.08,31.59s4.65,23.15,13.08,31.59c8.44,8.44,19.66,13.08,31.59,13.08s23.15-4.65,31.59-13.08c8.44-8.44,13.08-19.66,13.08-31.59s-4.65-23.15-13.08-31.59h0c-1.26-1.26-2.93-1.95-4.71-1.95s-3.45.69-4.71,1.95c-1.26,1.26-1.95,2.93-1.95,4.71s.69,3.45,1.95,4.71c12.22,12.22,12.22,32.12,0,44.34-5.91,5.91-13.79,9.17-22.17,9.17h0c-8.38,0-16.26-3.26-22.17-9.17-12.22-12.22-12.22-32.12,0-44.34,2.6-2.6,2.6-6.82,0-9.42-1.26-1.26-2.93-1.95-4.71-1.95Z"/>
              <path class="cls-30" d="M55.45,59.34c-5.56,0-10.09-4.52-10.09-10.09v-31.82c0-5.56,4.52-10.09,10.09-10.09s10.09,4.52,10.09,10.09v31.82c0,5.56-4.52,10.09-10.09,10.09ZM55.45,10.78c-3.67,0-6.66,2.99-6.66,6.66v31.82c0,3.67,2.99,6.66,6.66,6.66s6.66-2.99,6.66-6.66v-31.82c0-3.67-2.99-6.66-6.66-6.66Z"/>
            </g>
            <g>
              <path class="cls-5" d="M55.45,109.48c-12.82,0-24.87-4.99-33.94-14.06-9.07-9.07-14.06-21.12-14.06-33.94s4.99-24.87,14.06-33.94c1.89-1.89,4.39-2.92,7.06-2.92s5.17,1.04,7.06,2.92c3.89,3.89,3.89,10.23,0,14.12-10.93,10.93-10.93,28.71,0,39.64,5.28,5.28,12.32,8.19,19.82,8.2h0c7.49,0,14.53-2.91,19.82-8.2,10.93-10.93,10.93-28.71,0-39.64-1.89-1.89-2.92-4.39-2.92-7.06s1.04-5.17,2.92-7.06c1.89-1.89,4.39-2.92,7.06-2.92s5.17,1.04,7.06,2.92h0c9.07,9.07,14.06,21.12,14.06,33.94s-4.99,24.87-14.06,33.94c-9.07,9.07-21.12,14.06-33.94,14.06ZM28.57,27.84c-1.81,0-3.5.7-4.78,1.98-8.46,8.46-13.11,19.7-13.11,31.66s4.66,23.2,13.11,31.66c8.46,8.46,19.7,13.11,31.66,13.11s23.2-4.66,31.66-13.11c8.46-8.46,13.11-19.7,13.11-31.66s-4.66-23.2-13.11-31.66h0c-1.28-1.28-2.97-1.98-4.78-1.98s-3.5.7-4.78,1.98c-1.28,1.28-1.98,2.97-1.98,4.78s.7,3.5,1.98,4.78c12.19,12.19,12.19,32.01,0,44.2-5.89,5.89-13.74,9.14-22.1,9.14h0c-8.36,0-16.21-3.25-22.1-9.14-12.18-12.19-12.18-32.01,0-44.2,2.64-2.64,2.64-6.93,0-9.56-1.28-1.28-2.98-1.98-4.78-1.98Z"/>
              <path class="cls-5" d="M55.45,59.24c-5.51,0-9.99-4.48-9.99-9.98v-31.82c0-5.51,4.48-9.98,9.99-9.98s9.98,4.48,9.98,9.98v31.82c0,5.51-4.48,9.98-9.98,9.98ZM55.45,10.68c-3.73,0-6.76,3.03-6.76,6.76v31.82c0,3.73,3.03,6.76,6.76,6.76s6.76-3.03,6.76-6.76v-31.82c0-3.73-3.03-6.76-6.76-6.76Z"/>
            </g>
            <g>
              <path class="cls-5" d="M55.45,109.38c-12.79,0-24.82-4.98-33.87-14.03-9.05-9.05-14.03-21.07-14.03-33.87s4.98-24.82,14.03-33.87c1.87-1.87,4.35-2.9,6.99-2.9s5.12,1.03,6.99,2.9c3.85,3.85,3.85,10.12,0,13.98-10.97,10.97-10.97,28.81,0,39.78,5.3,5.3,12.37,8.22,19.89,8.22h0c7.52,0,14.58-2.92,19.89-8.22,10.97-10.97,10.97-28.81,0-39.78-1.87-1.87-2.9-4.35-2.9-6.99s1.03-5.12,2.9-6.99c1.87-1.87,4.35-2.9,6.99-2.9s5.12,1.03,6.99,2.9h0c9.05,9.05,14.03,21.07,14.03,33.87s-4.98,24.82-14.03,33.87c-9.05,9.05-21.07,14.03-33.87,14.03ZM28.57,27.74c-1.83,0-3.56.71-4.85,2.01-8.48,8.48-13.14,19.74-13.14,31.73s4.67,23.26,13.14,31.73c8.48,8.48,19.74,13.14,31.73,13.14s23.26-4.67,31.73-13.14c8.48-8.48,13.14-19.74,13.14-31.73s-4.67-23.26-13.14-31.73h0c-1.3-1.3-3.02-2.01-4.85-2.01s-3.56.71-4.85,2.01c-1.3,1.3-2.01,3.02-2.01,4.85s.71,3.56,2.01,4.85c12.15,12.15,12.15,31.91,0,44.05-5.87,5.87-13.7,9.11-22.02,9.11h0c-8.33,0-16.15-3.24-22.03-9.11-12.15-12.15-12.15-31.91,0-44.05,2.68-2.68,2.68-7.03,0-9.7-1.3-1.3-3.02-2.01-4.85-2.01Z"/>
              <path class="cls-5" d="M55.45,59.14c-5.45,0-9.88-4.43-9.88-9.88v-31.82c0-5.45,4.43-9.88,9.88-9.88s9.88,4.43,9.88,9.88v31.82c0,5.45-4.43,9.88-9.88,9.88ZM55.45,10.58c-3.78,0-6.86,3.08-6.86,6.86v31.82c0,3.78,3.08,6.86,6.86,6.86s6.86-3.08,6.86-6.86v-31.82c0-3.78-3.08-6.86-6.86-6.86Z"/>
            </g>
            <g>
              <path class="cls-20" d="M55.45,109.28c-12.77,0-24.77-4.97-33.8-14-9.03-9.03-14-21.03-14-33.8s4.97-24.77,14-33.8c1.85-1.85,4.3-2.87,6.92-2.87s5.07,1.02,6.92,2.87c3.81,3.81,3.81,10.02,0,13.84-11.01,11.01-11.01,28.92,0,39.92,5.32,5.32,12.41,8.25,19.96,8.25h0c7.55,0,14.64-2.93,19.96-8.25,11.01-11.01,11.01-28.92,0-39.92-1.85-1.85-2.87-4.3-2.87-6.92s1.02-5.07,2.87-6.92c1.85-1.85,4.3-2.87,6.92-2.87s5.07,1.02,6.92,2.87h0c9.03,9.03,14,21.03,14,33.8s-4.97,24.77-14,33.8c-9.03,9.03-21.03,14-33.8,14ZM28.57,27.64c-1.86,0-3.61.72-4.92,2.04-8.49,8.49-13.17,19.79-13.17,31.8s4.68,23.31,13.17,31.8,19.79,13.17,31.8,13.17,23.31-4.68,31.8-13.17c8.49-8.49,13.17-19.79,13.17-31.8s-4.68-23.31-13.17-31.8h0c-1.31-1.31-3.06-2.04-4.92-2.04s-3.61.72-4.92,2.04c-1.32,1.31-2.04,3.06-2.04,4.92s.72,3.61,2.04,4.92c12.11,12.11,12.11,31.81,0,43.91-5.86,5.86-13.65,9.08-21.95,9.08h0c-8.3,0-16.1-3.23-21.96-9.08-12.11-12.11-12.11-31.81,0-43.91,2.71-2.71,2.71-7.13,0-9.85-1.31-1.31-3.06-2.04-4.92-2.04Z"/>
              <path class="cls-20" d="M55.45,59.04c-5.39,0-9.78-4.39-9.78-9.78v-31.82c0-5.39,4.39-9.78,9.78-9.78s9.78,4.39,9.78,9.78v31.82c0,5.39-4.39,9.78-9.78,9.78ZM55.45,10.48c-3.84,0-6.96,3.12-6.96,6.96v31.82c0,3.84,3.12,6.96,6.96,6.96s6.96-3.12,6.96-6.96v-31.82c0-3.84-3.12-6.96-6.96-6.96Z"/>
            </g>
            <g>
              <path class="cls-1" d="M55.45,109.18c-12.74,0-24.72-4.96-33.73-13.97-9.01-9.01-13.97-20.99-13.97-33.73s4.96-24.72,13.97-33.73c1.83-1.83,4.26-2.84,6.85-2.84s5.02,1.01,6.85,2.84c3.78,3.78,3.78,9.92,0,13.69-11.05,11.05-11.05,29.02,0,40.07,5.34,5.34,12.46,8.28,20.03,8.28h0c7.57,0,14.69-2.94,20.03-8.28,11.05-11.05,11.05-29.02,0-40.06-1.83-1.83-2.84-4.26-2.84-6.85s1.01-5.02,2.84-6.85c1.83-1.83,4.26-2.84,6.85-2.84,2.59,0,5.02,1.01,6.85,2.84h0c9.01,9.01,13.97,20.99,13.97,33.73s-4.96,24.72-13.97,33.73-20.99,13.97-33.73,13.97ZM28.57,27.54c-1.89,0-3.66.73-4.99,2.07-8.51,8.51-13.2,19.83-13.2,31.87s4.69,23.36,13.2,31.87c8.51,8.51,19.83,13.2,31.87,13.2s23.36-4.69,31.87-13.2,13.2-19.83,13.2-31.87-4.69-23.36-13.2-31.87h0c-1.33-1.33-3.11-2.07-4.99-2.07s-3.66.73-4.99,2.07c-1.33,1.33-2.07,3.11-2.07,4.99s.73,3.66,2.07,4.99c12.07,12.07,12.07,31.7,0,43.77-5.84,5.84-13.61,9.05-21.88,9.05h0c-8.28,0-16.05-3.22-21.88-9.05-12.07-12.07-12.07-31.7,0-43.77,2.75-2.75,2.75-7.23,0-9.99-1.33-1.33-3.11-2.07-4.99-2.07Z"/>
              <path class="cls-1" d="M55.45,58.94c-5.34,0-9.68-4.34-9.68-9.68v-31.82c0-5.34,4.34-9.68,9.68-9.68s9.68,4.34,9.68,9.68v31.82c0,5.34-4.34,9.68-9.68,9.68ZM55.45,10.38c-3.89,0-7.06,3.17-7.06,7.06v31.82c0,3.89,3.17,7.06,7.06,7.06s7.06-3.17,7.06-7.06v-31.82c0-3.89-3.17-7.06-7.06-7.06Z"/>
            </g>
            <g>
              <path class="cls-7" d="M55.45,108.98c-12.69,0-24.61-4.94-33.58-13.91-8.97-8.97-13.91-20.9-13.91-33.58s4.94-24.61,13.91-33.58c1.79-1.79,4.17-2.78,6.7-2.78s4.91.99,6.7,2.78c3.7,3.7,3.7,9.71,0,13.41-11.12,11.12-11.12,29.23,0,40.35,5.38,5.38,12.54,8.34,20.18,8.34h0c7.63,0,14.79-2.96,20.17-8.34,11.12-11.12,11.12-29.23,0-40.35-1.79-1.79-2.78-4.17-2.78-6.7s.99-4.91,2.78-6.7c1.79-1.79,4.17-2.78,6.7-2.78s4.91.99,6.7,2.78h0c8.97,8.97,13.91,20.9,13.91,33.58s-4.94,24.61-13.91,33.58c-8.97,8.97-20.9,13.91-33.58,13.91ZM28.57,27.34c-1.94,0-3.76.76-5.14,2.13-8.55,8.55-13.26,19.92-13.26,32.02s4.71,23.46,13.26,32.02c8.55,8.55,19.92,13.26,32.02,13.26s23.46-4.71,32.02-13.26c8.55-8.55,13.26-19.92,13.26-32.02s-4.71-23.46-13.26-32.02h0c-1.37-1.37-3.2-2.13-5.14-2.13-1.94,0-3.76.76-5.14,2.13s-2.13,3.2-2.13,5.14.76,3.76,2.13,5.14c11.99,11.99,11.99,31.5,0,43.48-5.8,5.8-13.52,8.99-21.74,8.99h0c-8.22,0-15.94-3.19-21.74-8.99-11.99-11.99-11.99-31.5,0-43.48,2.83-2.83,2.83-7.44,0-10.27-1.37-1.37-3.2-2.13-5.14-2.13Z"/>
              <path class="cls-7" d="M55.45,58.74c-5.23,0-9.48-4.25-9.48-9.48v-31.82c0-5.23,4.25-9.48,9.48-9.48s9.48,4.25,9.48,9.48v31.82c0,5.23-4.25,9.48-9.48,9.48ZM55.45,10.18c-4.01,0-7.26,3.26-7.26,7.26v31.82c0,4.01,3.26,7.26,7.26,7.26s7.26-3.26,7.26-7.26v-31.82c0-4.01-3.26-7.26-7.26-7.26Z"/>
            </g>
            <g>
              <path class="cls-21" d="M55.45,108.77c-12.63,0-24.51-4.92-33.44-13.85-8.93-8.93-13.85-20.81-13.85-33.44s4.92-24.51,13.85-33.44c1.75-1.75,4.08-2.72,6.56-2.72s4.81.97,6.56,2.72c3.62,3.62,3.62,9.51,0,13.12-11.2,11.2-11.2,29.43,0,40.64,5.42,5.42,12.63,8.4,20.32,8.4h0c7.68,0,14.9-2.98,20.31-8.4,11.2-11.2,11.2-29.43,0-40.64-1.75-1.75-2.72-4.08-2.72-6.56s.97-4.81,2.72-6.56,4.08-2.72,6.56-2.72,4.81.97,6.56,2.72h0c8.93,8.93,13.85,20.81,13.85,33.44s-4.92,24.51-13.85,33.44c-8.93,8.93-20.81,13.85-33.44,13.85ZM28.57,27.14c-1.99,0-3.87.78-5.28,2.19-8.59,8.59-13.32,20.01-13.32,32.16s4.73,23.57,13.32,32.16c8.59,8.59,20.01,13.32,32.16,13.32s23.57-4.73,32.16-13.32c8.59-8.59,13.32-20.01,13.32-32.16s-4.73-23.57-13.32-32.16h0c-1.41-1.41-3.28-2.19-5.28-2.19s-3.87.78-5.28,2.19c-1.41,1.41-2.19,3.28-2.19,5.28s.78,3.87,2.19,5.28c11.91,11.91,11.91,31.29,0,43.2-5.76,5.76-13.43,8.93-21.6,8.93h0c-8.17,0-15.84-3.17-21.6-8.93-11.91-11.91-11.91-31.29,0-43.2,2.91-2.91,2.91-7.65,0-10.56-1.41-1.41-3.29-2.19-5.28-2.19Z"/>
              <path class="cls-21" d="M55.45,58.54c-5.12,0-9.28-4.16-9.28-9.28v-31.82c0-5.12,4.16-9.28,9.28-9.28s9.28,4.16,9.28,9.28v31.82c0,5.12-4.16,9.28-9.28,9.28ZM55.45,9.97c-4.12,0-7.47,3.35-7.47,7.47v31.82c0,4.12,3.35,7.47,7.47,7.47s7.47-3.35,7.47-7.47v-31.82c0-4.12-3.35-7.47-7.47-7.47Z"/>
            </g>
            <g>
              <path class="cls-11" d="M55.45,108.57c-12.58,0-24.4-4.9-33.3-13.79-8.89-8.89-13.79-20.72-13.79-33.3s4.9-24.4,13.79-33.3c1.71-1.71,3.99-2.66,6.42-2.66s4.7.94,6.42,2.66c3.54,3.54,3.54,9.3,0,12.84-11.28,11.28-11.28,29.64,0,40.92,5.46,5.46,12.72,8.46,20.46,8.46h0c7.74,0,15-3,20.46-8.46,11.28-11.28,11.28-29.64,0-40.92-1.71-1.71-2.66-3.99-2.66-6.42s.94-4.7,2.66-6.42c1.71-1.71,3.99-2.66,6.42-2.66,2.42,0,4.7.94,6.42,2.66,8.89,8.89,13.79,20.72,13.79,33.3s-4.9,24.4-13.79,33.3-20.72,13.79-33.3,13.79ZM28.57,26.93c-2.05,0-3.97.8-5.42,2.25-8.63,8.63-13.38,20.1-13.38,32.3s4.75,23.67,13.38,32.3c8.63,8.63,20.1,13.38,32.3,13.38s23.67-4.75,32.3-13.38,13.38-20.1,13.38-32.3-4.75-23.67-13.38-32.3h0c-1.45-1.45-3.37-2.25-5.42-2.25s-3.97.8-5.42,2.25-2.25,3.37-2.25,5.42.8,3.97,2.25,5.42c11.83,11.83,11.83,31.08,0,42.91-5.72,5.72-13.34,8.87-21.45,8.87h0c-8.12,0-15.74-3.15-21.46-8.87-11.83-11.83-11.83-31.08,0-42.91,2.99-2.99,2.99-7.85,0-10.84-1.45-1.45-3.37-2.25-5.42-2.25Z"/>
              <path class="cls-11" d="M55.45,58.34c-5.01,0-9.08-4.07-9.08-9.08v-31.82c0-5.01,4.07-9.08,9.08-9.08s9.08,4.07,9.08,9.08v31.82c0,5.01-4.07,9.08-9.08,9.08ZM55.45,9.77c-4.23,0-7.67,3.44-7.67,7.67v31.82c0,4.23,3.44,7.67,7.67,7.67s7.67-3.44,7.67-7.67v-31.82c0-4.23-3.44-7.67-7.67-7.67Z"/>
            </g>
            <g>
              <path class="cls-25" d="M55.45,108.37c-12.52,0-24.3-4.88-33.16-13.73-8.86-8.86-13.73-20.63-13.73-33.16s4.88-24.3,13.73-33.16c1.68-1.68,3.91-2.6,6.28-2.6s4.6.92,6.28,2.6c3.46,3.46,3.46,9.09,0,12.55-11.36,11.36-11.36,29.84,0,41.21,5.49,5.49,12.81,8.52,20.6,8.52h0c7.79,0,15.1-3.03,20.6-8.52,11.36-11.36,11.36-29.84,0-41.21-1.68-1.68-2.6-3.91-2.6-6.28s.92-4.6,2.6-6.28c1.68-1.68,3.91-2.6,6.28-2.6s4.6.92,6.28,2.6c8.86,8.86,13.73,20.63,13.73,33.16s-4.88,24.3-13.73,33.16c-8.86,8.86-20.63,13.73-33.16,13.73ZM28.57,26.73c-2.1,0-4.08.82-5.56,2.3-8.67,8.67-13.44,20.19-13.44,32.44s4.77,23.78,13.44,32.44c8.67,8.67,20.19,13.44,32.44,13.44s23.78-4.77,32.44-13.44,13.44-20.19,13.44-32.44-4.77-23.78-13.44-32.44h0c-1.49-1.49-3.46-2.3-5.56-2.3s-4.08.82-5.56,2.3c-1.49,1.49-2.31,3.46-2.31,5.56s.82,4.08,2.31,5.56c11.75,11.75,11.75,30.88,0,42.63-5.68,5.68-13.25,8.81-21.31,8.82h0c-8.06,0-15.63-3.13-21.32-8.82-11.75-11.75-11.75-30.88,0-42.63,3.07-3.07,3.07-8.06,0-11.13-1.49-1.49-3.46-2.3-5.56-2.3Z"/>
              <path class="cls-25" d="M55.45,58.13c-4.89,0-8.88-3.98-8.88-8.88v-31.82c0-4.89,3.98-8.88,8.88-8.88s8.88,3.98,8.88,8.88v31.82c0,4.89-3.98,8.88-8.88,8.88ZM55.45,9.57c-4.34,0-7.87,3.53-7.87,7.87v31.82c0,4.34,3.53,7.87,7.87,7.87s7.87-3.53,7.87-7.87v-31.82c0-4.34-3.53-7.87-7.87-7.87Z"/>
            </g>
          </g>
          <g class="cls-52">
            <g>
              <path class="cls-12" d="M55.45,109.88c-12.93,0-25.08-5.03-34.22-14.18-9.14-9.14-14.18-21.3-14.18-34.22s5.03-25.08,14.18-34.22c1.96-1.96,4.57-3.04,7.35-3.04s5.38,1.08,7.35,3.04c4.05,4.05,4.05,10.64,0,14.69-10.77,10.77-10.77,28.3,0,39.07,5.21,5.21,12.15,8.08,19.53,8.08h0c7.39,0,14.32-2.87,19.53-8.08,10.77-10.77,10.77-28.3,0-39.07-1.96-1.96-3.04-4.57-3.04-7.35s1.08-5.38,3.04-7.35c1.96-1.96,4.57-3.04,7.35-3.04s5.38,1.08,7.35,3.04h0c9.14,9.14,14.18,21.3,14.18,34.22s-5.03,25.08-14.18,34.22c-9.14,9.14-21.3,14.18-34.22,14.18ZM28.57,28.24c-1.7,0-3.29.66-4.5,1.86-8.38,8.38-13,19.52-13,31.37s4.62,22.99,13,31.37c8.38,8.38,19.52,13,31.37,13s22.99-4.62,31.37-13c8.38-8.38,13-19.52,13-31.37s-4.62-22.99-13-31.37h0c-1.2-1.2-2.8-1.86-4.5-1.86s-3.29.66-4.5,1.86c-1.2,1.2-1.86,2.8-1.86,4.5s.66,3.29,1.86,4.5c12.34,12.34,12.34,32.42,0,44.77-5.97,5.97-13.92,9.26-22.38,9.26h0c-8.47,0-16.41-3.29-22.38-9.26-12.34-12.34-12.34-32.42,0-44.77,2.48-2.48,2.48-6.51,0-8.99-1.2-1.2-2.8-1.86-4.5-1.86Z"/>
              <path class="cls-12" d="M55.45,59.65c-5.73,0-10.39-4.66-10.39-10.39v-31.82c0-5.73,4.66-10.39,10.39-10.39s10.39,4.66,10.39,10.39v31.82c0,5.73-4.66,10.39-10.39,10.39ZM55.45,11.08c-3.51,0-6.36,2.85-6.36,6.36v31.82c0,3.51,2.85,6.36,6.36,6.36s6.36-2.85,6.36-6.36v-31.82c0-3.51-2.85-6.36-6.36-6.36Z"/>
            </g>
            <g>
              <path class="cls-44" d="M55.45,109.78c-12.9,0-25.03-5.02-34.15-14.15-9.12-9.12-14.15-21.25-14.15-34.15s5.02-25.03,14.15-34.15c1.94-1.94,4.53-3.01,7.27-3.01s5.33,1.07,7.27,3.01c4.01,4.01,4.01,10.54,0,14.55-10.81,10.81-10.81,28.4,0,39.21,5.23,5.23,12.19,8.11,19.61,8.11h0c7.41,0,14.37-2.88,19.6-8.11,10.81-10.81,10.81-28.4,0-39.21-1.94-1.94-3.01-4.53-3.01-7.27s1.07-5.33,3.01-7.27c1.94-1.94,4.53-3.01,7.27-3.01,2.75,0,5.33,1.07,7.27,3.01h0c9.12,9.12,14.15,21.25,14.15,34.15s-5.02,25.03-14.15,34.15c-9.12,9.12-21.25,14.15-34.15,14.15ZM28.57,28.14c-1.73,0-3.35.67-4.57,1.89-8.4,8.4-13.03,19.57-13.03,31.45s4.63,23.05,13.03,31.45,19.57,13.03,31.45,13.03,23.05-4.63,31.45-13.03c8.4-8.4,13.03-19.57,13.03-31.45s-4.63-23.05-13.03-31.45h0c-1.22-1.22-2.84-1.89-4.57-1.89s-3.35.67-4.57,1.89c-1.22,1.22-1.89,2.84-1.89,4.57s.67,3.35,1.89,4.57c12.3,12.3,12.3,32.32,0,44.62-5.95,5.95-13.87,9.23-22.31,9.23h0c-8.44,0-16.36-3.28-22.31-9.23-12.3-12.3-12.3-32.32,0-44.62,2.52-2.52,2.52-6.62,0-9.13-1.22-1.22-2.84-1.89-4.57-1.89Z"/>
              <path class="cls-44" d="M55.45,59.54c-5.67,0-10.29-4.62-10.29-10.29v-31.82c0-5.67,4.61-10.29,10.29-10.29s10.29,4.62,10.29,10.29v31.82c0,5.67-4.61,10.29-10.29,10.29ZM55.45,10.98c-3.56,0-6.46,2.9-6.46,6.46v31.82c0,3.56,2.9,6.46,6.46,6.46s6.46-2.9,6.46-6.46v-31.82c0-3.56-2.9-6.46-6.46-6.46Z"/>
            </g>
            <g>
              <path class="cls-17" d="M55.45,109.68c-12.87,0-24.98-5.01-34.08-14.12-9.1-9.1-14.12-21.21-14.12-34.08s5.01-24.98,14.12-34.08c1.92-1.92,4.48-2.98,7.2-2.98s5.28,1.06,7.2,2.98c3.97,3.97,3.97,10.43,0,14.41-10.85,10.85-10.85,28.5,0,39.35,5.25,5.25,12.23,8.14,19.68,8.14h0c7.44,0,14.43-2.89,19.67-8.14,10.85-10.85,10.85-28.5,0-39.35-1.92-1.92-2.98-4.48-2.98-7.2s1.06-5.28,2.98-7.2c1.92-1.92,4.48-2.98,7.2-2.98s5.28,1.06,7.2,2.98h0c9.1,9.1,14.12,21.21,14.12,34.08s-5.01,24.98-14.12,34.08c-9.1,9.1-21.21,14.12-34.08,14.12ZM28.57,28.04c-1.75,0-3.4.68-4.64,1.92-8.42,8.42-13.05,19.61-13.05,31.52s4.64,23.1,13.05,31.52,19.61,13.06,31.52,13.06,23.1-4.64,31.52-13.06c8.42-8.42,13.05-19.61,13.05-31.52s-4.64-23.1-13.05-31.52h0c-1.24-1.24-2.89-1.92-4.64-1.92s-3.4.68-4.64,1.92c-1.24,1.24-1.92,2.89-1.92,4.64s.68,3.4,1.92,4.64c12.26,12.26,12.26,32.22,0,44.48-5.93,5.93-13.83,9.2-22.24,9.2h0c-8.41,0-16.31-3.27-22.24-9.2-12.26-12.26-12.26-32.22,0-44.48,2.56-2.56,2.56-6.72,0-9.28-1.24-1.24-2.89-1.92-4.64-1.92Z"/>
              <path class="cls-17" d="M55.45,59.44c-5.62,0-10.19-4.57-10.19-10.19v-31.82c0-5.62,4.57-10.19,10.19-10.19s10.19,4.57,10.19,10.19v31.82c0,5.62-4.57,10.19-10.19,10.19ZM55.45,10.88c-3.62,0-6.56,2.94-6.56,6.56v31.82c0,3.62,2.94,6.56,6.56,6.56s6.56-2.94,6.56-6.56v-31.82c0-3.62-2.94-6.56-6.56-6.56Z"/>
            </g>
            <g>
              <path class="cls-30" d="M55.45,109.58c-12.85,0-24.93-5-34.01-14.09-9.08-9.08-14.09-21.16-14.09-34.01s5-24.93,14.09-34.01c1.9-1.9,4.44-2.95,7.13-2.95s5.23,1.05,7.13,2.95c3.93,3.93,3.93,10.33,0,14.26-10.89,10.89-10.89,28.61,0,39.5,5.26,5.26,12.28,8.16,19.75,8.17h0c7.47,0,14.48-2.9,19.74-8.17,10.89-10.89,10.89-28.61,0-39.5-1.9-1.9-2.95-4.44-2.95-7.13s1.05-5.23,2.95-7.13,4.44-2.95,7.13-2.95,5.23,1.05,7.13,2.95c9.08,9.08,14.09,21.16,14.09,34.01s-5,24.93-14.09,34.01c-9.08,9.08-21.16,14.09-34.01,14.09ZM28.57,27.94c-1.78,0-3.45.69-4.71,1.95-8.44,8.44-13.08,19.66-13.08,31.59s4.65,23.15,13.08,31.59c8.44,8.44,19.66,13.08,31.59,13.08s23.15-4.65,31.59-13.08c8.44-8.44,13.08-19.66,13.08-31.59s-4.65-23.15-13.08-31.59h0c-1.26-1.26-2.93-1.95-4.71-1.95s-3.45.69-4.71,1.95c-1.26,1.26-1.95,2.93-1.95,4.71s.69,3.45,1.95,4.71c12.22,12.22,12.22,32.12,0,44.34-5.91,5.91-13.79,9.17-22.17,9.17h0c-8.38,0-16.26-3.26-22.17-9.17-12.22-12.22-12.22-32.12,0-44.34,2.6-2.6,2.6-6.82,0-9.42-1.26-1.26-2.93-1.95-4.71-1.95Z"/>
              <path class="cls-30" d="M55.45,59.34c-5.56,0-10.09-4.52-10.09-10.09v-31.82c0-5.56,4.52-10.09,10.09-10.09s10.09,4.52,10.09,10.09v31.82c0,5.56-4.52,10.09-10.09,10.09ZM55.45,10.78c-3.67,0-6.66,2.99-6.66,6.66v31.82c0,3.67,2.99,6.66,6.66,6.66s6.66-2.99,6.66-6.66v-31.82c0-3.67-2.99-6.66-6.66-6.66Z"/>
            </g>
            <g>
              <path class="cls-5" d="M55.45,109.48c-12.82,0-24.87-4.99-33.94-14.06-9.07-9.07-14.06-21.12-14.06-33.94s4.99-24.87,14.06-33.94c1.89-1.89,4.39-2.92,7.06-2.92s5.17,1.04,7.06,2.92c3.89,3.89,3.89,10.23,0,14.12-10.93,10.93-10.93,28.71,0,39.64,5.28,5.28,12.32,8.19,19.82,8.2h0c7.49,0,14.53-2.91,19.82-8.2,10.93-10.93,10.93-28.71,0-39.64-1.89-1.89-2.92-4.39-2.92-7.06s1.04-5.17,2.92-7.06c1.89-1.89,4.39-2.92,7.06-2.92s5.17,1.04,7.06,2.92h0c9.07,9.07,14.06,21.12,14.06,33.94s-4.99,24.87-14.06,33.94c-9.07,9.07-21.12,14.06-33.94,14.06ZM28.57,27.84c-1.81,0-3.5.7-4.78,1.98-8.46,8.46-13.11,19.7-13.11,31.66s4.66,23.2,13.11,31.66c8.46,8.46,19.7,13.11,31.66,13.11s23.2-4.66,31.66-13.11c8.46-8.46,13.11-19.7,13.11-31.66s-4.66-23.2-13.11-31.66h0c-1.28-1.28-2.97-1.98-4.78-1.98s-3.5.7-4.78,1.98c-1.28,1.28-1.98,2.97-1.98,4.78s.7,3.5,1.98,4.78c12.19,12.19,12.19,32.01,0,44.2-5.89,5.89-13.74,9.14-22.1,9.14h0c-8.36,0-16.21-3.25-22.1-9.14-12.18-12.19-12.18-32.01,0-44.2,2.64-2.64,2.64-6.93,0-9.56-1.28-1.28-2.98-1.98-4.78-1.98Z"/>
              <path class="cls-5" d="M55.45,59.24c-5.51,0-9.99-4.48-9.99-9.98v-31.82c0-5.51,4.48-9.98,9.99-9.98s9.98,4.48,9.98,9.98v31.82c0,5.51-4.48,9.98-9.98,9.98ZM55.45,10.68c-3.73,0-6.76,3.03-6.76,6.76v31.82c0,3.73,3.03,6.76,6.76,6.76s6.76-3.03,6.76-6.76v-31.82c0-3.73-3.03-6.76-6.76-6.76Z"/>
            </g>
            <g>
              <path class="cls-5" d="M55.45,109.38c-12.79,0-24.82-4.98-33.87-14.03-9.05-9.05-14.03-21.07-14.03-33.87s4.98-24.82,14.03-33.87c1.87-1.87,4.35-2.9,6.99-2.9s5.12,1.03,6.99,2.9c3.85,3.85,3.85,10.12,0,13.98-10.97,10.97-10.97,28.81,0,39.78,5.3,5.3,12.37,8.22,19.89,8.22h0c7.52,0,14.58-2.92,19.89-8.22,10.97-10.97,10.97-28.81,0-39.78-1.87-1.87-2.9-4.35-2.9-6.99s1.03-5.12,2.9-6.99c1.87-1.87,4.35-2.9,6.99-2.9s5.12,1.03,6.99,2.9h0c9.05,9.05,14.03,21.07,14.03,33.87s-4.98,24.82-14.03,33.87c-9.05,9.05-21.07,14.03-33.87,14.03ZM28.57,27.74c-1.83,0-3.56.71-4.85,2.01-8.48,8.48-13.14,19.74-13.14,31.73s4.67,23.26,13.14,31.73c8.48,8.48,19.74,13.14,31.73,13.14s23.26-4.67,31.73-13.14c8.48-8.48,13.14-19.74,13.14-31.73s-4.67-23.26-13.14-31.73h0c-1.3-1.3-3.02-2.01-4.85-2.01s-3.56.71-4.85,2.01c-1.3,1.3-2.01,3.02-2.01,4.85s.71,3.56,2.01,4.85c12.15,12.15,12.15,31.91,0,44.05-5.87,5.87-13.7,9.11-22.02,9.11h0c-8.33,0-16.15-3.24-22.03-9.11-12.15-12.15-12.15-31.91,0-44.05,2.68-2.68,2.68-7.03,0-9.7-1.3-1.3-3.02-2.01-4.85-2.01Z"/>
              <path class="cls-5" d="M55.45,59.14c-5.45,0-9.88-4.43-9.88-9.88v-31.82c0-5.45,4.43-9.88,9.88-9.88s9.88,4.43,9.88,9.88v31.82c0,5.45-4.43,9.88-9.88,9.88ZM55.45,10.58c-3.78,0-6.86,3.08-6.86,6.86v31.82c0,3.78,3.08,6.86,6.86,6.86s6.86-3.08,6.86-6.86v-31.82c0-3.78-3.08-6.86-6.86-6.86Z"/>
            </g>
            <g>
              <path class="cls-20" d="M55.45,109.28c-12.77,0-24.77-4.97-33.8-14-9.03-9.03-14-21.03-14-33.8s4.97-24.77,14-33.8c1.85-1.85,4.3-2.87,6.92-2.87s5.07,1.02,6.92,2.87c3.81,3.81,3.81,10.02,0,13.84-11.01,11.01-11.01,28.92,0,39.92,5.32,5.32,12.41,8.25,19.96,8.25h0c7.55,0,14.64-2.93,19.96-8.25,11.01-11.01,11.01-28.92,0-39.92-1.85-1.85-2.87-4.3-2.87-6.92s1.02-5.07,2.87-6.92c1.85-1.85,4.3-2.87,6.92-2.87s5.07,1.02,6.92,2.87h0c9.03,9.03,14,21.03,14,33.8s-4.97,24.77-14,33.8c-9.03,9.03-21.03,14-33.8,14ZM28.57,27.64c-1.86,0-3.61.72-4.92,2.04-8.49,8.49-13.17,19.79-13.17,31.8s4.68,23.31,13.17,31.8,19.79,13.17,31.8,13.17,23.31-4.68,31.8-13.17c8.49-8.49,13.17-19.79,13.17-31.8s-4.68-23.31-13.17-31.8h0c-1.31-1.31-3.06-2.04-4.92-2.04s-3.61.72-4.92,2.04c-1.32,1.31-2.04,3.06-2.04,4.92s.72,3.61,2.04,4.92c12.11,12.11,12.11,31.81,0,43.91-5.86,5.86-13.65,9.08-21.95,9.08h0c-8.3,0-16.1-3.23-21.96-9.08-12.11-12.11-12.11-31.81,0-43.91,2.71-2.71,2.71-7.13,0-9.85-1.31-1.31-3.06-2.04-4.92-2.04Z"/>
              <path class="cls-20" d="M55.45,59.04c-5.39,0-9.78-4.39-9.78-9.78v-31.82c0-5.39,4.39-9.78,9.78-9.78s9.78,4.39,9.78,9.78v31.82c0,5.39-4.39,9.78-9.78,9.78ZM55.45,10.48c-3.84,0-6.96,3.12-6.96,6.96v31.82c0,3.84,3.12,6.96,6.96,6.96s6.96-3.12,6.96-6.96v-31.82c0-3.84-3.12-6.96-6.96-6.96Z"/>
            </g>
            <g>
              <path class="cls-1" d="M55.45,109.18c-12.74,0-24.72-4.96-33.73-13.97-9.01-9.01-13.97-20.99-13.97-33.73s4.96-24.72,13.97-33.73c1.83-1.83,4.26-2.84,6.85-2.84s5.02,1.01,6.85,2.84c3.78,3.78,3.78,9.92,0,13.69-11.05,11.05-11.05,29.02,0,40.07,5.34,5.34,12.46,8.28,20.03,8.28h0c7.57,0,14.69-2.94,20.03-8.28,11.05-11.05,11.05-29.02,0-40.06-1.83-1.83-2.84-4.26-2.84-6.85s1.01-5.02,2.84-6.85c1.83-1.83,4.26-2.84,6.85-2.84,2.59,0,5.02,1.01,6.85,2.84h0c9.01,9.01,13.97,20.99,13.97,33.73s-4.96,24.72-13.97,33.73-20.99,13.97-33.73,13.97ZM28.57,27.54c-1.89,0-3.66.73-4.99,2.07-8.51,8.51-13.2,19.83-13.2,31.87s4.69,23.36,13.2,31.87c8.51,8.51,19.83,13.2,31.87,13.2s23.36-4.69,31.87-13.2,13.2-19.83,13.2-31.87-4.69-23.36-13.2-31.87h0c-1.33-1.33-3.11-2.07-4.99-2.07s-3.66.73-4.99,2.07c-1.33,1.33-2.07,3.11-2.07,4.99s.73,3.66,2.07,4.99c12.07,12.07,12.07,31.7,0,43.77-5.84,5.84-13.61,9.05-21.88,9.05h0c-8.28,0-16.05-3.22-21.88-9.05-12.07-12.07-12.07-31.7,0-43.77,2.75-2.75,2.75-7.23,0-9.99-1.33-1.33-3.11-2.07-4.99-2.07Z"/>
              <path class="cls-1" d="M55.45,58.94c-5.34,0-9.68-4.34-9.68-9.68v-31.82c0-5.34,4.34-9.68,9.68-9.68s9.68,4.34,9.68,9.68v31.82c0,5.34-4.34,9.68-9.68,9.68ZM55.45,10.38c-3.89,0-7.06,3.17-7.06,7.06v31.82c0,3.89,3.17,7.06,7.06,7.06s7.06-3.17,7.06-7.06v-31.82c0-3.89-3.17-7.06-7.06-7.06Z"/>
            </g>
            <g>
              <path class="cls-7" d="M55.45,108.98c-12.69,0-24.61-4.94-33.58-13.91-8.97-8.97-13.91-20.9-13.91-33.58s4.94-24.61,13.91-33.58c1.79-1.79,4.17-2.78,6.7-2.78s4.91.99,6.7,2.78c3.7,3.7,3.7,9.71,0,13.41-11.12,11.12-11.12,29.23,0,40.35,5.38,5.38,12.54,8.34,20.18,8.34h0c7.63,0,14.79-2.96,20.17-8.34,11.12-11.12,11.12-29.23,0-40.35-1.79-1.79-2.78-4.17-2.78-6.7s.99-4.91,2.78-6.7c1.79-1.79,4.17-2.78,6.7-2.78s4.91.99,6.7,2.78h0c8.97,8.97,13.91,20.9,13.91,33.58s-4.94,24.61-13.91,33.58c-8.97,8.97-20.9,13.91-33.58,13.91ZM28.57,27.34c-1.94,0-3.76.76-5.14,2.13-8.55,8.55-13.26,19.92-13.26,32.02s4.71,23.46,13.26,32.02c8.55,8.55,19.92,13.26,32.02,13.26s23.46-4.71,32.02-13.26c8.55-8.55,13.26-19.92,13.26-32.02s-4.71-23.46-13.26-32.02h0c-1.37-1.37-3.2-2.13-5.14-2.13-1.94,0-3.76.76-5.14,2.13s-2.13,3.2-2.13,5.14.76,3.76,2.13,5.14c11.99,11.99,11.99,31.5,0,43.48-5.8,5.8-13.52,8.99-21.74,8.99h0c-8.22,0-15.94-3.19-21.74-8.99-11.99-11.99-11.99-31.5,0-43.48,2.83-2.83,2.83-7.44,0-10.27-1.37-1.37-3.2-2.13-5.14-2.13Z"/>
              <path class="cls-7" d="M55.45,58.74c-5.23,0-9.48-4.25-9.48-9.48v-31.82c0-5.23,4.25-9.48,9.48-9.48s9.48,4.25,9.48,9.48v31.82c0,5.23-4.25,9.48-9.48,9.48ZM55.45,10.18c-4.01,0-7.26,3.26-7.26,7.26v31.82c0,4.01,3.26,7.26,7.26,7.26s7.26-3.26,7.26-7.26v-31.82c0-4.01-3.26-7.26-7.26-7.26Z"/>
            </g>
            <g>
              <path class="cls-21" d="M55.45,108.77c-12.63,0-24.51-4.92-33.44-13.85-8.93-8.93-13.85-20.81-13.85-33.44s4.92-24.51,13.85-33.44c1.75-1.75,4.08-2.72,6.56-2.72s4.81.97,6.56,2.72c3.62,3.62,3.62,9.51,0,13.12-11.2,11.2-11.2,29.43,0,40.64,5.42,5.42,12.63,8.4,20.32,8.4h0c7.68,0,14.9-2.98,20.31-8.4,11.2-11.2,11.2-29.43,0-40.64-1.75-1.75-2.72-4.08-2.72-6.56s.97-4.81,2.72-6.56,4.08-2.72,6.56-2.72,4.81.97,6.56,2.72h0c8.93,8.93,13.85,20.81,13.85,33.44s-4.92,24.51-13.85,33.44c-8.93,8.93-20.81,13.85-33.44,13.85ZM28.57,27.14c-1.99,0-3.87.78-5.28,2.19-8.59,8.59-13.32,20.01-13.32,32.16s4.73,23.57,13.32,32.16c8.59,8.59,20.01,13.32,32.16,13.32s23.57-4.73,32.16-13.32c8.59-8.59,13.32-20.01,13.32-32.16s-4.73-23.57-13.32-32.16h0c-1.41-1.41-3.28-2.19-5.28-2.19s-3.87.78-5.28,2.19c-1.41,1.41-2.19,3.28-2.19,5.28s.78,3.87,2.19,5.28c11.91,11.91,11.91,31.29,0,43.2-5.76,5.76-13.43,8.93-21.6,8.93h0c-8.17,0-15.84-3.17-21.6-8.93-11.91-11.91-11.91-31.29,0-43.2,2.91-2.91,2.91-7.65,0-10.56-1.41-1.41-3.29-2.19-5.28-2.19Z"/>
              <path class="cls-21" d="M55.45,58.54c-5.12,0-9.28-4.16-9.28-9.28v-31.82c0-5.12,4.16-9.28,9.28-9.28s9.28,4.16,9.28,9.28v31.82c0,5.12-4.16,9.28-9.28,9.28ZM55.45,9.97c-4.12,0-7.47,3.35-7.47,7.47v31.82c0,4.12,3.35,7.47,7.47,7.47s7.47-3.35,7.47-7.47v-31.82c0-4.12-3.35-7.47-7.47-7.47Z"/>
            </g>
            <g>
              <path class="cls-11" d="M55.45,108.57c-12.58,0-24.4-4.9-33.3-13.79-8.89-8.89-13.79-20.72-13.79-33.3s4.9-24.4,13.79-33.3c1.71-1.71,3.99-2.66,6.42-2.66s4.7.94,6.42,2.66c3.54,3.54,3.54,9.3,0,12.84-11.28,11.28-11.28,29.64,0,40.92,5.46,5.46,12.72,8.46,20.46,8.46h0c7.74,0,15-3,20.46-8.46,11.28-11.28,11.28-29.64,0-40.92-1.71-1.71-2.66-3.99-2.66-6.42s.94-4.7,2.66-6.42c1.71-1.71,3.99-2.66,6.42-2.66,2.42,0,4.7.94,6.42,2.66,8.89,8.89,13.79,20.72,13.79,33.3s-4.9,24.4-13.79,33.3-20.72,13.79-33.3,13.79ZM28.57,26.93c-2.05,0-3.97.8-5.42,2.25-8.63,8.63-13.38,20.1-13.38,32.3s4.75,23.67,13.38,32.3c8.63,8.63,20.1,13.38,32.3,13.38s23.67-4.75,32.3-13.38,13.38-20.1,13.38-32.3-4.75-23.67-13.38-32.3h0c-1.45-1.45-3.37-2.25-5.42-2.25s-3.97.8-5.42,2.25-2.25,3.37-2.25,5.42.8,3.97,2.25,5.42c11.83,11.83,11.83,31.08,0,42.91-5.72,5.72-13.34,8.87-21.45,8.87h0c-8.12,0-15.74-3.15-21.46-8.87-11.83-11.83-11.83-31.08,0-42.91,2.99-2.99,2.99-7.85,0-10.84-1.45-1.45-3.37-2.25-5.42-2.25Z"/>
              <path class="cls-11" d="M55.45,58.34c-5.01,0-9.08-4.07-9.08-9.08v-31.82c0-5.01,4.07-9.08,9.08-9.08s9.08,4.07,9.08,9.08v31.82c0,5.01-4.07,9.08-9.08,9.08ZM55.45,9.77c-4.23,0-7.67,3.44-7.67,7.67v31.82c0,4.23,3.44,7.67,7.67,7.67s7.67-3.44,7.67-7.67v-31.82c0-4.23-3.44-7.67-7.67-7.67Z"/>
            </g>
            <g>
              <path class="cls-25" d="M55.45,108.37c-12.52,0-24.3-4.88-33.16-13.73-8.86-8.86-13.73-20.63-13.73-33.16s4.88-24.3,13.73-33.16c1.68-1.68,3.91-2.6,6.28-2.6s4.6.92,6.28,2.6c3.46,3.46,3.46,9.09,0,12.55-11.36,11.36-11.36,29.84,0,41.21,5.49,5.49,12.81,8.52,20.6,8.52h0c7.79,0,15.1-3.03,20.6-8.52,11.36-11.36,11.36-29.84,0-41.21-1.68-1.68-2.6-3.91-2.6-6.28s.92-4.6,2.6-6.28c1.68-1.68,3.91-2.6,6.28-2.6s4.6.92,6.28,2.6c8.86,8.86,13.73,20.63,13.73,33.16s-4.88,24.3-13.73,33.16c-8.86,8.86-20.63,13.73-33.16,13.73ZM28.57,26.73c-2.1,0-4.08.82-5.56,2.3-8.67,8.67-13.44,20.19-13.44,32.44s4.77,23.78,13.44,32.44c8.67,8.67,20.19,13.44,32.44,13.44s23.78-4.77,32.44-13.44,13.44-20.19,13.44-32.44-4.77-23.78-13.44-32.44h0c-1.49-1.49-3.46-2.3-5.56-2.3s-4.08.82-5.56,2.3c-1.49,1.49-2.31,3.46-2.31,5.56s.82,4.08,2.31,5.56c11.75,11.75,11.75,30.88,0,42.63-5.68,5.68-13.25,8.81-21.31,8.82h0c-8.06,0-15.63-3.13-21.32-8.82-11.75-11.75-11.75-30.88,0-42.63,3.07-3.07,3.07-8.06,0-11.13-1.49-1.49-3.46-2.3-5.56-2.3Z"/>
              <path class="cls-25" d="M55.45,58.13c-4.89,0-8.88-3.98-8.88-8.88v-31.82c0-4.89,3.98-8.88,8.88-8.88s8.88,3.98,8.88,8.88v31.82c0,4.89-3.98,8.88-8.88,8.88ZM55.45,9.57c-4.34,0-7.87,3.53-7.87,7.87v31.82c0,4.34,3.53,7.87,7.87,7.87s7.87-3.53,7.87-7.87v-31.82c0-4.34-3.53-7.87-7.87-7.87Z"/>
            </g>
          </g>
        </g>
      </g>
    </g>
  </g>
</svg>