<?xml version="1.0" encoding="UTF-8"?>
<svg id="Calque_2" data-name="Calque 2" xmlns="http://www.w3.org/2000/svg" viewBox="0 0 1598.24 445.35">
  <defs>
    <style>
      .cls-1 {
        stroke-width: .69px;
      }

      .cls-1, .cls-2, .cls-3, .cls-4, .cls-5, .cls-6, .cls-7, .cls-8, .cls-9, .cls-10, .cls-11, .cls-12, .cls-13, .cls-14, .cls-15, .cls-16 {
        stroke: #fff;
      }

      .cls-1, .cls-2, .cls-3, .cls-4, .cls-5, .cls-6, .cls-7, .cls-8, .cls-10, .cls-11, .cls-12, .cls-13, .cls-14, .cls-15, .cls-16 {
        fill: none;
      }

      .cls-2 {
        stroke-width: .39px;
      }

      .cls-3 {
        stroke-width: 1.29px;
      }

      .cls-3, .cls-4, .cls-10, .cls-11, .cls-12, .cls-13, .cls-14, .cls-15, .cls-16 {
        stroke-linecap: round;
      }

      .cls-4 {
        stroke-width: 1.29px;
      }

      .cls-5 {
        stroke-width: .98px;
      }

      .cls-6 {
        stroke-width: .83px;
      }

      .cls-7 {
        stroke-width: .54px;
      }

      .cls-17, .cls-9 {
        fill: #fff;
      }

      .cls-17, .cls-18, .cls-19 {
        stroke-width: 0px;
      }

      .cls-8 {
        stroke-width: .24px;
      }

      .cls-9 {
        stroke-width: .45px;
      }

      .cls-18 {
        fill: #231f20;
      }

      .cls-19 {
        fill: #b5b5b5;
      }

      .cls-10 {
        stroke-width: 1.3px;
      }

      .cls-11 {
        stroke-width: 1.31px;
      }

      .cls-12 {
        stroke-width: 1.3px;
      }

      .cls-13 {
        stroke-width: 1.29px;
      }

      .cls-14 {
        stroke-width: 1.3px;
      }

      .cls-15 {
        stroke-width: 1.31px;
      }

      .cls-16 {
        stroke-width: 1.31px;
      }
    </style>
  </defs>
  <g id="Calque_1-2" data-name="Calque 1">
    <g>
      <g>
        <polygon class="cls-18" points="913.79 285.44 841.76 297.55 .08 445.35 .08 269.3 815.13 139.22 887.17 127.1 887.18 127.17 887.44 128.72 888.98 137.89 893.77 166.41 898.58 194.98 903.38 223.54 908.19 252.08 912.99 280.66 913.43 283.3 913.77 285.33 913.79 285.44"/>
        <g>
          <path class="cls-18" d="M886.98,127.23s36.79-9.08,52.03-30.43c15.17-21.36,20.09-30.84,31.91-33.56,11.86-2.71,26.47-1.57,52.24,1.34,25.77,2.9,485.82,65.05,485.82,65.05,0,0,102.74,9.75,87.78,105.23-15.01,95.75-110.26,80.3-119.88,77.96-49-12-46.6-53.56-66.77-57.46-20.13-3.83-104.36,24.09-141.92,41.23-37.64,17.17-132.49,54.77-166.43,50.38,0,0-51.13-84.65-188.18-61.62l-26.6-158.13Z"/>
          <path class="cls-9" d="M1039.95,107.53c-.82,6.41-6.69,10.96-13.14,10.12-6.43-.83-10.95-6.74-10.09-13.15.82-6.42,6.69-10.99,13.11-10.15,6.47.84,11,6.74,10.12,13.17Z"/>
          <path class="cls-9" d="M1132.75,119.58c-.81,6.41-6.73,10.96-13.16,10.11-6.42-.82-10.95-6.7-10.11-13.13.82-6.41,6.7-10.98,13.15-10.15,6.43.84,10.93,6.77,10.12,13.18Z"/>
          <path class="cls-9" d="M1225.53,131.6c-.84,6.43-6.71,10.97-13.15,10.13-6.43-.84-10.93-6.71-10.11-13.13.84-6.43,6.72-10.98,13.12-10.15,6.44.85,10.95,6.74,10.14,13.16Z"/>
          <path class="cls-9" d="M1318.33,143.67c-.83,6.38-6.74,10.93-13.16,10.09-6.41-.82-10.94-6.73-10.13-13.13.86-6.45,6.76-10.99,13.17-10.18,6.42.86,10.95,6.76,10.13,13.21Z"/>
          <path class="cls-9" d="M1411.1,155.7c-.81,6.43-6.7,10.96-13.14,10.13-6.43-.85-10.94-6.74-10.13-13.15.85-6.42,6.72-10.97,13.15-10.13,6.43.83,10.94,6.72,10.12,13.15Z"/>
          <path class="cls-9" d="M1503.9,167.75c-.81,6.4-6.69,10.95-13.16,10.11-6.41-.82-10.96-6.73-10.14-13.14.87-6.43,6.73-10.99,13.18-10.14,6.41.82,10.94,6.72,10.12,13.17Z"/>
          <g>
            <path class="cls-18" d="M1062.48,80.52l6.93-31.33s-11.16-8.1-17.07-17.53l5.1-24.35s33.8-22.46,61.03,11.41l-4.84,26.33s-17.05,10.24-24.7,8.49l-6.37,30.6-20.07-3.61Z"/>
            <path class="cls-18" d="M1148.5,91.52l6.93-31.35s-11.15-8.1-17.09-17.5l5.13-24.36s33.78-22.49,60.99,11.4l-4.86,26.32s-17,10.26-24.66,8.5l-6.34,30.59-20.11-3.6Z"/>
            <path class="cls-18" d="M1234.53,102.5l6.97-31.35s-11.18-8.07-17.08-17.5l5.1-24.35s33.77-22.47,61,11.39l-4.85,26.33s-17,10.24-24.68,8.5l-6.39,30.6-20.06-3.61Z"/>
            <path class="cls-18" d="M1320.56,113.5l6.93-31.33s-11.14-8.1-17.05-17.53l5.09-24.35s33.79-22.46,61.03,11.4l-4.84,26.33s-17.03,10.26-24.68,8.49l-6.38,30.6-20.08-3.61Z"/>
            <path class="cls-18" d="M1406.58,124.52l6.96-31.35s-11.17-8.1-17.09-17.53l5.12-24.34s33.78-22.47,61.01,11.38l-4.88,26.36s-17.01,10.21-24.67,8.48l-6.35,30.58-20.1-3.58Z"/>
            <path class="cls-18" d="M1492.59,135.5l6.96-31.33s-11.14-8.11-17.08-17.52l5.1-24.36s33.8-22.47,61.05,11.39l-4.85,26.35s-17.05,10.24-24.7,8.48l-6.38,30.58-20.11-3.6Z"/>
          </g>
        </g>
        <polygon class="cls-17" points="903.61 284.97 877.59 130.38 887.97 128.63 913.93 283.22 903.61 284.97"/>
      </g>
      <line class="cls-3" x1="501.71" y1="192.72" x2="527.33" y2="350.07"/>
      <line class="cls-4" x1="404.52" y1="208.16" x2="430.34" y2="366.71"/>
      <line class="cls-13" x1="742.47" y1="153.99" x2="767.71" y2="309.01"/>
      <line class="cls-10" x1="316.99" y1="223.47" x2="342.8" y2="382.02"/>
      <line class="cls-14" x1="228.55" y1="237.44" x2="254.76" y2="398.48"/>
      <line class="cls-12" x1="151.7" y1="248.89" x2="178.09" y2="410.96"/>
      <line class="cls-11" x1="611.12" y1="176.01" x2="636.49" y2="331.81"/>
      <line class="cls-15" x1="80.74" y1="260.66" x2="107.29" y2="423.77"/>
      <line class="cls-16" x1="10.22" y1="272.35" x2="36.94" y2="436.49"/>
      <g>
        <polyline class="cls-5" points="1029.67 115.66 1023.37 116.65 889.51 137.8 888.98 137.89 888.78 137.92 885.27 138.48 879.11 139.46 743.62 161.12 612.12 182.14 502.83 199.61 405.65 215.13 317.92 229.17 229.5 243.3 152.79 255.55 81.75 266.91 11.17 278.2 .08 279.96"/>
        <polyline class="cls-6" points="1122.33 127.14 1115.42 128.33 894.31 166.32 893.77 166.41 893.58 166.44 889.93 167.07 883.93 168.05 748.34 190.06 616.89 211.41 507.64 229.13 410.5 244.91 322.8 259.15 234.41 273.5 157.73 285.95 86.73 297.47 16.17 308.93 .08 311.54"/>
        <polyline class="cls-1" points="1214.84 140.22 1209.79 141.09 899.1 194.88 898.58 194.98 898.38 195.01 894.58 195.66 888.74 196.62 753.05 218.99 621.65 240.66 512.45 258.66 415.35 274.68 327.68 289.12 239.33 303.69 162.68 316.32 91.7 328.03 21.17 339.66 .08 343.13"/>
        <polyline class="cls-7" points="1308.59 153.5 1306.53 153.86 1240.31 165.3 903.9 223.45 903.38 223.54 903.18 223.57 899.24 224.26 893.55 225.21 757.76 247.94 626.41 269.93 517.26 288.21 420.2 304.45 332.56 319.13 244.26 333.91 167.63 346.73 96.69 358.61 26.18 370.41 .08 374.79"/>
        <polyline class="cls-2" points="1398.8 164.58 1395.39 165.19 1240.31 192.85 908.69 252 908.19 252.08 907.98 252.12 903.89 252.85 898.37 253.79 762.47 276.88 631.18 299.2 522.06 317.74 425.05 334.23 337.44 349.12 249.18 364.11 172.58 377.13 101.66 389.19 31.18 401.16 .08 406.45"/>
        <polyline class="cls-8" points="1491.12 176.51 1487.85 177.09 1240.31 221.69 913.49 280.56 912.99 280.66 912.79 280.69 908.55 281.46 903.17 282.38 767.19 305.85 635.94 328.48 526.88 347.3 429.9 364.02 342.33 379.14 254.09 394.35 177.53 407.56 106.64 419.78 36.2 431.94 .08 438.16"/>
      </g>
      <path class="cls-19" d="M578.07,262.44c.88,5.4-2.79,10.49-8.19,11.37s-10.49-2.78-11.37-8.19c-.88-5.41,2.79-10.5,8.19-11.38,5.4-.88,10.5,2.79,11.38,8.19Z"/>
      <path class="cls-19" d="M386.82,293.58c.88,5.4-2.79,10.49-8.2,11.37-5.4.88-10.49-2.78-11.37-8.19-.88-5.41,2.79-10.5,8.19-11.38,5.4-.88,10.5,2.78,11.38,8.19Z"/>
      <path class="cls-19" d="M213.66,321.77c.88,5.4-2.78,10.49-8.19,11.37-5.4.88-10.49-2.79-11.37-8.19-.88-5.41,2.78-10.5,8.18-11.38,5.41-.88,10.49,2.79,11.37,8.19Z"/>
      <path class="cls-19" d="M68.96,345.32c.88,5.4-2.79,10.49-8.19,11.37-5.4.88-10.49-2.78-11.37-8.19-.88-5.41,2.79-10.5,8.19-11.38,5.4-.88,10.5,2.79,11.38,8.19Z"/>
    </g>
  </g>
</svg>