<?xml version="1.0" encoding="UTF-8"?>
<svg id="Calque_2" data-name="Calque 2" xmlns="http://www.w3.org/2000/svg" viewBox="0 0 371.87 279.22">
  <defs>
    <style>
      .cls-1 {
        fill: #9b4e83;
      }

      .cls-1, .cls-2, .cls-3, .cls-4, .cls-5 {
        stroke-width: 0px;
      }

      .cls-3 {
        fill: #fff;
      }

      .cls-4 {
        fill: #f4f4f4;
      }

      .cls-5 {
        fill: #c6c6c6;
      }
    </style>
  </defs>
  <g id="Calque_1-2" data-name="Calque 1">
    <g>
      <path class="cls-2" d="M355.75,276.97l-2.08,2.25L0,144.55V39.27C0,17.58,17.53,0,39.16,0h211.89l104.7,276.97Z"/>
      <g>
        <path class="cls-5" d="M310.25,237.6s-4.33.46-5.93,4.03c-1.6,3.57.15,3.42.46,2.96.3-.46,2.36,1.06,5.47-2.36,0,0,1.29-1.52,1.75-3.87.46-2.36-1.75-.76-1.75-.76Z"/>
        <path class="cls-5" d="M365.31,201.35s1.6-3.99,3.76-3.08c2.17.91.34,1.47.34,1.47,0,0,.06,1.44.23,1.32s.85-.8,1.37-.91,1.25,0,.63.8-2.34,2.51-4.44,2.96c-2.11.46-1.88-2.56-1.88-2.56Z"/>
        <path class="cls-1" d="M333.13,236.05s-.18,2.61.91,11.34c.17,1.37-.46,14.47-.46,14.47l4.05.8,4.33-14.99s1.99,7.81,2.73,20.63l4.05.23,2.56-31.62-18.18-.85Z"/>
        <path class="cls-3" d="M351.87,204.6l13.45-4.22,1.48,3.59-16.01,8.09s-1.65,15.84.91,24.56c0,0-.23,6.32-9.74,8.26,0,0-2.85,1.77-5.98-4.73,0,0-3.55-3.7-4.62-3.44,0,0,2.41-6.1,1.12-11.19l-20.78,14.55-2.2-2.28,20.28-19.14s3.42-6.91,9.65-11.17l.87-.38s1.66,3.87,6.49,4.94c0,0,1.42-.03,3.65-2.51l1.42-4.94Z"/>
        <path class="cls-4" d="M341.68,205.74s-3.65-12.54,4.44-11.17c8.09,1.37,6.5,13.1,6.5,13.1,0,0-.34,2.73-1.88,3.25-1.54.51-8.09-1.82-9.06-5.19Z"/>
        <path class="cls-3" d="M333.02,262.6s-1.01.41-.81,1.43c.2,1.02,3.27,3.88,3.27,3.88,0,0,1.32,3.52,5.69,3.22,0,0,2.12-.36,1.51-2.04-.61-1.69-5.15-5.97-5.15-5.97,0,0-2.38,1.28-4.51-.51Z"/>
        <path class="cls-3" d="M344.52,269.42s-1.54,2.17-.74,3.25c.8,1.08,3.02,1.71,3.02,1.71,0,0,1.82.74,2.28,2.28s4.62,2.56,4.62,2.56c0,0,2.34-.17,2.05-2.22-.28-2.05-4.79-4.67-4.79-4.67l-1.88-1.99s-4.05,1.14-4.56-.91Z"/>
      </g>
    </g>
  </g>
</svg>