<?xml version="1.0" encoding="UTF-8"?>
<svg id="Calque_2" data-name="Calque 2" xmlns="http://www.w3.org/2000/svg" viewBox="0 0 471.06 351.95">
  <defs>
    <style>
      .cls-1 {
        fill: #58595b;
      }

      .cls-1, .cls-2, .cls-3, .cls-4, .cls-5, .cls-6, .cls-7, .cls-8, .cls-9, .cls-10 {
        fill-rule: evenodd;
        stroke-width: 0px;
      }

      .cls-3 {
        fill: #d1d3d4;
      }

      .cls-4 {
        fill: #f0f2e3;
      }

      .cls-5 {
        fill: #f5e3ba;
      }

      .cls-6 {
        fill: #fff;
      }

      .cls-7 {
        fill: #414042;
      }

      .cls-8 {
        fill: #e6e7e8;
      }

      .cls-9 {
        fill: #e39c2e;
      }

      .cls-10 {
        fill: #808285;
      }
    </style>
  </defs>
  <g id="Calque_1-2" data-name="Calque 1">
    <g>
      <path class="cls-2" d="M462.41,94.96c-5.96,3.62-11.8,7.22-17.57,10.81l3.43,7.32,8.54-.67,4.39,9.37c1.89,4.04-2.21,10.21-5.46,12.02-5.2,2.91-13.08,4.05-15.75.02-.15-.23-.3-.46-.44-.69-1.72-2.7-3.17-5.56-4.78-8.33l4.78-6.87.8-1.15-.8-1.36-2.72-4.64c-12.17,7.68-23.99,15.38-35.72,23.31l3.94,7.37,4.53.78,3.5,6.31c1.04,1.88,1.93,3.86,2.59,5.9.62,1.91.54,6.11-1.27,7.33-1.89,1.28-3.94,2.37-6.08,3.18-1.8.68-4.66-1.73-5.61-3.05-2.07-2.86-3.87-5.89-5.8-8.84-.28-3.21-.28-3.66.42-7.09l-3.84-6.7c-12.26,8.43-24.46,17.18-36.89,26.47l3.52,6.37c2.28.68,3.15,1.19,6.26,3.29l4.59,8.38c1.14,2.08,3.06,6.47.98,8.32-1.67,1.49-3.54,2.8-5.59,3.73-3.71,1.69-7.61-3.39-9.34-6.21l-5.48-8.97,1.29-3.1-3.41-6.38c-5.18,3.94-10.42,7.99-15.72,12.15-4.43,3.49-5.3,4.78-10.54,3.53-22.97-5.47-34.49-7.42-57.14,1.78-.4,4.1-7.08,6.67-10.32,8.36-.74.39-1.52.51-2.28.43l-9.67,5.4-13.38,7.46c2.74,8.3,4.99,17.21,6.97,24.3,2.3,8.23,5.08,14.26,6.75,20.83,3.01,11.84,2.41,18.33-3.41,26.22-2.65,3.6-5.17,6.33-7.81,9.94-4.68,6.42-8.43,13.5-13.25,19.82-9.56,12.52-21.99,27.86-36.07,35.48-9.84,5.32-21.18,6.55-34.1,3.24-14.95-3.84-22.02-9.64-32.96-19.86-4.18-3.9-11.28-7.38-16.48-10.58-10.06-6.19-23.73-12.69-34.18-17.52L1.84,337.87v-5.44l-1.84-3.43,1.84-1.02V80.88c0-.51,0-1,.03-1.5,0-.25.02-.48.03-.73v-.06c.02-.32.05-.66.07-.98,0-.06.02-.13.02-.19.03-.32.06-.64.1-.96v-.06c.04-.36.09-.72.14-1.07.04-.32.09-.64.14-.95.07-.41.15-.81.23-1.21.07-.35.14-.7.22-1.04t0-.02c.08-.35.17-.7.26-1.05.15-.59.32-1.19.51-1.76.08-.25.16-.5.24-.74.11-.33.23-.66.35-.99.11-.3.22-.59.34-.89.35-.89.74-1.76,1.15-2.63h0s3.77-8.49,3.77-8.49l4.65-2.96c7.56,23.62,21.55,64.26,31.02,85.77,1.28,2.91,2.75,5.82,4.86,8.2,15.35,17.23,34.93,35.92,51.79,53.41l52.06-26.73c-2.74-3.02-5.22-6.28-6.89-9.66-3.12-6.32-3.57-16.1,1.92-21.08,4.12-3.74,8.95-5.62,13.44-4.32,3.75,1.74,10.96,4.61,14.57,6.63,4.08,2.28,9.6,5.83,13.88,9.46l30.4-15.61c.28-1.3,1.3-2.44,2.71-3.25,4.31-2.49,10.55-6.42,13.06-3.73,12.85-9.41,19.67-16.4,25.01-26.98,3.43-6.8,5.54-13,7.29-20.32.64-2.65,1.62-4.91,4.77-6.12,7.56-2.93,15.11-5.77,22.64-8.58l-2.01-5.31-8.92-1.67-3.1-9c-1.95-4.39,3.01-9.5,8.88-11.58,3.28-1.16,6.86-1.38,9.68,0,1.67.81,3.08,2.19,4.01,4.26l4.02,8.91-6.16,5.59,2.59,5.45c13.27-4.94,26.53-9.87,39.83-15.16l-3.31-7.04-3.12.3-2.59.25-3.2.32c-.43-.97-.87-1.91-1.32-2.87-1.04-2.22-2.1-4.45-2.93-6.76-2.26-6.4,4.36-11.21,9.9-13.45,2.91-1.18,10.02-2.19,11.73.85l5.38,9.61-5.69,7.83,1.09,1.91,3.09,5.4c.41-.17.83-.34,1.25-.51,3.86-1.59,7.66-3.22,11.42-4.88,8.55-3.77,16.87-7.71,25.21-11.66l-3.35-6.82-10.76,2.15-4.38-8.39c-2.7-5.17,5.47-12.83,9.52-15.12,4.93-2.79,12.45-3.91,15.88,1.65l4.38,7.11-6.9,8.88,4.2,6.46c6.24-2.95,12.52-5.89,18.94-8.75,8.73-3.89,12.31-4.23,18.87,3.46,8.94,10.49,8.42,13.12,21.42,19.5,3.62,1.78,5.53,2.04,4.71,6.23-2.33,11.87-1.33,13.88,3.64,26.89,4.29,11.23,3.77,15.21-6.1,21.21Z"/>
      <path class="cls-6" d="M97.48,202.18L11.25,246.46l-8.75,4.49-.66-.41V80.88c0-6.03,1.38-11.74,3.84-16.83h0s3.48-7.01,3.48-7.01c.34-.68,1.34-.6,1.56.13l1.64,5.49c7.6,23.24,17.61,55.65,27.14,77,1.3,2.9,2.78,5.82,4.91,8.19,15.74,17.54,35.88,36.57,53.06,54.33Z"/>
      <path class="cls-8" d="M11.25,246.46l-8.75,4.49c-.22-.23-.44-.46-.66-.69v-16.26c3.03,4.18,6.16,8.32,9.41,12.45Z"/>
      <path class="cls-3" d="M148.99,255.73l9.54-5.32c1.49,1.77,2.94,3.57,4.39,5.47-1.38,2.17-2.51,4.25-3.17,6.61-2.15.61-4.45,1.09-6.58,1.7-1.36-2.82-2.76-5.65-4.18-8.46h0Z"/>
      <path class="cls-6" d="M176.33,278.96l-2.02-14.25c-9.41-14.6-19.71-22.97-29.88-36.52,1.37,2.82,1.87,4.84,2.55,6.78-4.68-1.31-7.2-5.46-6.04-10.82,1.98-9.16,7.94-14.25,16.63-16.86,5.89-1.77,10.27,2.08,14.51,5.6,10.65,8.83,23.56,17.06,30.49,29.21,1.08,1.9,1.6,4.08,2.15,6.2,1.84,7.15,3.81,16.04,4.34,23.43,1.45-7.26.34-25.95-4.29-33.81-3.07-5.39-7.66-10.18-12.74-14.62-.25-2.43-.43-4.87-.54-7.32l2.54.98c-2.63-4.59-4.44-6.84-7.53-11.26-5.11-7.3-10.09-15.02-15.11-22.57-5.52-5.15-16.05-13.39-20.24-22.06-2.62-5.42-2.52-11.39,1.92-15.8,2.4-2.38,5.74-3.59,9.42-2.46,3.75,1.74,7.63,3.22,11.24,5.23,5.49,3.06,13.98,8.22,18.13,13,9.03,10.39,21.79,24.42,28.63,36.29,6.8,11.8,8.88,24.31,12.44,37.04,2.3,8.23,4.95,13.62,6.58,20.2,2.09,8.43,3.21,15.61-1.2,22.61-2.94,2.96-7.79,6.21-11.44,7.34,2.55-.42,5.67-1.74,8.34-3.33-2.42,2.81-4.99,5.49-7.18,8.49-4.68,6.42-8.43,13.5-13.25,19.82-9.56,12.52-19.21,24.02-33.29,31.65-9.84,5.33-20.42,5.05-31.13,3.06-19.49-3.63-20.41-10.18-32.46-19.7-11.91-9.4-31.34-17.78-45.86-25.83l25.49-14.23c1.02,2.71,2.1,5.34,3.25,7.84,4.94,10.74,14.79,21.63,22.73,30.33-6.52-9.81-13.13-19.89-18.07-30.63-4.85-10.53-8.72-23.92-11.68-35.25-.83-3.17-.91-4.64-.83-7.83.09-3.84.37-7.68.83-11.49.66-5.45,2.65-8.64,5.43-10.42.04,1.4.12,2.72.21,3.9.12,1.4.26,2.81.45,4.21-.34.05-.75.1-1.26.16-1.93.23-1.54-1.57-1.73-3.02-.12,2.03-1.09,5.46.83,5.3.93-.07,1.72-.19,2.47-.33.42,2.47,1.01,4.9,1.88,7.25,4.62,12.42,8.31,21.67,13.52,33.86,4.46,10.43,23.85,27.9,33.45,34.4-6.87-7.98-13.73-15.57-20.45-23.67-2.59-3.13-8.04-10.52-9.57-14.11-4.51-10.55-8.39-21.36-12.39-32.11-1.67-4.49-2.35-8.26-2.58-12.17-.28-4.73-.44-13.37,1.39-17.73,3.78-8.98,15.12-10.93,20.86-3.18,3.92,5.3,8.84,23.86,10.4,30.6,2.52,4.37,4.74,8.71,7.29,13.09,2.89,4.97,5.68,9.95,8.86,14.63v.09s.05-.01.05-.01c1.75,2.56,3.61,5.04,5.66,7.37-1.21-2.6-2.46-5.26-3.74-7.95,1.45-.45,2.9-.89,4.36-1.35-.07,1.35-.01,2.8.22,4.41,1.2-4.7,3.27-8.04,5.95-11.54,1.53,2.12,3.08,4.39,4.7,6.9l.09.19c-2.61,2.52-5.15,5.29-7.83,7.56,2.96-1.81,5.91-3.63,8.85-5.46l5.2,10.68h0Z"/>
      <path class="cls-8" d="M123.51,322.61l1.22,2.6c3.24,8.39,9.24,14.06,14.91,14.86,2.8.39,5.52-.16,8.13-.89,16.3,5.44,24.39,3.6,39.64-1.62-1.88,1.27-3.85,2.47-5.9,3.59-9.84,5.33-20.42,5.05-31.13,3.06-19.49-3.63-20.41-10.18-32.46-19.7-11.91-9.4-31.34-17.78-45.86-25.83l25.49-14.23c1.02,2.71,2.1,5.34,3.25,7.84,4.94,10.74,14.79,21.63,22.73,30.33h0Z"/>
      <path class="cls-8" d="M116.5,311.87c-4.06-6.43-7.9-13.02-11.06-19.88-4.85-10.53-8.72-23.92-11.68-35.25-.83-3.17-.91-4.64-.83-7.83.09-3.84.37-7.68.83-11.49.66-5.45,2.65-8.64,5.43-10.42.04,1.4.12,2.72.21,3.9.12,1.4.26,2.81.45,4.21-.34.05-.75.1-1.26.16-1.93.23-1.54-1.57-1.73-3.02-.12,2.03-1.09,5.46.83,5.3.93-.07,1.72-.19,2.47-.33.42,2.47,1.01,4.9,1.88,7.25,4.62,12.42,8.31,21.67,13.52,33.86,2.62,6.13,10.4,14.69,18.32,22.03-28.37-20.72-41.5-45.26-17.39,11.5h0Z"/>
      <path class="cls-8" d="M157.6,273.51c-.92-1.96-1.85-3.94-2.81-5.95,1.45-.45,2.9-.89,4.36-1.35-.07,1.35-.01,2.8.22,4.41,1.2-4.7,3.27-8.04,5.95-11.54,1.53,2.12,3.08,4.39,4.7,6.9l.09.19c-2.61,2.52-5.15,5.29-7.83,7.56l-4.68-.23h0Z"/>
      <path class="cls-8" d="M143.04,305.86c-4.86-5.55-9.7-11.04-14.47-16.79-2.59-3.13-8.04-10.52-9.57-14.11-4.51-10.55-8.39-21.36-12.39-32.11-1.67-4.49-2.35-8.26-2.58-12.17-.28-4.73-.44-13.37,1.39-17.73.51-1.2,1.15-2.27,1.89-3.22l1.32,18.7c.27,3.88.42,5.41,1.69,9.09,9.88,28.51,14.54,43.03,32.72,68.34h0Z"/>
      <path class="cls-8" d="M176.33,278.96l-2.02-14.25c-9.41-14.6-19.71-22.97-29.88-36.52,1.37,2.82,1.87,4.84,2.55,6.78-4.68-1.31-7.2-5.46-6.04-10.82,1.98-9.16,7.94-14.25,16.63-16.86,2.63-.79,4.96-.46,7.12.46-6.77,2.07-18.64,10.97-13.86,17.45l15.39,20.85c11.64,15.76,13.09,15.06,10.12,32.9h0Z"/>
      <path class="cls-8" d="M199.35,230.47c-2.21-2.51-4.7-4.88-7.31-7.17-.25-2.43-.43-4.87-.54-7.32l2.54.98c-2.63-4.59-4.44-6.84-7.53-11.26-5.11-7.3-10.09-15.02-15.11-22.57-5.52-5.15-16.05-13.39-20.24-22.06-1.17-2.42-1.8-4.95-1.74-7.41,2.67,8.64,13.26,17.32,22.91,25.52,2.22,1.89,2.27,2.1,3.78,4.43l18.09,27.77c2.23,3.43,2.2,3.09,2.88,6.78l2.26,12.3h0Z"/>
      <path class="cls-7" d="M275.71,78.31c26.96-10.45,53.53-20.18,80.48-31.28,22.24-9.16,42.43-19.67,64.15-29.36,4.84-2.16,10.03-3.97,14.37.21,3.97,3.82,7.08,9.15,10.62,13.55,2.65,3.29,5.44,5.95,7.33,8.56,2.78,3.84,3.74,9.57,4.65,14.18,3.39,17.25.73,26.82-14.58,40.81-1.83,7.23-5.46,10.85-13.02,11.14-33.54,26.47-40.03,34.53-78.43,48.77-.19,13.13-11.66,18.37-23.21,11.48-2.93-1.75-6.1-3.41-9.36-4.95l8.12-3.33c.06.61.18,1.21.34,1.82,1.61,5.82,7.63,9.22,13.45,7.61,5.82-1.61,9.22-7.63,7.61-13.45-1.61-5.81-7.63-9.22-13.45-7.61-4.81,1.33-7.97,5.68-8.01,10.43l-9.54,3.84c-3.82-1.74-7.75-3.31-11.59-4.64l68.16-30.15c.09.89.28,1.79.6,2.67,2.05,5.68,8.31,8.61,13.99,6.56,5.68-2.05,8.61-8.31,6.56-13.99-2.05-5.68-8.32-8.61-13.99-6.56-4.34,1.57-7.07,5.59-7.21,9.94l-70.65,30.68c-4.79-1.54-9.35-2.68-13.28-3.27l129.59-56.95c.1,1.23.42,2.47.96,3.66,2.52,5.48,9,7.89,14.49,5.37,5.48-2.52,7.89-9,5.37-14.49-2.52-5.48-9-7.89-14.49-5.37-3.76,1.73-6.08,5.33-6.34,9.19l-133.97,58.14c-.68-.03-1.32-.03-1.93-.01,3.51-6.67,4.74-13.36,4.03-19.25l111.8-76.96c3.35,1.72,7.51,1.65,10.91-.53,5.07-3.27,6.54-10.03,3.28-15.1-3.27-5.07-10.03-6.54-15.1-3.28-5.07,3.27-6.54,10.03-3.28,15.1.71,1.1,1.58,2.03,2.56,2.78l-110.57,75.6c-.63-2.86-1.73-5.5-3.29-7.79l64.91-45.22c3.39,1.82,7.63,1.79,11.09-.43,5.07-3.27,6.54-10.03,3.28-15.1-3.26-5.08-10.03-6.54-15.1-3.28-5.07,3.27-6.54,10.03-3.28,15.1.57.88,1.24,1.65,1.99,2.31l-64.42,44.63c-1.87-2.14-4.19-3.9-6.91-5.14l21.73-15.64c3.29,1.54,7.27,1.41,10.55-.7,5.07-3.27,6.54-10.03,3.28-15.1-3.27-5.07-10.03-6.54-15.1-3.28-5.07,3.27-6.54,10.03-3.28,15.1.64,1,1.43,1.86,2.31,2.58l-22.66,15.88c-3.04-.86-6.47-1.17-10.24-.81,7.14-7.65,10.59-16.89,11.33-30.76.13-2.37.02-2.96,2.42-3.89h0Z"/>
      <path class="cls-5" d="M362.24,61.11c2.89,4.5,1.59,10.49-2.9,13.38-2.65,1.71-5.83,1.95-8.58.95l2.1-1.47c.58-.07,1.35-.16,2.39-.24,5.16-.38,3.64.67,5.91-4.01,1.16-2.4,1.76-3.07,1.67-3.76-.09-.64-.78-1.29-2.19-3.36-2.93-4.31-1.23-3.49-6.43-3.11-5.15.38-3.64-.68-5.91,4.01-2.28,4.7-2.4,2.82.52,7.12.72,1.06,1.16,1.81,1.5,2.33l-1.85,1.28c-.97-.69-1.83-1.58-2.52-2.64-2.89-4.5-1.59-10.49,2.9-13.38,4.5-2.89,10.49-1.59,13.38,2.9h0Z"/>
      <path class="cls-9" d="M361.18,64.32c.05.23.06.46.06.68.12.78-.02,1.51-.34,2.2.9-1.71,1.07-1.78.28-2.88ZM354.44,59.82c-4.33.32-3.05-.57-4.97,3.38-1.91,3.95-2.02,2.37.44,5.98,1.15,1.7,1.46,2.45,1.9,2.74l2.35-1.62c-1.08-.2-2.08-.79-2.72-1.77-1.34-2.09-.66-4.39,1.42-5.73l1.83-1.17c1.42-.91,3.09-1.08,4.44-.29-1.48-2.36-.82-1.79-4.68-1.51ZM357.26,70.91l-1.22.85c3.46-.18,2.44.38,4.24-3.32.14-.29.27-.56.4-.8-.74,1.27-2.06,2.37-3.42,3.28Z"/>
      <path class="cls-5" d="M412.63,39.45c2.89,4.5,1.59,10.49-2.9,13.38-2.58,1.66-5.65,1.94-8.34,1.03l2.32-1.6c.51-.06,1.14-.13,1.94-.18,5.16-.38,3.64.67,5.91-4.01,1.16-2.4,1.77-3.07,1.67-3.76-.09-.64-.78-1.29-2.19-3.37-2.93-4.31-1.23-3.49-6.43-3.11-5.15.37-3.64-.68-5.91,4.01-2.28,4.7-2.4,2.82.52,7.12,1.06,1.56,1.52,2.45,1.92,2.93l-1.62,1.11c-1.24-.74-2.33-1.77-3.17-3.07-2.89-4.5-1.6-10.49,2.9-13.38,4.5-2.89,10.49-1.59,13.38,2.9h0Z"/>
      <path class="cls-9" d="M403.25,41.15l1.82-1.18c1.42-.91,3.09-1.08,4.45-.29-1.48-2.35-.82-1.79-4.68-1.5-4.33.32-3.05-.57-4.97,3.37-.1.21-.21.42-.29.6-1.62,3.2-1.59,1.97.74,5.39,1.84,2.71,1.52,3.01,3.05,2.86l2.48-1.7c-1.51.17-3.12-.44-4-1.82-1.04-1.61-.86-3.37.25-4.7.32-.38.71-.73,1.17-1.02ZM411.58,42.67c.07.36.08.69.04,1-.03.39-.14.77-.31,1.15-.78,1.87-2.13,3.72-4.14,5.06l-.28.2c2.93-.12,2.07.23,3.79-3.3.87-1.8,1.36-2.45,1.4-2.97.03-.34-.13-.63-.5-1.14Z"/>
      <path class="cls-5" d="M410.45,41.11c.99,1.54.55,3.59-.99,4.58-1.54.99-3.59.55-4.58-.99-.99-1.54-.55-3.59.99-4.58,1.54-.99,3.59-.55,4.58.99h0Z"/>
      <path class="cls-5" d="M439.39,89.23c2.23,4.86.1,10.61-4.76,12.84-4.86,2.23-10.61.1-12.84-4.76-.45-.97-.72-1.98-.83-2.99l2.12-.93c.13.6.71,1.4,1.68,3.38,2.29,4.68.76,3.63,5.92,3.99,5.16.36,3.51,1.18,6.41-3.14,1.49-2.21,2.18-2.79,2.18-3.48,0-.64-.59-1.39-1.69-3.64-2.29-4.68-.72-3.63-5.92-3.99-5.15-.35-3.5-1.19-6.41,3.14-.48.72-.88,1.27-1.2,1.7l-3.13,1.36c.21-3.45,2.26-6.68,5.63-8.23,4.86-2.23,10.61-.1,12.84,4.76h0Z"/>
      <path class="cls-9" d="M431.85,86.86c-4.33-.29-2.95-1-5.4,2.64-.31.46-.58.83-.81,1.15l4.15-1.8c1.31-.57,2.99-.94,4.11-.64.86,0,1.69.26,2.37.8-1.14-2.54-.57-1.88-4.42-2.15ZM437.9,92.26c.08,1.78-1.13,3.17-2.86,3.96l-1.76.81c-1.99.91-4.64.14-5.62-1.99-.62-1.34-.51-2.67.16-3.74l-3.17,1.4c.13.49.62,1.18,1.4,2.78,1.92,3.93.64,3.05,4.98,3.35,4.34.29,2.95.99,5.39-2.64,1.84-2.72,2.23-2.51,1.48-3.94Z"/>
      <path class="cls-5" d="M437,90.56c.76,1.66.03,3.63-1.63,4.4-1.66.76-3.63.03-4.4-1.63-.76-1.66-.03-3.63,1.63-4.4,1.66-.76,3.63-.03,4.4,1.63h0Z"/>
      <path class="cls-5" d="M394.14,120.78c1.82,5.03-.79,10.58-5.81,12.4-5.03,1.82-10.58-.79-12.4-5.81-.26-.71-.43-1.44-.51-2.16l2.31-1.02c.23.59.65,1.44,1.21,2.88,1.89,4.85.46,3.68,5.57,4.47,5.11.78,3.4,1.47,6.65-2.59,1.67-2.08,2.41-2.6,2.47-3.29.06-.64-.47-1.43-1.38-3.77-1.89-4.85-.42-3.68-5.57-4.47-5.1-.78-3.39-1.48-6.65,2.59-1.28,1.6-2.01,2.28-2.32,2.82l-2.35,1.02c.09-3.88,2.52-7.48,6.39-8.88,5.03-1.82,10.58.79,12.4,5.81h0Z"/>
      <path class="cls-9" d="M386.82,117.79c-4.29-.66-2.85-1.24-5.59,2.18-.87,1.08-1.44,1.67-1.76,2.09l5.15-2.23c1.75-.76,2.97-.81,3.88-.53.96.02,1.85.36,2.55,1.01-.92-2.63-.4-1.93-4.22-2.52ZM392.4,123.68c-.07,1.78-1.39,3.07-3.18,3.71l-1.83.66c-2.05.74-4.64-.25-5.43-2.45-.46-1.26-.32-2.44.26-3.41l-2.93,1.3c.19.49.55,1.2,1.02,2.42,1.59,4.07.38,3.09,4.68,3.75,4.3.66,2.86,1.23,5.59-2.18,2.06-2.56,2.43-2.31,1.8-3.8Z"/>
      <path class="cls-5" d="M391.65,121.91c.62,1.72-.27,3.62-1.99,4.24-1.72.62-3.62-.27-4.24-1.99-.62-1.72.27-3.62,1.99-4.24,1.72-.62,3.62.27,4.24,1.99h0Z"/>
      <path class="cls-5" d="M347.45,153.61c1.43,5.15-1.59,10.49-6.74,11.92-5.15,1.43-10.49-1.59-11.92-6.74-.13-.47-.22-.94-.28-1.4l2.52-1.03c.2.56.47,1.31.79,2.37,1.51,4.98.17,3.71,5.21,4.88,5.04,1.17,3.28,1.72,6.83-2.08,1.82-1.95,2.6-2.41,2.71-3.09.11-.64-.36-1.46-1.09-3.86-1.52-4.98-.14-3.7-5.22-4.88-5.03-1.17-3.27-1.73-6.83,2.08-2.2,2.35-2.88,2.56-2.72,3.53l-2.28.92c0-4.25,2.8-8.15,7.1-9.34,5.15-1.43,10.49,1.59,11.92,6.74h0Z"/>
      <path class="cls-9" d="M340.39,150.07c-4.23-.98-2.75-1.46-5.74,1.75-1.74,1.85-2.35,2.12-2.3,2.82l3.4-1.38c.63-.26,1.25-.5,1.83-.7.08-.02.16-.06.23-.08.65-.21,1.25-.38,1.74-.48l.54-.15c1.62-.45,3.28-.11,4.33,1.04-.71-2.69-.25-1.95-4.02-2.82ZM345.5,156.36c-.21,1.77-1.62,2.96-3.45,3.47l-1.88.51c-2.1.59-4.6-.59-5.23-2.86-.29-1.04-.2-2.01.19-2.82l-2.51,1.04c.17.47.39,1.09.66,1.97,1.27,4.19.14,3.12,4.38,4.1,4.24.99,2.75,1.45,5.74-1.75,2.25-2.4,2.6-2.11,2.09-3.66Z"/>
      <path class="cls-5" d="M344.88,154.54c.49,1.76-.54,3.59-2.31,4.08-1.76.49-3.59-.54-4.08-2.31-.49-1.76.54-3.59,2.31-4.08,1.76-.49,3.59.54,4.08,2.31h0Z"/>
      <path class="cls-5" d="M263.14,187.95l-1.6-3.05-10.85,5.87,1.52,2.9c.55,1.05,1.86,1.46,2.91.92l7.1-3.71c1.05-.55,1.46-1.87.92-2.92ZM257.59,177.33l-10.84,5.89,3.24,6.19,10.78-5.97-3.19-6.11ZM252.82,168.22l-.08.03-10.85,5.67,3.85,7.37,10.85-5.86-3.77-7.21ZM248.17,159.32l-10.86,5.84,3.55,6.79,10.87-5.82-3.56-6.8ZM243.42,150.22l-10.98,5.62,3.75,7.18,10.89-5.78-3.66-7.01ZM238.76,141.31l-10.96,5.66,3.35,6.39,11.04-5.5-3.43-6.55ZM235.29,134.68c-.55-1.05-1.87-1.46-2.92-.92l-7.1,3.71c-1.05.55-1.46,1.86-.91,2.92l1.9,3.64,10.93-5.72-1.9-3.63Z"/>
      <path class="cls-2" d="M405.44,26.65c5.97-3.03,13.65-7.33,20.17-9.54,4.2-1.42,6.95-.43,10,2.8,2.77,2.94,4.29,4.57-.26,3.15-13.1-4.11-17.56-.99-29.91,3.59h0Z"/>
      <path class="cls-3" d="M283.05,76.6c27.31-10.09,53.77-19.6,80.45-31.42,17.77-7.87,35.43-17.29,53.31-24.93,3.02-1.29,5.57-2.64,8.23-3.27,2.35-.55,5.74-.61,7.43.71-3.55.51-7.61,1.32-11.05,2.36-1.28.39-2.63.85-4.13,1.46-16.3,6.54-32.89,15.73-48.31,22.55-29.5,13.06-55.39,22.79-85.92,32.53h0Z"/>
      <path class="cls-1" d="M445.41,116.55l8.6,16.73c-4.74,1.8-9.11,2.45-12.11-2.79l-3.43-6.01,6.94-7.93h0Z"/>
      <polygon class="cls-10" points="439.4 113.71 446.1 110.2 446.91 111.75 440.21 115.25 439.4 113.71 439.4 113.71"/>
      <polygon class="cls-10" points="443.97 113.8 446.89 112.27 447.25 112.96 444.33 114.49 443.97 113.8 443.97 113.8"/>
      <polygon class="cls-10" points="396.61 142.74 403.32 139.24 404.13 140.78 397.42 144.29 396.61 142.74 396.61 142.74"/>
      <polygon class="cls-4" points="401.22 142.53 402.34 141.95 402.65 142.53 401.52 143.12 401.22 142.53 401.22 142.53"/>
      <path class="cls-4" d="M400.93,144.06c.1-.08,3.25-1.64,3.25-1.64-.46,1.24-.85,2.24-1.4,3.44-.17-1.68-.13-1.72-1.85-1.8h0Z"/>
      <path class="cls-1" d="M405.39,142.31l-3.91,8.66,3.09,6.16c1.49,2.96,2.45,4.29,4.52,5,.39.1.77.17,1.08.17,3.91.05,6.14-2.94,5.29-6.66-1-4.39-3.6-8.33-6.01-12.84l-4.06-.48h0Z"/>
      <path class="cls-4" d="M400.49,151.31l3.55,6.14c1.53,2.65,2.16,4.09,5.51,4.82-2.39-.67-3.39-1.97-4.98-5.14l-3.16-6.29-.92.48h0Z"/>
      <path class="cls-4" d="M357.66,172.93l-1.86,1.08.46.82,1.87-1.05-.47-.85ZM355.78,169.59l-1.88,1.05.53.93,1.86-1.08-.51-.9Z"/>
      <polygon class="cls-1" points="351.66 173.64 358.25 169.81 359.18 171.59 352.59 175.42 351.66 173.64 351.66 173.64"/>
      <path class="cls-1" d="M363.31,178.25l5.5,9.28,2.64-1.46-5.15-9.7c-2.03-1.93-3.23-2.62-5.75-3.56-1.47,1.5-4.32,3.18-6.75,4.35,3.27.42,6.22.85,9.52,1.1h0Z"/>
      <polygon class="cls-4" points="363.54 178.11 366.13 176.55 366.39 177.05 363.83 178.59 363.54 178.11 363.54 178.11"/>
      <path class="cls-5" d="M310.08,83.28c2.89,4.5,1.59,10.49-2.9,13.38-2.47,1.59-5.39,1.91-8,1.14l2.45-1.76c.42-.04.9-.09,1.47-.13,5.16-.38,3.64.67,5.91-4.01,1.16-2.4,1.76-3.07,1.67-3.76-.09-.64-.78-1.29-2.19-3.37-2.93-4.31-1.23-3.49-6.43-3.11-5.15.38-3.64-.68-5.91,4.01-2.28,4.7-2.4,2.82.52,7.12.88,1.29,1.34,2.12,1.7,2.64l-1.71,1.2c-1.11-.72-2.09-1.69-2.86-2.88-2.89-4.5-1.59-10.49,2.9-13.38,4.5-2.89,10.49-1.59,13.38,2.9h0Z"/>
      <path class="cls-9" d="M309.11,86.6c.21.61.25,1.19.18,1.75.37-.75.33-1.01-.18-1.75ZM302.28,82c-4.33.32-3.05-.58-4.97,3.37-1.91,3.96-2.02,2.37.44,5.99,1.48,2.18,1.57,2.79,2.34,2.87l2.43-1.7c-1.27-.08-2.5-.69-3.24-1.84-1.34-2.08-.66-4.39,1.41-5.72l1.83-1.18c1.42-.91,3.09-1.08,4.45-.29-1.48-2.35-.83-1.79-4.68-1.5ZM304.82,93.74l-.21.16c2.44-.09,1.94.09,3.24-2.72-.92,1.05-2.1,1.92-3.03,2.56Z"/>
      <path class="cls-5" d="M307.9,84.94c.99,1.54.55,3.59-.99,4.58-1.54.99-3.59.55-4.58-.99-.99-1.54-.55-3.59.99-4.58,1.54-.99,3.59-.55,4.58.99h0Z"/>
      <path class="cls-5" d="M360.06,62.77c.99,1.54.55,3.59-.99,4.58-1.54.99-3.59.55-4.58-.99-.99-1.54-.55-3.59.99-4.58,1.54-.99,3.59-.55,4.58.99h0Z"/>
      <path class="cls-6" d="M236.28,163.19l10.9-5.75,160.84-109.85,2.59-1.77c-.87,1.27-1.77,2.39-3.3,3.41l-159.35,109.7-10.9,5.75-.77-1.48h0Z"/>
      <path class="cls-6" d="M240.99,172.19l10.86-5.85,177.41-76.95c1.67-.72,2.33-.82,4.21-1.15-2.64.85-3.72,1.66-5.58,2.48l-175.38,76.85-10.86,5.85-.65-1.23h0Z"/>
      <path class="cls-6" d="M245.91,181.6l10.87-5.82,128.09-55.85c1.35-.59,2.23-.66,3.37-.6-.86.2-1.53.49-2.37.85l-128.58,56.58-10.83,5.9-.56-1.07h0Z"/>
      <path class="cls-6" d="M250.14,189.71l10.79-5.97,74.8-30.35c1.02-.43,1.99-.79,3.04-1.14l-4.43,2.46-72.99,29.81-10.81,5.92-.39-.74h0Z"/>
      <path class="cls-6" d="M226.42,144.31l10.92-5.72,64.57-45.35c2.36-1.6,5.28-2.24,6.91-4.57-1.03,2.31-2.78,3.45-4.79,4.83l-65.63,47.12-10.95,5.67-1.03-1.98h0Z"/>
      <path class="cls-6" d="M231.29,153.64l11.07-5.43,112.34-77.78c2.26-1.51,3.87-1.19,5.9-3.85-.74,2.26-1.91,2.9-3.83,4.18l-113.69,78.82-10.92,5.71-.87-1.66h0Z"/>
      <path class="cls-1" d="M285.27,53.34l2.67,7.95,14.61-.92,4.87-4.27-2.82-5.69c-1.64-3.3-4.14-6.15-7.51-6.37-4.05,4.71-8.4,2.15-3.86-1.76-4.8,2.09-9.87,5.36-7.96,11.06h0Z"/>
      <path class="cls-4" d="M285.27,53.34l2.67,7.95,2.49-.16-2.7-7.09c-1.8-4.73-.29-6.68,2.46-9.6-1.97,1.09-4.82,3.04-5.28,7.42.06.47.18.97.35,1.48h0Z"/>
      <path class="cls-4" d="M302.59,65.76l-2.14.82.51,1.35,2.17-.84-.54-1.33ZM301.23,62.39l-2.13.71.37.97,2.1-.82-.35-.86Z"/>
      <polygon class="cls-10" points="295.85 65.88 303.41 62.97 304.19 64.73 296.55 67.66 295.85 65.88 295.85 65.88"/>
      <path class="cls-1" d="M342.13,44.14l-5.71.56-4.45-9.31c-3.01-7.17,9.69-13.87,14.95-11.47l5.22,9.85-10.01,10.37h0Z"/>
      <path class="cls-10" d="M344.77,41.41l-2.64,2.74-3.13.31-3.65-6.98c-1.62-3.11-2.57-9.34,2.7-8.91l6.71,12.85h0Z"/>
      <path class="cls-4" d="M347.07,22.85c.86.47,1.23,1.13,1.79,2.19l4.35,8.31.9-.47-4.26-8.1c-.72-1.38-1.38-1.83-2.77-1.94h0Z"/>
      <path class="cls-4" d="M350.78,44.9l-2.42,1.27,1.55,3.02,2.55-1.09-1.68-3.2ZM349.33,42.14l-1.06-2.02-2.27,1.49.28.53.82,1.58,2.41-1.26-.17-.32Z"/>
      <polygon class="cls-10" points="343.81 45.89 350.94 42.16 351.85 43.9 344.72 47.63 343.81 45.89 343.81 45.89"/>
      <path class="cls-1" d="M379.43,24.13l-3.4-6.5c-1.28-2.45-1.42-3.79-.06-6.23,1.89-3.41,6.06-7.46,9.32-9.14,3.95-2.03,10.54-2.11,13.11,2.06l4.29,6.97-7.09,8.65-4.3,2.11-11.87,2.07h0Z"/>
      <path class="cls-7" d="M388.46,1.18c3.68-.74,7.98-.04,9.94,3.15l4.29,6.97-4.51,5.5c-1.54-.7-2.52-1.83-3.58-3.87l-6.14-11.75h0Z"/>
      <path class="cls-4" d="M397.43,24.18l-2.44,1.27,1.53,2.9,2.49-1.15-1.58-3.01ZM395.58,20.66l-2.44,1.27.56,1.07,2.44-1.29-.55-1.05Z"/>
      <polygon class="cls-10" points="390.59 25.09 397.16 21.62 398.17 23.32 391.5 26.82 390.59 25.09 390.59 25.09"/>
      <path class="cls-8" d="M12.19,270.37l-10.36,5.42v11.13l14.98-7.9-4.62-8.65ZM33.6,310.43l-30.81,17.03,1.98,3.7,30.81-17.02-1.99-3.71ZM71.03,289.72l-33.95,18.77,1.99,3.72,33.96-18.77-1.99-3.73ZM94.79,276.58l-3.66,2.03-16.61,9.18,1.99,3.73,15.82-8.74,3.83-2.11c-.47-1.35-.93-2.71-1.37-4.09ZM28.73,301.31l-26.89,14.64v9.71l.56,1.05,30.81-17.03-4.48-8.38ZM66.29,280.85l-34.07,18.56,4.46,8.35,33.95-18.77-4.35-8.14ZM91.87,266.9l-3.3,1.8-18.79,10.25,4.34,8.12,16.78-9.28,3.63-2.01c-.94-2.94-1.83-5.92-2.66-8.87ZM23.24,291.04l-21.4,11.52v12.14l26.36-14.37-4.96-9.29ZM60.89,270.75l-15.17,8.17-3.87,2.08-15.11,8.14,4.95,9.27,34.07-18.56-4.87-9.11ZM89.35,257.57c-.19-.7-.33-1.32-.45-1.9l-2.07,1.12-22.43,12.08,4.86,9.08,19.07-10.39,3.24-1.76c-.78-2.79-1.52-5.55-2.22-8.23ZM17.59,280.49l-15.76,8.31v12.17l20.74-11.16-4.98-9.32ZM55.43,260.53l-14.76,7.79-4.01,2.11-15.53,8.2,4.96,9.29,14.5-7.82h0l5.24-2.82,14.41-7.76-4.81-9ZM88.52,249.75c.06-2.18.14-4.53.3-6.84l-.36.19-29.51,15.58,4.8,8.97,23.03-12.4,1.88-1.01c-.18-1.36-.19-2.63-.14-4.48ZM50.09,250.55l-34.37,17.98,4.61,8.63,16.45-8.68,2.37-1.25,15.5-8.18-4.55-8.5ZM90.4,229.46l-36.78,19.25,4.54,8.49,30.81-16.26c.09-1.11.2-2.19.32-3.24.3-2.48.93-4.82,1.82-6.91l-.71-1.33ZM153.26,244.27l-7.93,4.36c.66,1.25,1.32,2.52,1.98,3.79l8.72-4.78-2.76-3.37ZM249.33,194.46l-1.35-2.59-20.21,11.18c.52,1.33,1.03,2.69,1.52,4.09l20.84-11.51c-.3-.36-.57-.74-.79-1.16ZM149.54,239.73c-2.41.06-4.12-.36-5.81-1.08l-3,1.63c1.41,2.47,2.82,5.02,4.2,7.62l7.79-4.29-3.18-3.88ZM186.24,215.48l-2.28,1.24c.8.63,1.6,1.25,2.4,1.88-.05-1.04-.09-2.08-.12-3.12ZM243.89,184.07l-19.87,10.83c1.21,2.21,2.36,4.7,3.43,7.36l20.14-11.14-3.69-7.05ZM139.39,235.36c.35,1.47.65,2.79.88,3.9l2.24-1.22c-1.27-.73-2.29-1.65-3.12-2.68ZM180.41,206.39l-4.15,2.23h0s-1.61.87-1.61.87c.95.76,1.91,1.52,2.9,2.28h0c1.78,1.38,3.61,2.78,5.44,4.2l3.08-1.68c-1.91-2.56-3.79-5.21-5.66-7.9ZM239.06,174.81l-20.82,11.21c1.97,2.69,3.74,5.34,5.23,7.9l19.91-10.85-4.32-8.27ZM138.67,216.59l-4.02,2.12c.59,1.75,1.15,3.55,1.69,5.36.27-2.58,1.11-5.06,2.39-7.35l-.06-.13ZM174.51,197.68l-3.08,1.63-7.41,3.91c3.16.75,6.01,2.48,8.56,4.6.29.25.59.49.89.74l2.21-1.19h0s3.93-2.12,3.93-2.12c-1.72-2.48-3.41-5.02-5.11-7.56ZM234.47,166.03l-22.55,11.9c1.91,2.32,3.76,4.65,5.48,6.96l21.01-11.31-3.95-7.55ZM133.5,206.92l-3.01,1.57c.25.44.48.89.7,1.35.98,2.07,1.96,4.58,2.91,7.28l3.77-1.99-4.38-8.2ZM168.52,188.59l-3.08,1.61-28.4,14.86,4.25,7.95c4.04-4.86,10.01-8.48,15.98-9.83,1.35-.31,2.67-.42,3.92-.36l9.37-4.94,3.03-1.6c-1.69-2.55-3.38-5.12-5.07-7.68ZM229.57,156.66l-24.75,12.95c2.01,2.29,4.03,4.64,6.01,7.01l22.86-12.06-4.12-7.9ZM6.6,259.91l-4.76,2.45v11.23l9.44-4.94-4.68-8.74ZM44.63,240.33l-34.49,17.76,4.66,8.72,34.37-17.98-4.54-8.5ZM85.08,219.5l-36.91,19,4.53,8.47,36.78-19.24-4.4-8.24ZM128.33,197.23l-7.21,3.72c3.17.94,6.11,2.9,8.31,5.89l3.16-1.65-4.26-7.97ZM88.62,217.68l4.39,8.22,2.07-1.08c1.23-1.2,2.63-2.13,4.14-2.7.15-3.74.63-7.54,1.64-10.42.05-.13.1-.26.14-.39l-12.38,6.37ZM166.24,185.16c-1.5-1.4-3.3-3-5.21-4.76l-1.76.9-27.39,14.11,4.24,7.93,28.18-14.74,3.13-1.64c-.4-.6-.79-1.2-1.19-1.8ZM224.81,147.55l-27.14,13.98c1.86,2.1,3.83,4.3,5.82,6.57l25.18-13.17-3.86-7.38ZM222.26,142.68l-28.39,14.55c.25.26.49.53.72.79.51.59,1.03,1.18,1.56,1.79l27.63-14.23-1.51-2.9ZM156.7,176.27l-.35.18-27.17,13.92,1.64,3.06,27.25-14.03,1.22-.63c-.86-.81-1.72-1.65-2.59-2.52ZM125.63,192.19l-39.75,20.36,1.69,3.15,15.11-7.78c3.4-5.35,9.17-7.94,14.79-7.62l9.8-5.05-1.65-3.07ZM82.34,214.38l-36.95,18.93,1.72,3.23,36.91-19-1.69-3.16ZM41.85,235.13l-34.53,17.69,1.77,3.31,34.49-17.76-1.73-3.24ZM3.77,254.64l-1.94,1v4.22l3.71-1.91-1.77-3.31Z"/>
      <path class="cls-3" d="M153.26,244.27l-7.93,4.36c.66,1.25,1.32,2.52,1.98,3.79l8.72-4.78-2.76-3.37ZM149.54,239.73c-2.41.06-4.12-.36-5.81-1.08l-3,1.63c1.41,2.47,2.82,5.02,4.2,7.62l7.79-4.29-3.18-3.88ZM186.24,215.48l-2.28,1.24c.8.63,1.6,1.25,2.4,1.88-.05-1.04-.09-2.08-.12-3.12ZM139.39,235.36c.35,1.47.65,2.79.88,3.9l2.24-1.22c-1.27-.73-2.29-1.65-3.12-2.68ZM180.41,206.39l-4.15,2.23h0c.45,1.02.88,2.07,1.3,3.15h0c1.78,1.38,3.61,2.78,5.44,4.2l3.08-1.68c-1.91-2.56-3.79-5.21-5.66-7.9ZM179.62,205.24c-1.72-2.48-3.41-5.02-5.11-7.56l-3.08,1.63c1.49,2.49,2.93,5.15,4.26,8.05h0s3.93-2.11,3.93-2.11ZM168.52,188.59l-3.08,1.61c1.71,2.44,3.44,4.95,5.12,7.67l3.03-1.6c-1.69-2.55-3.38-5.12-5.07-7.68ZM166.24,185.16c-1.5-1.4-3.3-3-5.21-4.76l-1.76.9c1.58,2.44,3.28,4.83,5.03,7.3l3.13-1.64c-.4-.6-.79-1.2-1.19-1.8ZM156.7,176.27l-.35.18c.55,1,1.12,1.99,1.72,2.96l1.22-.63c-.86-.81-1.72-1.65-2.59-2.52ZM94.79,276.58l-3.66,2.03c.38,1.35.78,2.74,1.2,4.18l3.83-2.11c-.47-1.35-.93-2.71-1.37-4.09ZM91.87,266.9l-3.3,1.8c.63,2.82,1.42,5.83,2.33,9.08l3.63-2.01c-.94-2.94-1.83-5.92-2.66-8.87ZM89.35,257.57c-.19-.7-.33-1.32-.45-1.9l-2.07,1.12c.16,3.39.68,6.91,1.5,10.78l3.24-1.76c-.78-2.79-1.52-5.55-2.22-8.23ZM88.52,249.75c.06-2.18.14-4.53.3-6.84l-.36.19c-1.22,4.1-1.73,8.03-1.68,12.14l1.88-1.01c-.18-1.36-.19-2.63-.14-4.48Z"/>
      <path class="cls-5" d="M2.1,327.85l-.26.14-1.84,1.02,1.84,3.43.14.27,2.1-1.16-1.98-3.69Z"/>
      <path class="cls-5" d="M36.39,308.88l-2.1,1.16,1.99,3.71,2.1-1.16-1.99-3.71ZM31.53,299.78l-2.1,1.15,4.47,8.37,2.1-1.16-4.47-8.36ZM26.04,289.53l-2.11,1.14,4.96,9.29,2.11-1.15-4.96-9.27ZM20.42,279l-2.12,1.12,4.98,9.3,2.11-1.13-4.97-9.3ZM15.02,268.89l-2.13,1.12,4.62,8.64,2.13-1.12-4.62-8.64ZM9.44,258.45l-2.14,1.1,4.67,8.74,2.13-1.12-4.66-8.73ZM6.61,253.18l-2.14,1.09,1.77,3.31,2.14-1.09-1.77-3.31Z"/>
      <path class="cls-5" d="M73.83,288.18l-2.1,1.16,1.99,3.73,2.1-1.16-1.99-3.73ZM69.09,279.32l-2.1,1.15,4.34,8.13,2.1-1.16-4.34-8.12ZM63.7,269.24l-2.11,1.14,4.87,9.11,2.11-1.15-4.87-9.09ZM58.25,259.04l-2.12,1.12,4.8,9,2.12-1.14-4.8-8.98ZM52.92,249.07l-2.13,1.12,4.55,8.5,2.12-1.12-4.54-8.5ZM47.47,238.87l-2.13,1.1,4.53,8.49,2.13-1.11-4.53-8.48ZM44.69,233.67l-2.14,1.09,1.73,3.24,2.13-1.1-1.72-3.23Z"/>
      <path class="cls-5" d="M91.1,229.09l.42.78c.23-.47.47-.94.74-1.38l-1.15.6ZM87.92,218.04l-2.13,1.1,4.4,8.24,2.13-1.12-4.4-8.22ZM85.18,212.92l-2.14,1.09,1.69,3.16,2.14-1.1-1.69-3.15Z"/>
      <path class="cls-2" d="M37.62,266.14l7.9,5.65c.36.26.62.89.59,1.41l-.64,9.41c-.04.52-.36.73-.72.47l-7.9-5.65c-.36-.26-.62-.89-.59-1.41l.64-9.41c.04-.52.36-.73.72-.47h0Z"/>
      <path class="cls-6" d="M410.63,42.66c-1.78-.43-3.14-2.7-5.53-.8,1.88-3.23,5.09-1.91,5.53.8h0Z"/>
      <path class="cls-6" d="M360.35,64.49c-1.78-.43-3.14-2.7-5.53-.8,1.88-3.23,5.1-1.91,5.53.8h0Z"/>
      <path class="cls-6" d="M308.1,86.65c-1.78-.43-3.14-2.7-5.53-.8,1.88-3.23,5.1-1.91,5.53.8h0Z"/>
      <path class="cls-6" d="M436.94,92.01c-1.78-.43-3.14-2.7-5.53-.8,1.88-3.23,5.1-1.91,5.53.8h0Z"/>
      <path class="cls-6" d="M391.57,123.12c-1.78-.43-3.14-2.7-5.53-.8,1.88-3.23,5.1-1.91,5.53.8h0Z"/>
      <path class="cls-6" d="M344.6,155.28c-1.78-.43-3.14-2.7-5.53-.8,1.88-3.23,5.1-1.91,5.53.8h0Z"/>
      <path class="cls-5" d="M136.33,205.43l-2.13,1.12,4.38,8.2,2.13-1.12-4.38-8.2ZM131.17,195.77l-2.14,1.1,4.26,7.96,2.13-1.12-4.25-7.94ZM128.48,190.74l-2.14,1.09,1.64,3.07,2.14-1.1-1.64-3.06Z"/>
      <path class="cls-2" d="M34.67,148.86c-11.69,1.64-18.47,3.43-29.66,7.42,8.96-4.94,13.43-7.73,29.66-7.42h0Z"/>
      <path class="cls-2" d="M154.9,158.24l3.85,2.53c4.59,3.01,19.11-7.31,12.78-11.41l-4.55-2.94c2.24,1.96,4.57,3.63,4.24,5.16-1.61,2.75-7.06,6.71-10.32,7.6-1.55.43-4.13-.17-6-.94h0Z"/>
      <path class="cls-2" d="M209.63,211.85c3.64-1.81,5.98-2.7,9.01-5.5-2.44,4.1-5.05,4.41-9.01,5.5h0Z"/>
      <path class="cls-2" d="M186.27,257.45c7.08-2.23,11.79-5.67,14.56-11.07-1.2,6.68-7.1,9.15-14.56,11.07h0Z"/>
      <path class="cls-2" d="M150.91,219.46c3.82-5.65,4.87-6.48,11.07-9.21-7.12,1.73-7.65,3.12-11.07,9.21h0Z"/>
      <path class="cls-2" d="M130.9,283.9c6.83-2.39,8.2-3.34,14.04-7.18-4.18,4.93-6.21,5.45-14.04,7.18h0Z"/>
      <path class="cls-2" d="M123.36,225.05c-7.25,1.14-8.67,1.73-15.04,5.22,3.87-3.12,5.43-4.97,15.04-5.22h0Z"/>
      <path class="cls-2" d="M123.26,209.89c.33,2.3,1.47,3.96-1,4.22-5.68.59-9.37,1.76-14.16,4.75-.87.54-1.82.9-1.96-.27-.14-1.19.06-3.3.16-4.48-.04.51-.03,2.55,1.23,2.27.28-.06.62-.2.95-.37,4.55-2.43,7.07-3.32,12.69-4.17,2.33-.36,2.16-1.09,2.09-1.94h0Z"/>
      <path class="cls-2" d="M123.94,292.31c-3.98,1.86-6.52,2.73-10.75,3.86,3.88-.29,6.03-.21,10.75-3.86h0Z"/>
      <path class="cls-2" d="M107.24,248.15c-4.96.51-7.93,1.5-9.75,2.79,1.89-1.81,4.99-3.67,9.75-2.79h0Z"/>
      <path class="cls-2" d="M182.36,323.44c-9.4,6.5-17.01,10.72-26.45,11.24-4.87.27-10.56,3.83-16.61,2.98-5.67-.8-9.61-3.53-14.57-12.44,3.24,8.39,9.24,14.06,14.91,14.86,6.05.85,11.74-2.72,16.61-2.98,9.44-.51,19.09-6.27,26.11-13.66h0Z"/>
      <path class="cls-2" d="M194.95,312.33c4.14-3.79,8.14-5.5,12.83-8.19,4.18-2.4,5.65-4.12,9.26-11.59-2.22,8.38-3.68,10.83-9.3,13.69-3.62,1.85-10.34,3.85-12.79,6.09h0Z"/>
      <path class="cls-2" d="M179.51,174.3c5.33-1.47,9.93-3.05,11.19-6.82-2.75,2.92-6.63,4.91-11.19,6.82h0Z"/>
    </g>
  </g>
</svg>