<?xml version="1.0" encoding="UTF-8"?>
<svg id="Calque_2" data-name="Calque 2" xmlns="http://www.w3.org/2000/svg" xmlns:xlink="http://www.w3.org/1999/xlink" viewBox="0 0 1920 191">
  <defs>
    <style>
      .cls-1 {
        fill: url(#Dégradé_sans_nom_294);
      }

      .cls-1, .cls-2, .cls-3, .cls-4, .cls-5, .cls-6, .cls-7, .cls-8, .cls-9, .cls-10, .cls-11, .cls-12 {
        stroke-width: 0px;
      }

      .cls-2 {
        fill: url(#Dégradé_sans_nom_47);
      }

      .cls-4 {
        fill: url(#Dégradé_sans_nom_280);
      }

      .cls-5 {
        fill: url(#Dégradé_sans_nom_291);
      }

      .cls-6 {
        fill: url(#Dégradé_sans_nom_290);
      }

      .cls-7 {
        fill: url(#Dégradé_sans_nom_195);
      }

      .cls-8 {
        fill: url(#Dégradé_sans_nom_64);
      }

      .cls-9 {
        fill: url(#Dégradé_sans_nom_302);
      }

      .cls-10 {
        fill-rule: evenodd;
        opacity: .22;
      }

      .cls-11 {
        fill: url(#Dégradé_sans_nom_244);
      }

      .cls-12 {
        fill: url(#Dégradé_sans_nom_6);
      }
    </style>
    <linearGradient id="Dégradé_sans_nom_64" data-name="Dégradé sans nom 64" x1="339.47" y1="43.89" x2="1924.09" y2="43.89" gradientUnits="userSpaceOnUse">
      <stop offset=".06" stop-color="#ea95ce"/>
      <stop offset=".2" stop-color="#3d3fa4"/>
      <stop offset=".34" stop-color="#f79cd1"/>
      <stop offset="1" stop-color="#f79cd1"/>
    </linearGradient>
    <linearGradient id="Dégradé_sans_nom_47" data-name="Dégradé sans nom 47" x1="0" y1="129.74" x2="121.38" y2="129.74" gradientUnits="userSpaceOnUse">
      <stop offset=".06" stop-color="#3d1788"/>
      <stop offset=".88" stop-color="#3e40a5"/>
    </linearGradient>
    <linearGradient id="Dégradé_sans_nom_6" data-name="Dégradé sans nom 6" x1="107.77" y1="117.24" x2="397.43" y2="117.24" gradientUnits="userSpaceOnUse">
      <stop offset="0" stop-color="#3c3fa4"/>
      <stop offset="1" stop-color="#f79cd1"/>
    </linearGradient>
    <linearGradient id="Dégradé_sans_nom_280" data-name="Dégradé sans nom 280" x1="147.48" y1="97.17" x2="335.39" y2="97.17" gradientUnits="userSpaceOnUse">
      <stop offset="0" stop-color="#3f40a5"/>
      <stop offset=".38" stop-color="#8a66b7"/>
      <stop offset=".68" stop-color="#a975be"/>
      <stop offset="1" stop-color="#eb96ce"/>
    </linearGradient>
    <linearGradient id="Dégradé_sans_nom_302" data-name="Dégradé sans nom 302" x1="219.96" y1="148.02" x2="219.96" y2="82.85" gradientUnits="userSpaceOnUse">
      <stop offset="0" stop-color="#8c67b7"/>
      <stop offset=".32" stop-color="#000" stop-opacity=".8"/>
      <stop offset=".65" stop-color="#000"/>
      <stop offset=".96" stop-color="#8966b7"/>
    </linearGradient>
    <linearGradient id="Dégradé_sans_nom_291" data-name="Dégradé sans nom 291" x1="273.54" y1="153.32" x2="274.01" y2="71.03" gradientUnits="userSpaceOnUse">
      <stop offset=".09" stop-color="#000"/>
      <stop offset=".18" stop-color="#060406"/>
      <stop offset=".31" stop-color="#181019"/>
      <stop offset=".46" stop-color="#352438"/>
      <stop offset=".62" stop-color="#5f4064"/>
      <stop offset=".8" stop-color="#93639b"/>
      <stop offset=".92" stop-color="#b87cc2"/>
    </linearGradient>
    <linearGradient id="Dégradé_sans_nom_294" data-name="Dégradé sans nom 294" x1="338.91" y1="75.67" x2="339.98" y2="146.46" gradientUnits="userSpaceOnUse">
      <stop offset=".04" stop-color="#e392cc"/>
      <stop offset=".15" stop-color="#b876a6"/>
      <stop offset=".32" stop-color="#815374"/>
      <stop offset=".48" stop-color="#52354a"/>
      <stop offset=".63" stop-color="#2e1e2a"/>
      <stop offset=".77" stop-color="#150d12"/>
      <stop offset=".9" stop-color="#050304"/>
      <stop offset="1" stop-color="#000"/>
    </linearGradient>
    <linearGradient id="Dégradé_sans_nom_195" data-name="Dégradé sans nom 195" x1="155.44" y1="121.53" x2="172.74" y2="121.53" gradientUnits="userSpaceOnUse">
      <stop offset="0" stop-color="#000"/>
      <stop offset=".1" stop-color="#040409"/>
      <stop offset=".27" stop-color="#110f23"/>
      <stop offset=".48" stop-color="#25214c"/>
      <stop offset=".73" stop-color="#413a85"/>
      <stop offset=".87" stop-color="#534aaa"/>
    </linearGradient>
    <linearGradient id="Dégradé_sans_nom_244" data-name="Dégradé sans nom 244" x1="160.59" y1="96.11" x2="172.74" y2="96.11" gradientUnits="userSpaceOnUse">
      <stop offset="0" stop-color="#000"/>
      <stop offset=".1" stop-color="#050409"/>
      <stop offset=".26" stop-color="#121023"/>
      <stop offset=".48" stop-color="#29234c"/>
      <stop offset=".72" stop-color="#483d85"/>
      <stop offset=".87" stop-color="#5d4fac"/>
    </linearGradient>
    <linearGradient id="Dégradé_sans_nom_290" data-name="Dégradé sans nom 290" x1="262.04" y1="152.19" x2="262.41" y2="87.01" gradientUnits="userSpaceOnUse">
      <stop offset="0" stop-color="#000"/>
      <stop offset=".14" stop-color="#030204"/>
      <stop offset=".27" stop-color="#0d0910"/>
      <stop offset=".41" stop-color="#1e1524"/>
      <stop offset=".55" stop-color="#372640"/>
      <stop offset=".68" stop-color="#563c65"/>
      <stop offset=".82" stop-color="#7b5691"/>
      <stop offset=".93" stop-color="#a070bc"/>
    </linearGradient>
  </defs>
  <g id="Calque_1-2" data-name="Calque 1">
    <rect class="cls-8" x="335.39" y="35.71" width="1584.61" height="16.36"/>
    <rect class="cls-2" y="121.56" width="121.38" height="16.36"/>
    <g>
      <rect class="cls-12" x="107.77" y="79.36" width="289.65" height="75.77" rx="12.4" ry="12.4"/>
      <path class="cls-10" d="M356.78,114.07h0c.79-1.65,1.18-3.76,1.18-6.47v-10.43h-16.32v5.74s0,6.06,0,6.06c0,2.34-2.67,3.48-4.51,3.48-.79,0-3.2-.32-3.71-.92-.02-.03-.04-.07-.07-.1l-.21.16.17-.22c-.46-.62-.46-1.37-.46-2.34V20.09c0-11.08-12.54-20.09-27.97-20.09s-27.89,9.01-27.89,20.09l.04,54.59h-.04l.07,48.52c0,3.89-1.41,7.17-6.53,7.17-.62,0-1.23-.05-1.83-.14-2.4-.4-3.73-1.64-4.37-3.39-.29-1.07-.34-2.32-.34-3.63l-.07-54.96c0-11.08-12.54-20.11-27.97-20.11s-27.97,9.03-27.97,20.11v14.23h0v63.79h0v23.26c0,3.89-5.23,7.17-11.44,7.17s-11.42-3.28-11.42-7.17v-51.91c0-3.53-3.68-6.4-8.2-6.46l-25.36-.08v-1.59c0-2.43.54-4.31,1.62-5.62.8-.98,1.86-1.59,3.17-1.84h12.17v-16.58h-12.28v.06c-3.6.12-7.07,1.22-10.4,3.37-3.54,2.28-6.17,5.22-7.91,8.83-1.37,2.82-2.06,6.24-2.06,10.23v35.52h15.69v-15.74h16.96v-.03h.04v41.84c0,11.08,12.54,20.09,27.97,20.09s27.97-9.01,27.97-20.09v-101.28c0-3.91,5.23-7.19,11.44-7.19s11.42,3.28,11.42,7.19l.03,20.55h-.03l.07,34.41c-.9,12.62,7.92,20.29,23.1,20.09,6.06.31,11.38-1.32,15.38-4.33.33-.24.65-.49.96-.75.07-.06.14-.12.21-.18,3.17-2.71,5.17-6.29,6-10.35,0-.03.01-.06.02-.08.11-.56.19-1.12.26-1.7.02-.18.06-.36.07-.54.04-.45.05-.91.07-1.37,0-.26.04-.52.04-.78v-6.53s-.08-96.57-.08-96.57c0-3.89,5.23-7.17,11.42-7.17s11.52,3.28,11.52,7.17v55.79h-.11v31.13c0,.65.03,1.32.11,2.04.19,1.73.64,3.25,1.35,4.51.04.08.09.16.14.24l.14.23c.95,1.46,2.08,2.42,4.05,3.72-2,1.28-3.49,2.73-4.4,4.1-.11.15-.19.3-.29.46-.72,1.24-.9,2.85-1.09,4.58-.07.71,0,1.53,0,2.17v13.06h16.33v-.66h.24v-16.19c.11-.36.26-.67.46-.92.46-.56,2.89-.83,3.78-.83,1.86,0,4.55,1.33,4.55,4.07l.27,14.24h16.06v-13.36c0-2.51-.39-4.58-1.16-6.16-.75-1.49-1.99-2.85-3.78-4.12,1.72-1.17,2.99-2.56,3.76-4.13Z"/>
      <path class="cls-3" d="M212.2,88.66v56.66h15.52v-56.66h-15.52Z"/>
      <path class="cls-4" d="M335.39,23.23v120.13h-16.28v-14.86c.19-1.68.62-3.08,1.3-4.26.08-.14.17-.29.27-.43.95-1.43,2.5-2.79,4.61-4.1-2.11-1.35-3.64-2.77-4.61-4.26-.08-.14-.19-.31-.27-.46-.68-1.22-1.12-2.67-1.3-4.37V23.23c0-3.85-5.21-7.1-11.4-7.1s-11.3,3.25-11.3,7.1l.07,102.05c0,10.97-7.5,19.88-22.77,19.88s-22.86-8.92-22.86-19.88l-.07-54.39c0-3.87-5.17-7.12-11.3-7.12s-11.32,3.25-11.32,7.12v100.23c0,10.97-12.42,19.88-27.69,19.88s-27.69-8.92-27.69-19.88v-41.4h-19.24c-3.39,0-6.06-3.62-6.06-8.26s2.67-8.19,6.06-8.19l27.52.08c4.47.06,8.11,2.9,8.11,6.39v51.38c0,3.85,5.17,7.1,11.3,7.1s11.32-3.25,11.32-7.1v-100.23c0-10.97,12.42-19.9,27.69-19.9s27.69,8.94,27.69,19.9l.07,54.39c0,3.85.35,7.1,6.47,7.1s6.47-3.25,6.47-7.1l-.07-102.05c0-10.97,12.39-19.88,27.6-19.88s27.69,8.92,27.69,19.88Z"/>
      <path class="cls-9" d="M228.14,84.97v63.13h-16.35v-63.13h16.35Z"/>
      <path class="cls-5" d="M264.41,125.27c0,3.85,4.26,7.1,9.29,7.1s6.47-3.25,6.47-7.1l-.07-48.02h16.31l.07,48.02c0,12.16-9.66,20.55-22.78,19.88-12.55-.63-22.78-8.92-22.78-19.88"/>
      <path class="cls-1" d="M359.08,116.24h0c.78-1.63,1.16-3.73,1.16-6.4v-9.34h-16.16v10.71c0,2.32-2.64,3.45-4.46,3.45-.78,0-3.17-.31-3.67-.91-.02-.03-.04-.07-.07-.1l-.21.16h0l.16-.22c-.46-.61-.46-1.36-.46-2.31v-32.75l-16.4-.06v30.81c0,.65.03,1.31.11,2.01.19,1.71.64,3.22,1.34,4.47.04.08.09.16.14.24l.13.23c.94,1.45,2.06,2.4,4.01,3.69-1.98,1.27-3.46,2.71-4.36,4.06-.11.15-.19.3-.28.46-.71,1.22-.89,2.82-1.08,4.53-.07.71,0,1.51,0,2.15v12.93h16.16v-14.95c0-1.18.23-2.06.69-2.63.45-.55,2.86-.82,3.74-.82,1.84,0,4.5,1.32,4.5,4.03l.26,14.09h15.9v-13.22c0-2.48-.38-4.53-1.15-6.1-.74-1.48-1.97-2.82-3.74-4.08,1.7-1.16,2.96-2.54,3.72-4.09Z"/>
      <path class="cls-3" d="M155.92,113.33v16.39h.04v15.6h-15.52v-35.16c0-3.96.68-7.33,2.03-10.13,1.72-3.57,4.32-6.48,7.82-8.74,3.5-2.26,7.15-3.38,10.94-3.38l1.66.04v16.27c-.36-.03-.62-.04-.79-.04-1.97,0-3.48.65-4.55,1.95-1.07,1.3-1.6,3.15-1.6,5.56v1.63h-.04Z"/>
      <rect class="cls-7" x="155.44" y="113.33" width="17.3" height="16.41"/>
      <rect class="cls-11" x="160.59" y="87.9" width="12.15" height="16.41"/>
      <path class="cls-6" d="M273.7,132.37v12.79c-15.02.2-23.75-7.4-22.86-19.88l-.07-34.06h16.23l.07,34.57c0,3.85,1.59,6.58,6.63,6.58Z"/>
    </g>
  </g>
</svg>