<?xml version="1.0" encoding="UTF-8"?>
<svg id="Calque_2" data-name="Calque 2" xmlns="http://www.w3.org/2000/svg" viewBox="0 0 500.61 494.63">
  <defs>
    <style>
      .cls-1, .cls-2, .cls-3, .cls-4 {
        stroke-width: 0px;
      }

      .cls-1, .cls-2, .cls-4 {
        fill-rule: evenodd;
      }

      .cls-1, .cls-3 {
        fill: #1a1a1a;
      }

      .cls-4 {
        fill: #fff;
      }
    </style>
  </defs>
  <g id="Calque_1-2" data-name="Calque 1">
    <g>
      <path class="cls-1" d="M389.99,398.01l17.23,12.46c1,.78,1.57,1.85,1.57,3.13s-.57,2.35-1.57,3.13l-17.23,12.46c-1.21.85-2.71.93-3.99.28-1.35-.71-2.14-1.92-2.14-3.42v-24.92c0-1.5.78-2.78,2.14-3.42,1.28-.71,2.78-.57,3.99.28h0ZM420.47,397.3h.57c1.07,0,1.92.85,1.92,1.92v28.77c0,1.07-.85,1.92-1.92,1.92h-.57c-1.07,0-1.92-.85-1.92-1.92v-28.77c0-1.07.85-1.92,1.92-1.92h0Z"/>
      <path class="cls-1" d="M110.62,398.01l-17.23,12.46c-1,.78-1.57,1.85-1.57,3.13s.57,2.35,1.57,3.13l17.23,12.46c1.21.85,2.71.93,3.99.28,1.35-.71,2.14-1.92,2.14-3.42v-24.92c0-1.5-.78-2.78-2.14-3.42-1.28-.71-2.78-.57-3.99.28h0ZM80.14,397.3h-.57c-1.07,0-1.92.85-1.92,1.92v28.77c0,1.07.85,1.92,1.92,1.92h.57c1.07,0,1.92-.85,1.92-1.92v-28.77c0-1.07-.85-1.92-1.92-1.92h0Z"/>
      <path class="cls-1" d="M250.27,342.04c37.1,0,67.08,30.05,67.08,67.08s-29.98,67.08-67.08,67.08-67.01-29.98-67.01-67.08,29.98-67.08,67.01-67.08h0ZM250.27,359.13c27.63,0,49.99,22.43,49.99,49.99s-22.36,49.99-49.99,49.99-49.92-22.36-49.92-49.99,22.36-49.99,49.92-49.99h0ZM245.64,390.75l20.3,14.74c1.21.85,1.85,2.14,1.85,3.63s-.64,2.85-1.85,3.7l-20.3,14.67c-1.42,1.07-3.2,1.14-4.77.36-1.57-.78-2.42-2.28-2.42-3.99v-29.41c0-1.71.85-3.28,2.42-4.06,1.57-.78,3.35-.64,4.77.36h0Z"/>
      <path class="cls-3" d="M14.34,457.58c0,.93-.14,1.85-.43,2.71-.28.78-.71,1.57-1.21,2.14-.5.64-1.14,1.07-1.78,1.42-.71.36-1.5.5-2.28.5-.85,0-1.64-.14-2.28-.5-.71-.36-1.35-.78-1.85-1.42-.5-.57-.93-1.35-1.21-2.14-.28-.85-.43-1.78-.43-2.71,0-1,.14-1.92.43-2.78.28-.78.71-1.5,1.21-2.14.5-.57,1.14-1.07,1.85-1.42.64-.36,1.42-.5,2.28-.5.78,0,1.57.14,2.28.5.64.36,1.28.85,1.78,1.42.5.64.93,1.35,1.21,2.14.28.85.43,1.78.43,2.78h0ZM11.85,457.58c0-.71-.07-1.28-.21-1.85-.21-.57-.43-1.07-.71-1.42-.28-.43-.64-.71-1-.93-.43-.21-.85-.36-1.28-.36-.5,0-.93.14-1.35.36-.43.21-.71.5-1,.93-.36.36-.57.85-.71,1.42-.14.57-.21,1.14-.21,1.85,0,.64.07,1.28.21,1.78.14.57.36,1.07.71,1.42.28.43.57.71,1,.93.43.21.85.36,1.35.36.43,0,.85-.14,1.28-.36.36-.21.71-.5,1-.93.28-.36.5-.85.71-1.42.14-.5.21-1.14.21-1.78h0ZM23.81,458.86c.43.07.85.21,1.28.43.36.28.71.57.93.85.28.36.5.78.64,1.21.14.43.21.93.21,1.5,0,.64-.07,1.28-.36,1.85s-.64,1.07-1.14,1.42c-.5.43-1.07.71-1.78.93-.64.28-1.42.36-2.28.36-1.14,0-2.14-.21-2.99-.57-.85-.43-1.57-1-2.07-1.71l1.5-1.71c.36.5.78,1,1.35,1.28.57.28,1.28.5,2.14.5,1,0,1.78-.21,2.28-.64.57-.43.85-1.07.85-1.92s-.36-1.5-.93-1.99c-.57-.5-1.5-.78-2.63-.78h-.64v-1.92h.71c1,0,1.78-.21,2.28-.71.57-.43.78-1.07.78-1.78s-.21-1.21-.71-1.57c-.5-.36-1.07-.5-1.85-.5s-1.42.14-1.99.5c-.57.36-1.07.78-1.42,1.42l-1.5-1.71c.43-.71,1.14-1.28,2.07-1.71.93-.43,1.99-.64,3.13-.64.71,0,1.35.07,1.99.28.57.14,1.14.43,1.57.78.43.36.78.78,1,1.28.28.5.36,1,.36,1.64,0,.43-.07.85-.21,1.28-.07.36-.28.71-.57,1.07-.21.36-.5.57-.85.78-.36.21-.71.36-1.14.5h0ZM29.37,455.37v-2.85h1.99v2.85h-1.99ZM29.37,464.13v-2.85h1.99v2.85h-1.99ZM42.9,461.93v2.21h-8.55v-2.21h3.2v-7.83c-.14.14-.36.36-.64.57-.28.14-.64.36-1,.5-.28.21-.64.36-1.07.43-.36.14-.64.14-.93.14v-2.28c.28,0,.64-.07,1-.28.43-.14.78-.36,1.14-.64.43-.21.71-.43,1-.71.28-.21.43-.36.5-.5h2.49v10.61h2.85ZM49.81,457.01c.71,0,1.42.14,2.07.36.64.28,1.21.64,1.64,1.07.5.43.85,1,1.14,1.64.28.64.36,1.28.36,2.07s-.14,1.5-.43,2.14c-.28.71-.71,1.21-1.21,1.71-.5.5-1.14.85-1.85,1.07-.64.28-1.42.43-2.21.43-1.14,0-2.21-.28-3.06-.78-.93-.5-1.64-1.21-2.14-2.14l1.5-1.35c.43.57.93,1.14,1.64,1.5.64.36,1.28.57,2.07.57.43,0,.85-.07,1.28-.21.36-.14.71-.36,1-.64.28-.28.5-.57.64-1,.21-.36.28-.78.28-1.28,0-.43-.07-.85-.21-1.21-.21-.36-.43-.64-.64-.93-.28-.28-.64-.43-1-.64-.36-.14-.78-.21-1.21-.21-.57,0-1.07.14-1.57.36-.5.28-.93.64-1.21,1.14h-2.14c0-.07,0-.28.07-.57.07-.28.14-.64.21-1.14.07-.43.14-.93.28-1.5.07-.5.21-1.07.36-1.64.21-1.35.5-2.85.85-4.49h7.76v2.28h-5.98l-.78,4.34c.28-.28.57-.5,1-.64.43-.21.93-.28,1.5-.28h0Z"/>
      <path class="cls-3" d="M456.08,457.58c0,1-.14,1.92-.43,2.71-.28.85-.71,1.57-1.21,2.14-.5.64-1.07,1.07-1.78,1.42-.71.36-1.5.5-2.28.5-.85,0-1.57-.14-2.28-.5-.71-.36-1.35-.78-1.85-1.42-.5-.57-.85-1.28-1.14-2.14-.36-.78-.5-1.71-.5-2.71s.14-1.92.5-2.71c.28-.85.64-1.57,1.14-2.14.5-.64,1.14-1.14,1.85-1.42.71-.36,1.42-.57,2.28-.57.78,0,1.57.21,2.28.57.71.28,1.28.78,1.78,1.42.5.57.93,1.28,1.21,2.14.28.78.43,1.71.43,2.71h0ZM453.59,457.58c0-.71-.07-1.28-.21-1.85-.14-.57-.36-1-.71-1.42-.28-.43-.57-.71-1-.93-.43-.21-.85-.36-1.28-.36-.5,0-.93.14-1.35.36-.36.21-.71.5-1,.93s-.57.85-.71,1.42c-.14.57-.21,1.14-.21,1.85,0,.64.07,1.28.21,1.85.14.5.43,1,.71,1.42.28.36.64.71,1,.93.43.21.85.28,1.35.28.43,0,.85-.07,1.28-.28.43-.21.71-.57,1-.93.36-.43.57-.93.71-1.42.14-.57.21-1.21.21-1.85h0ZM464.62,466.98v-3.56h-6.91v-2.21l7.69-9.9h1.64v9.9h1.99v2.21h-1.99v3.56h-2.42ZM460.21,461.21h4.63v-6.12l-4.63,6.12ZM471.25,455.37v-2.85h1.99v2.85h-1.99ZM471.25,464.13v-2.85h1.99v2.85h-1.99ZM475.8,464.13c0-.64.07-1.21.14-1.71.07-.57.28-1.07.57-1.57.21-.43.64-.93,1.07-1.28.5-.43,1.07-.85,1.78-1.28.57-.28,1.07-.5,1.5-.78.5-.21.85-.43,1.21-.71.36-.21.64-.5.85-.71.21-.28.28-.57.28-.93,0-.5-.21-.93-.57-1.28-.43-.36-1-.57-1.78-.57-.43,0-.78.07-1.14.14-.36.14-.64.28-.93.43-.28.21-.5.36-.71.57-.21.21-.43.43-.57.64l-1.57-1.85c.14-.14.43-.36.71-.57.36-.28.71-.5,1.14-.71.5-.21,1-.43,1.57-.57.57-.21,1.21-.28,1.92-.28s1.35.14,1.92.28c.57.21,1.07.5,1.5.78.36.36.64.71.85,1.21.21.43.36.93.36,1.42,0,.57-.14,1.07-.36,1.5-.21.43-.5.78-.85,1.07-.28.36-.64.64-1.07.85-.36.21-.71.43-1.07.64-.28.14-.64.28-1,.5-.36.21-.71.43-1.07.71-.28.21-.57.5-.85.85-.28.28-.43.64-.57,1h7.05v2.21h-10.33ZM495.53,458.86c.5.07.93.21,1.28.5.36.21.71.5,1,.85.28.36.5.71.64,1.14.14.5.21,1,.21,1.5,0,.71-.14,1.35-.43,1.85-.21.57-.64,1.07-1.07,1.5-.5.36-1.07.71-1.78.93-.71.21-1.5.28-2.35.28-1.07,0-2.14-.14-2.99-.57-.85-.43-1.57-1-2.07-1.71l1.5-1.71c.36.57.78,1,1.35,1.28.64.36,1.35.5,2.21.5,1,0,1.71-.21,2.28-.64.5-.43.78-1.07.78-1.85,0-.93-.28-1.57-.93-2.07-.57-.5-1.42-.71-2.63-.71h-.57v-1.92h.64c1,0,1.78-.28,2.35-.71.5-.5.78-1.07.78-1.78s-.28-1.28-.71-1.57c-.5-.36-1.14-.57-1.92-.57-.71,0-1.42.21-1.99.5-.57.36-1.07.85-1.35,1.42l-1.57-1.64c.43-.71,1.14-1.35,2.07-1.78.93-.43,1.99-.64,3.13-.64.71,0,1.42.07,1.99.28.64.21,1.14.5,1.57.78.5.36.78.78,1.07,1.28.21.5.36,1.07.36,1.64,0,.43-.07.85-.21,1.28-.14.36-.36.78-.57,1.07-.28.36-.57.64-.93.85-.28.21-.71.36-1.14.43h0Z"/>
      <path class="cls-1" d="M479.22,0c2.71,0,4.98,2.21,4.98,4.98s-2.28,4.98-4.98,4.98-4.98-2.21-4.98-4.98,2.21-4.98,4.98-4.98h0Z"/>
      <path class="cls-1" d="M479.22,17.73c2.71,0,4.98,2.28,4.98,4.98s-2.28,4.98-4.98,4.98-4.98-2.21-4.98-4.98,2.21-4.98,4.98-4.98h0Z"/>
      <path class="cls-1" d="M479.22,35.54c2.71,0,4.98,2.21,4.98,4.98s-2.28,4.98-4.98,4.98-4.98-2.28-4.98-4.98,2.21-4.98,4.98-4.98h0Z"/>
      <path class="cls-4" d="M5.98,482.66h488.65c3.32,0,5.98,2.75,5.98,5.98h0c0,3.32-2.67,5.98-5.98,5.98H5.98c-3.32,0-5.98-2.67-5.98-5.98h0c0-3.23,2.67-5.98,5.98-5.98h0Z"/>
      <path class="cls-2" d="M5.98,482.66h337.19c3.32,0,5.98,2.75,5.98,5.98h0c0,3.32-2.67,5.98-5.98,5.98H5.98c-3.32,0-5.98-2.67-5.98-5.98h0c0-3.23,2.67-5.98,5.98-5.98h0Z"/>
    </g>
  </g>
</svg>