<?xml version="1.0" encoding="UTF-8"?>
<svg id="Calque_2" data-name="Calque 2" xmlns="http://www.w3.org/2000/svg" viewBox="0 0 254.34 269.56">
  <defs>
    <style>
      .cls-1, .cls-2 {
        stroke-width: 0px;
      }

      .cls-2 {
        fill: #fff;
      }
    </style>
  </defs>
  <g id="Calque_1-2" data-name="Calque 1">
    <g>
      <path class="cls-1" d="M226.27,269.56c-5.1-1.24-9.95-2.41-14.78-3.61-13.58-3.38-27.15-6.77-40.73-10.15-.51-.13-1.05-.21-1.58-.19-10.25.3-20.49.77-30.74.91-17.2.23-34.4-.02-51.59.44-18.28.48-36.46,2.16-54.17,7.16-.82.23-1.64.48-2.89.84v-21.59c-5.46,1.08-10.44,2.06-15.62,3.08.57-6.58,1.12-13.06,1.7-19.78-2.04.27-3.85.52-5.86.79,1.16-7.37,2.3-14.62,3.47-22.07-3.07.23-5.89.44-9.04.68.28-1.59.51-3.07.8-4.53,2.94-14.56,5.97-29.1,8.76-43.69.43-2.27-.05-4.78-.41-7.13C9.2,121.75,4.75,92.78.32,63.81c-.12-.78-.19-1.57-.32-2.61,8.74-1.37,17.39-2.72,26.34-4.12-.36-6.32-.73-12.66-1.1-19.18,3.34-.22,6.52-.58,9.7-.6,1.83,0,2.32-.7,2.57-2.38.62-4.14,1.46-8.24,2.26-12.63,7.59.32,15.08.63,22.67.95.58-3.3,1.26-6.49,1.67-9.71.21-1.62.76-2.09,2.39-1.93,9.95.96,19.92,1.74,29.86,2.76,18.25,1.88,11.1,2.73,30.55-1.72,16.09-3.68,32.02-8.05,48.02-12.11.58-.15,1.16-.3,2.05-.52.79,3.53,1.58,7.01,2.36,10.48.76,3.38,1.59,6.74,2.25,10.14.28,1.45.89,1.94,2.38,1.95,16.59.03,33.18.13,49.78.2.92,0,1.85,0,3.1,0-.69,7.63-1.37,15.15-2.07,22.97h18.31c-.2,1.6-.34,2.9-.53,4.19-2.46,17.42-5,34.82-7.37,52.25-1.88,13.8-3.74,27.6-5.21,41.45-.39,3.68.52,7.54,1.17,11.27,4.29,24.54,8.66,49.07,13.01,73.6.08.45.11.91.19,1.64-4.02.78-7.97,1.55-11.93,2.31-3.53.68-7.06,1.41-10.61,1.97-1.31.21-1.76.74-1.89,2.02-.92,9.02-1.9,18.02-2.87,27.03-.21,1.92-.48,3.82-.76,6.08ZM45.81,149.89c7.11.72,14.04,1.43,21.12,2.15.51-2.81,1-5.51,1.56-8.62,3.46,2.93.67,6.05.98,8.92,9.45,1.22,18.86,2.45,28.46,3.69.39-2.8.76-5.52,1.17-8.47-17.24-2.18-34.18-4.32-51.28-6.48.15-.63.33-1.42.58-2.49,46.82,5.04,92.99,13.17,139.51,19.94-.24,1.14-.4,1.95-.59,2.85-5.23-.8-10.24-1.54-15.24-2.32-9.6-1.51-19.22-2.95-28.8-4.59-7.01-1.2-14.32-1.01-20.86-4.13,2.43,2.91.41,6.3.67,9.67,6.89,1.08,13.77,2.16,20.76,3.25.42-2.65.81-5.1,1.2-7.53,1.73.16,2.08.99,1.92,2.25-.23,1.84-.4,3.68-.61,5.54.37.16.6.32.85.36,9.38,1.65,18.77,3.3,28.16,4.93.37.06.77-.03,1.15-.09.67-.1,1.36-.43,1.98-.32,5.58.9,11.13,2.13,16.74,2.77,6.66.75,11.03-2.55,12.59-9.02.64-2.65,1.13-5.35,1.55-8.04,4.65-29.95,9.27-59.91,13.9-89.86.51-3.33.98-6.66,1.49-10.1-.67-.07-1.06-.11-1.45-.14-7.36-.7-14.78-1.06-22.08-2.17-22.65-3.47-45.25-7.27-67.89-10.85-15.4-2.43-30.77-5.06-46.24-6.94-12.62-1.53-25.36-2.06-38.05-3.1-1.43-.12-1.61.57-1.81,1.69-4.77,26.15-9.41,52.32-14.42,78.43-4.75,24.73-9.88,49.38-14.85,74.07-.81,4.01-1.61,8.02-2.45,12.2.73,0,1.19.01,1.65,0,23.96-.88,47.69,1.52,71.26,5.4,24.85,4.09,49.59,8.82,74.38,13.26,2.98.53,5.97,1.02,9.06,1.55.76-7.52,1.5-14.71,2.22-21.83-.3-.16-.42-.25-.54-.27-9.84-1.73-19.69-3.47-29.54-5.12-.59-.1-1.5.3-1.91.78-2.78,3.24-8.29,4.69-12.23,3.1-2.7-1.09-3.63-2.95-2.85-5.7.08-.29.1-.6.19-1.14-10.46-1.62-20.79-3.24-31.12-4.8-.59-.09-1.36.08-1.85.41-2.84,1.92-6.01,2.06-9.23,1.75-1.9-.18-3.83-.8-4.64-2.68-.61-1.42-1.55-1.79-2.85-1.92-9.68-.97-19.35-1.96-29.03-2.91-2.42-.24-4.84-.37-7.36-.56.19-1.07.34-1.89.55-3.05,11.77,1.16,23.43,2.28,35.09,3.47,2.02.21,3.83.68,5.48-1.26.81-.95,2.48-1.16,3.77-1.68.51-.21,1.05-.35,1.57-.52-6.94-.99-13.84-1.67-20.72-2.43-1.82-.2-3.44.02-5.22.58-3.89,1.21-7.88,1.78-11.01-1.98-.3-.36-1.08-.41-1.65-.47-2.09-.22-4.2-.38-6.46-.57.21-1.03.37-1.84.56-2.78,2.06.15,3.97.31,5.9.4.54.02,1.27-.01,1.61-.33,1.49-1.41,2.87-2.93,4.19-4.31-3.36-.28-7.15-.6-11.09-.93.26-1,.47-1.82.75-2.91,7.08.64,14.07,1.27,21.2,1.91.26-1.62.51-3.16.8-4.96-7.11-.74-13.98-1.45-21.04-2.18.12-.86.24-1.67.39-2.7ZM24.18,235.86c1.37-.17,2.48-.29,3.59-.43,4.69-.6,9.37-1.31,14.08-1.79,14.51-1.48,29.03-1.03,43.54-.03,23.37,1.62,46.55,4.79,69.4,9.91,20.47,4.59,40.8,9.81,61.2,14.75.67.16,1.34.33,2.32.57,6.53-68.46,13.79-136.52,24.37-204.36h-8.75c-.38,3.1-.66,6.07-1.11,9.03-2.71,17.93-4.48,35.96-5.86,54.04-1.23,16.01-2.41,32.04-4.09,48.01-2.37,22.53-5.17,45.01-7.83,67.5-.63,5.35-1.45,10.67-2.21,16.23-1.02-.21-1.92-.39-2.81-.57-20.23-4.15-40.43-8.52-60.71-12.39-27.17-5.19-54.49-9.47-82.14-11.25-13.46-.87-26.91-.8-40.35.25-.61.05-1.66.49-1.71.84-.4,3.15-.61,6.32-.89,9.7ZM212.97,175.06c-.79.96-1.25,1.51-1.7,2.07-11.8,14.45-23.57,28.92-35.43,43.32-1.47,1.78-3.29,3.29-5.08,4.77-.56.46-1.61.64-2.35.5-16.49-3.12-32.97-6.32-49.46-9.47-27.05-5.17-54.22-9.47-81.78-10.75-4.77-.22-9.56-.03-14.48-.03-.61,4.02-1.2,7.96-1.81,11.98,6.1-.34,11.81-.75,17.54-.96,26.16-.99,52.02,2.06,77.85,5.71,26.27,3.72,52.23,9.12,78.19,14.51,3.43.71,6.85,1.46,10.41,2.22,2.7-21.25,5.36-42.25,8.11-63.87ZM71.94,24.02c7.01.78,13.79,1.29,20.49,2.32,19.15,2.94,38.3,5.94,57.4,9.2,20.81,3.55,41.59,7.29,62.65,9.15,4.22.37,8.45.7,12.83,1.05.46-4.81.89-9.34,1.34-14.11-1,0-1.78-.01-2.57,0-26.16.43-52.21-1.3-78.22-3.77-20.62-1.95-41.2-4.32-61.8-6.48-3.76-.39-7.53-.66-11.38-.99-.26,1.29-.47,2.33-.73,3.62ZM10.37,68c3.15,20.15,6.27,40.1,9.39,60.06.66-1.06.94-2.08,1.08-3.13.63-4.7,2.41-9.25,1.86-14.11-.04-.36.03-.88.26-1.1,2.04-1.91,1.14-4.51,2.07-6.92-1.19.29-1.94.47-2.83.68-.24-1.04-.44-1.92-.68-2.99,1.04-.19,1.97-.27,2.82-.57.54-.19,1.28-.64,1.39-1.1.56-2.39,1.27-4.82,1.32-7.25.14-7.06,0-14.12-.07-21.18-.02-1.57-.24-3.14-.37-4.81-5.48.81-10.72,1.59-16.22,2.4ZM38.85,253.65c30.71-5.92,61.48-5.84,92.26-6.12-.69-.31-1.39-.45-2.1-.56-19.12-2.88-38.31-5.11-57.64-5.95-10.41-.45-20.79.07-31.13,1.19-.5.05-1.32.76-1.33,1.18-.11,3.32-.06,6.65-.06,10.26ZM236.03,182.16c-.13,0-.26,0-.39,0-1.47,14.31-2.94,28.62-4.44,43.21,4.37-.63,8.34-1.2,12.38-1.79-2.53-13.89-5.04-27.66-7.55-41.42ZM96.56,179.54c.85.19,1.42.35,2,.44,8.03,1.24,16.06,2.47,24.1,3.69,3.84.58,7.7,1.76,11.46-.35.11-.06.26-.06.39-.06,1.66-.03,3.32-.02,4.97-.1.52-.02,1.02-.27,1.53-.42-.47-.34-.93-.68-1.41-1-.1-.07-.26-.05-.39-.07-9.26-1.56-18.52-3.14-27.78-4.66-4.58-.75-9.18-1.38-13.9-2.08-.34,1.61-.64,3.02-.97,4.63ZM138.53,18.81l-.04.26c11.14.88,22.28,1.76,33.66,2.66-.89-3.89-1.66-7.29-2.42-10.63-10.55,2.61-20.88,5.16-31.2,7.71ZM121.47,151.24c-3.84-.57-7.43-.96-10.94-1.68-3.68-.75-7.82-.17-10.75-3.39-.04-.04-.26.09-.43.16,3.78,3.1.51,6.83,1.25,10.43,6.44.98,13.05,1.99,19.84,3.02.36-2.98.69-5.67,1.03-8.54ZM176.62,171.95c-10.34-1.85-20.42-3.66-30.68-5.5-.27,1.78-.52,3.37-.77,5.04,10.46,1.88,20.64,3.72,30.92,5.57.19-1.78.34-3.28.53-5.1ZM175.66,179.97c-10.35-1.87-20.53-3.71-30.94-5.59-.22,1.79-.41,3.32-.62,5.01,10.49,1.88,20.72,3.71,31.1,5.57.16-1.78.3-3.22.46-4.98ZM174.34,192.62c.2-1.77.36-3.19.54-4.7-10.45-1.91-20.69-3.78-31.11-5.69-.23,1.62-.44,3.17-.68,4.85,10.45,1.85,20.71,3.67,31.25,5.54ZM96.59,163.81c.25-1.56.51-3.15.82-5.06-9.6-1.24-19-2.44-28.54-3.67-.26,1.88-.48,3.43-.71,5.09,9.53,1.22,18.83,2.41,28.43,3.64ZM66.68,168.03c9.52,1.18,19,2.35,28.65,3.54.17-.79.35-1.55.49-2.32.13-.77.22-1.54.37-2.6-9.53-1.2-18.92-2.38-28.35-3.56-.42,1.81-.77,3.29-1.16,4.95ZM142.22,174.17c-.41-.13-.65-.25-.9-.29-6.63-1.05-13.26-2.1-19.9-3.14-.31-.05-.68-.1-.94.03-2.45,1.15-4.89,2.35-7.24,3.49,9.32,1.58,18.82,3.18,28.44,4.81.2-1.83.36-3.27.54-4.9ZM143.48,166.21c-5.81-1.01-11.29-2.05-16.81-2.9-5.07-.79-4.1-1.62-4.81,3.97-.01.12.07.25.18.58,6.77,1.09,13.64,2.2,20.72,3.34.24-1.7.46-3.26.71-4.99ZM99.89,159.33c-.22,1.67-.44,3.27-.66,4.96,3.67.37,7.13,2.44,10.2-.82.16-.17.48-.22.74-.29,1.56-.43,3.12-.85,5.27-1.43-5.52-.86-10.43-1.62-15.54-2.42ZM97.81,172.03c3.53.5,6.81.96,10.08,1.42-1.99-1.28-2.87-3.01-2.72-5.35-2.17-.29-4.25-.58-6.44-.87-.31,1.62-.59,3.05-.92,4.8Z"/>
      <path class="cls-2" d="M45.81,149.89c-.15,1.02-.26,1.84-.39,2.7,7.06.73,13.93,1.44,21.04,2.18-.29,1.8-.54,3.34-.8,4.96-7.13-.64-14.13-1.27-21.2-1.91-.28,1.09-.49,1.91-.75,2.91,3.94.33,7.73.65,11.09.93-1.32,1.38-2.7,2.9-4.19,4.31-.34.32-1.07.36-1.61.33-1.92-.08-3.84-.25-5.9-.4-.19.94-.36,1.75-.56,2.78,2.26.2,4.36.36,6.46.57.57.06,1.34.11,1.65.47,3.13,3.75,7.11,3.18,11.01,1.98,1.78-.55,3.41-.78,5.22-.58,6.88.77,13.78,1.44,20.72,2.43-.53.17-1.06.31-1.57.52-1.29.52-2.97.73-3.77,1.68-1.65,1.94-3.47,1.47-5.48,1.26-11.65-1.2-23.32-2.32-35.09-3.47-.21,1.16-.36,1.98-.55,3.05,2.52.19,4.95.32,7.36.56,9.68.95,19.36,1.94,29.03,2.91,1.3.13,2.24.5,2.85,1.92.81,1.88,2.74,2.5,4.64,2.68,3.22.31,6.39.17,9.23-1.75.49-.33,1.26-.5,1.85-.41,10.34,1.56,20.66,3.18,31.12,4.8-.09.54-.11.85-.19,1.14-.78,2.75.15,4.62,2.85,5.7,3.94,1.59,9.45.14,12.23-3.1.41-.47,1.32-.88,1.91-.78,9.86,1.66,19.7,3.4,29.54,5.12.12.02.23.12.54.27-.72,7.12-1.45,14.31-2.22,21.83-3.08-.53-6.07-1.01-9.06-1.55-24.79-4.44-49.53-9.17-74.38-13.26-23.57-3.88-47.31-6.28-71.26-5.4-.46.02-.92,0-1.65,0,.84-4.17,1.65-8.19,2.45-12.2,4.97-24.69,10.1-49.34,14.85-74.07,5.01-26.1,9.65-52.28,14.42-78.43.2-1.11.38-1.8,1.81-1.69,12.68,1.04,25.43,1.57,38.05,3.1,15.47,1.88,30.84,4.51,46.24,6.94,22.63,3.58,45.23,7.38,67.89,10.85,7.3,1.12,14.72,1.47,22.08,2.17.39.04.78.08,1.45.14-.51,3.44-.98,6.78-1.49,10.1-4.62,29.96-9.25,59.91-13.9,89.86-.42,2.7-.91,5.39-1.55,8.04-1.56,6.48-5.94,9.78-12.59,9.02-5.61-.64-11.16-1.87-16.74-2.77-.63-.1-1.32.22-1.98.32-.38.06-.78.16-1.15.09-9.39-1.63-18.77-3.28-28.16-4.93-.25-.04-.48-.2-.85-.36.2-1.85.38-3.7.61-5.54.15-1.26-.19-2.09-1.92-2.25-.39,2.43-.78,4.88-1.2,7.53-6.99-1.1-13.86-2.17-20.76-3.25-.26-3.37,1.76-6.75-.67-9.67,6.55,3.12,13.85,2.93,20.86,4.13,9.58,1.64,19.2,3.08,28.8,4.59,5,.78,10,1.53,15.24,2.32.19-.9.35-1.7.59-2.85-46.52-6.77-92.69-14.89-139.51-19.94-.25,1.07-.43,1.86-.58,2.49,17.1,2.16,34.03,4.3,51.28,6.48-.41,2.94-.78,5.66-1.17,8.47-9.59-1.24-19.01-2.46-28.46-3.69-.31-2.87,2.48-5.99-.98-8.92-.56,3.1-1.05,5.81-1.56,8.62-7.08-.72-14.01-1.43-21.12-2.15ZM49.3,133.73c3.01.32,5.74.53,8.44.9,17.95,2.44,35.91,4.88,53.85,7.41,12.6,1.78,25.18,3.7,37.76,5.6.69.1,1.36.6,1.97,1.02,1.21.84,2.26,2.09,3.58,2.55,2.94,1.03,5.9.39,8.8-.59.95-.32,2.07-.46,3.06-.32,4.42.61,8.82,1.36,13.23,2.05,2.79.44,5.59.87,8.48,1.31.15-1.15.26-1.98.38-2.92-7.24-1.11-14.24-2.19-21.24-3.26.15-1.13.37-2.04.38-2.96,0-1.72.74-2.09,2.38-1.8,4,.73,8.02,1.3,12.04,1.91,2.35.36,4.7.67,7.22,1.02.09-1.14.16-2.02.22-2.86-7.25-1.12-14.25-2.21-21.41-3.31.27-1.87.5-3.4.74-5.03,7.34,1.13,14.42,2.23,21.66,3.34v-2.91c-7.19-1.08-14.27-2.15-21.49-3.24.34-2.92.65-5.58.97-8.36,7.44,1.08,14.6,2.11,21.78,3.15.23-1.05.4-1.82.6-2.74-7.39-1.09-14.67-2.16-22.11-3.26.09-1.18.29-2.11.19-3-.06-.5-.63-.94-.97-1.41-.39.39-.97.72-1.13,1.19-.3.85-.35,1.79-.54,2.95-6.06-.81-11.97-1.6-17.65-2.35-1.09-1.81,1.31-4.56-2.17-5.37-.25,1.67-.48,3.21-.75,5.03-6.67-.94-13.22-1.87-19.93-2.82.23-1.85.42-3.4.64-5.19,21.81,3,43.45,5.98,65.16,8.97.08-1.02.15-1.85.23-2.75-21.77-2.97-43.33-5.91-64.85-8.84.06-1.36.11-2.39.16-3.52h-1.99c-.25,1.04-.49,2.03-.75,3.09-23.51-3.48-46.62-8.15-70.24-10.15-.1,1.08-.17,1.84-.23,2.57,7.38.86,14.54,1.7,21.83,2.55-.33,1.99-.58,3.48-.84,5.01-7.49-.8-14.81-1.57-22.29-2.37-.15,1.07-.27,1.88-.39,2.73,7.54.8,14.86,1.58,22.33,2.38-.41,3.09-.78,5.82-1.16,8.67-7.66-.9-15.11-1.77-22.7-2.66-.16,1.03-.29,1.79-.43,2.73,5.07.54,9.99,1.07,14.76,1.58-1.73,1.18-3.56,2.13-5,3.51-.76.73-1.25,1.09-2.29.95-2.76-.35-5.54-.57-8.41-.86-.24,1.03-.42,1.84-.66,2.86,2.79.29,5.35.59,7.93.81,1.1.09,1.87.32,2.59,1.39.68,1.01,1.95,1.88,3.14,2.23,3.24.95,6.45.62,9.49-.98.5-.26,1.12-.52,1.65-.46,2.65.27,5.3.6,7.93,1,.49.08,1.3.54,1.32.87.16,2.15,1.31,3.55,3.15,4.51-12.63-1.47-25.17-2.94-37.91-4.43-.18,1-.32,1.81-.5,2.83ZM148.59,92.23c-.07,2.44.94,4.11,3.11,4.73,3.75,1.07,7.51.81,10.71-1.48,1.39-.99,2.58-1.11,4.04-.92,7.2.97,14.39,1.94,21.59,2.9,2.68.36,5.36.68,8.1,1.03.1-1.06.18-1.83.28-2.81-10.56-1.46-21-2.9-31.6-4.37.29-1.88.53-3.43.79-5.12,10.57,1.47,20.96,2.91,31.46,4.37.16-1.01.29-1.85.42-2.74-10.62-1.51-21.06-2.99-31.64-4.49.29-1.96.52-3.51.77-5.19,10.65,1.48,21.05,2.92,31.55,4.38.12-1.07.21-1.89.3-2.76-10.6-1.49-21-2.95-31.6-4.43.33-2.28.64-4.35.96-6.59,10.65,1.54,21.09,3.04,31.58,4.56.13-1.01.23-1.84.35-2.75-10.62-1.54-21.08-3.05-31.65-4.58.12-1.41.22-2.57.33-3.87-.75-.05-1.37-.08-2.01-.12-.26,1.32-.48,2.47-.71,3.63-7.39-1.03-14.54-2.03-21.73-3.03.08-1.25.14-2.23.21-3.29-.67-.12-1.23-.23-1.9-.35-.31,1.21-.59,2.32-.82,3.25-11.01-1.65-21.77-3.26-32.62-4.88.15-1.52.26-2.7.39-4.01-.7-.13-1.31-.24-2.02-.38-.3,1.37-.57,2.58-.82,3.71-14.21-1.6-28.28-3.18-42.38-4.77-.22,1.15-.37,1.92-.52,2.69,14.2,1.61,28.33,3.21,42.67,4.84-.42,2.7-.76,4.88-1.12,7.22-7.64-1.07-15-2.1-22.49-3.14.13-1.29.27-2.4.34-3.51.07-1.16.11-2.36-1.74-2.13-.33,1.7-.65,3.37-.97,5.06-6.04-.69-11.84-1.34-17.85-2.03-.08.99-.15,1.82-.23,2.78,5.94.68,11.73,1.34,17.65,2.02-.31,1.94-.57,3.55-.85,5.29-.98-.08-1.76-.12-2.54-.2-4.44-.5-8.87-1.04-13.3-1.5-2.42-.25-2.53-.08-2.31,2.53,5.89.69,11.79,1.39,17.78,2.09-.24,1.89-.42,3.4-.63,5.07-6.22-.65-12.28-1.29-18.46-1.94-.09,1.05-.15,1.81-.22,2.62,6.07.73,11.99,1.44,17.84,2.14.3,1.42.06,2.05-1.31,1.96-1.39-.09-2.88-.29-4.18.07-4.37,1.21-8.73,2.08-13.36.75-.25,1.15-.42,1.95-.62,2.87,2.01.2,3.76.38,5.52.55-.47,3.36-.24,4.28,1.28,5.45,3.81,2.93,11.01,1.8,13.58-2.24.64-1.01,1.25-1.33,2.39-1.16,4.55.65,9.12,1.16,13.67,1.85,17.65,2.67,35.28,5.49,52.95,8.06,12.33,1.8,24.7,3.28,37.05,4.92,3.6.48,7.2,1,10.85,1.51.17-1.04.3-1.8.46-2.77-21.24-2.86-42.32-5.69-63.87-8.59,2.35-.78,4.57-.89,5.76-2.05,2.16-2.1,4.37-1.69,6.79-1.31,1.44.22,2.89.39,4.54.6Z"/>
      <path class="cls-2" d="M24.18,235.86c.29-3.38.5-6.55.89-9.7.04-.36,1.09-.8,1.71-.84,13.44-1.04,26.9-1.11,40.35-.25,27.65,1.78,54.97,6.05,82.14,11.25,20.29,3.88,40.48,8.24,60.71,12.39.89.18,1.79.36,2.81.57.76-5.56,1.58-10.88,2.21-16.23,2.66-22.5,5.46-44.98,7.83-67.5,1.68-15.97,2.86-31.99,4.09-48.01,1.39-18.08,3.15-36.11,5.86-54.04.45-2.95.73-5.93,1.11-9.03h8.75c-10.57,67.83-17.84,135.9-24.37,204.36-.98-.24-1.65-.41-2.32-.57-20.39-4.94-40.72-10.16-61.2-14.75-22.85-5.12-46.03-8.29-69.4-9.91-14.51-1-29.03-1.45-43.54.03-4.7.48-9.38,1.19-14.08,1.79-1.11.14-2.21.27-3.59.43Z"/>
      <path class="cls-2" d="M212.97,175.06c-2.75,21.62-5.41,42.62-8.11,63.87-3.57-.76-6.98-1.51-10.41-2.22-25.96-5.39-51.91-10.79-78.19-14.51-25.83-3.66-51.69-6.7-77.85-5.71-5.72.22-11.44.62-17.54.96.61-4.02,1.21-7.97,1.81-11.98,4.92,0,9.71-.19,14.48.03,27.56,1.27,54.73,5.57,81.78,10.75,16.49,3.15,32.97,6.35,49.46,9.47.74.14,1.79-.04,2.35-.5,1.79-1.47,3.62-2.98,5.08-4.77,11.85-14.4,23.63-28.87,35.43-43.32.45-.55.91-1.1,1.7-2.07Z"/>
      <path class="cls-2" d="M71.94,24.02c.26-1.29.47-2.32.73-3.62,3.85.33,7.62.59,11.38.99,20.6,2.16,41.18,4.52,61.8,6.48,26.01,2.46,52.07,4.2,78.22,3.77.79-.01,1.57,0,2.57,0-.45,4.77-.88,9.3-1.34,14.11-4.38-.36-8.61-.68-12.83-1.05-21.05-1.87-41.83-5.6-62.65-9.15-19.1-3.26-38.24-6.26-57.4-9.2-6.7-1.03-13.48-1.54-20.49-2.32Z"/>
      <path class="cls-2" d="M10.37,68c5.5-.81,10.74-1.59,16.22-2.4.13,1.66.36,3.23.37,4.81.08,7.06.21,14.13.07,21.18-.05,2.43-.76,4.85-1.32,7.25-.11.46-.85.91-1.39,1.1-.85.3-1.78.37-2.82.57.24,1.07.44,1.95.68,2.99.89-.21,1.64-.4,2.83-.68-.93,2.41-.03,5.01-2.07,6.92-.23.22-.3.74-.26,1.1.55,4.86-1.23,9.41-1.86,14.11-.14,1.04-.42,2.07-1.08,3.13-3.12-19.96-6.24-39.92-9.39-60.06Z"/>
      <path class="cls-2" d="M38.85,253.65c0-3.61-.05-6.94.06-10.26.01-.42.83-1.13,1.33-1.18,10.35-1.12,20.72-1.64,31.13-1.19,19.33.84,38.52,3.07,57.64,5.95.71.11,1.41.25,2.1.56-30.77.28-61.54.21-92.26,6.12Z"/>
      <path class="cls-2" d="M236.03,182.16c2.51,13.77,5.02,27.53,7.55,41.42-4.04.58-8.01,1.16-12.38,1.79,1.5-14.59,2.97-28.9,4.44-43.21.13,0,.26,0,.39,0Z"/>
      <path class="cls-2" d="M96.56,179.54c.34-1.6.63-3.02.97-4.63,4.72.7,9.32,1.33,13.9,2.08,9.27,1.52,18.52,3.1,27.78,4.66.13.02.29,0,.39.07.48.32.94.67,1.41,1-.51.15-1.02.4-1.53.42-1.65.08-3.31.07-4.97.1-.13,0-.28,0-.39.06-3.76,2.11-7.62.94-11.46.35-8.03-1.22-16.07-2.45-24.1-3.69-.58-.09-1.16-.25-2-.44Z"/>
      <path class="cls-2" d="M138.53,18.81c10.32-2.55,20.65-5.1,31.2-7.71.76,3.34,1.54,6.74,2.42,10.63-11.38-.9-22.52-1.78-33.66-2.66l.04-.26Z"/>
      <path class="cls-2" d="M121.47,151.24c-.35,2.88-.67,5.56-1.03,8.54-6.78-1.03-13.4-2.04-19.84-3.02-.74-3.6,2.53-7.33-1.25-10.43.17-.07.4-.2.43-.16,2.92,3.21,7.07,2.64,10.75,3.39,3.52.72,7.1,1.1,10.94,1.68Z"/>
      <path class="cls-2" d="M176.62,171.95c-.19,1.82-.35,3.32-.53,5.1-10.29-1.85-20.47-3.68-30.92-5.57.25-1.66.5-3.26.77-5.04,10.26,1.84,20.34,3.65,30.68,5.5Z"/>
      <path class="cls-2" d="M175.66,179.97c-.16,1.76-.3,3.2-.46,4.98-10.38-1.86-20.61-3.69-31.1-5.57.21-1.68.4-3.22.62-5.01,10.4,1.88,20.58,3.72,30.94,5.59Z"/>
      <path class="cls-2" d="M174.34,192.62c-10.55-1.87-20.8-3.69-31.25-5.54.24-1.68.45-3.23.68-4.85,10.42,1.91,20.66,3.78,31.11,5.69-.17,1.51-.33,2.93-.54,4.7Z"/>
      <path class="cls-2" d="M96.59,163.81c-9.6-1.23-18.9-2.42-28.43-3.64.23-1.67.45-3.21.71-5.09,9.54,1.23,18.94,2.44,28.54,3.67-.31,1.92-.57,3.5-.82,5.06Z"/>
      <path class="cls-2" d="M66.68,168.03c.39-1.65.73-3.14,1.16-4.95,9.43,1.18,18.82,2.37,28.35,3.56-.15,1.06-.23,1.83-.37,2.6-.13.77-.32,1.53-.49,2.32-9.65-1.19-19.14-2.36-28.65-3.54Z"/>
      <path class="cls-2" d="M142.22,174.17c-.18,1.63-.34,3.07-.54,4.9-9.62-1.63-19.12-3.24-28.44-4.81,2.35-1.14,4.79-2.33,7.24-3.49.26-.12.63-.08.94-.03,6.63,1.04,13.27,2.09,19.9,3.14.25.04.49.15.9.29Z"/>
      <path class="cls-2" d="M143.48,166.21c-.25,1.74-.47,3.29-.71,4.99-7.08-1.14-13.95-2.25-20.72-3.34-.11-.33-.19-.46-.18-.58.7-5.59-.27-4.76,4.81-3.97,5.52.86,11,1.89,16.81,2.9Z"/>
      <path class="cls-2" d="M99.89,159.33c5.12.8,10.03,1.56,15.54,2.42-2.15.58-3.71,1-5.27,1.43-.26.07-.57.11-.74.29-3.06,3.26-6.52,1.19-10.2.82.23-1.69.44-3.29.66-4.96Z"/>
      <path class="cls-2" d="M97.81,172.03c.34-1.76.61-3.18.92-4.8,2.19.3,4.27.58,6.44.87-.15,2.34.73,4.07,2.72,5.35-3.27-.46-6.55-.92-10.08-1.42Z"/>
      <path class="cls-1" d="M49.3,133.73c.18-1.02.32-1.84.5-2.83,12.74,1.49,25.28,2.95,37.91,4.43-1.84-.96-2.99-2.36-3.15-4.51-.02-.33-.83-.79-1.32-.87-2.63-.4-5.28-.74-7.93-1-.53-.05-1.15.2-1.65.46-3.04,1.6-6.26,1.93-9.49.98-1.18-.35-2.46-1.22-3.14-2.23-.73-1.07-1.49-1.3-2.59-1.39-2.58-.22-5.14-.52-7.93-.81.24-1.02.42-1.83.66-2.86,2.87.28,5.65.51,8.41.86,1.04.13,1.53-.22,2.29-.95,1.43-1.37,3.26-2.33,5-3.51-4.77-.51-9.69-1.03-14.76-1.58.15-.94.27-1.7.43-2.73,7.59.89,15.04,1.76,22.7,2.66.38-2.85.75-5.58,1.16-8.67-7.47-.8-14.79-1.58-22.33-2.38.12-.85.24-1.67.39-2.73,7.48.79,14.8,1.57,22.29,2.37.26-1.53.5-3.02.84-5.01-7.29-.85-14.45-1.69-21.83-2.55.07-.73.13-1.49.23-2.57,23.62,1.99,46.73,6.67,70.24,10.15.26-1.06.5-2.05.75-3.09h1.99c-.05,1.13-.1,2.16-.16,3.52,21.52,2.93,43.08,5.87,64.85,8.84-.07.9-.14,1.73-.23,2.75-21.71-2.99-43.34-5.97-65.16-8.97-.22,1.78-.42,3.34-.64,5.19,6.71.95,13.26,1.88,19.93,2.82.27-1.82.5-3.37.75-5.03,3.49.82,1.08,3.57,2.17,5.37,5.68.76,11.59,1.54,17.65,2.35.2-1.16.25-2.1.54-2.95.16-.47.74-.8,1.13-1.19.34.47.91.91.97,1.41.11.89-.09,1.82-.19,3,7.44,1.1,14.72,2.17,22.11,3.26-.2.91-.37,1.68-.6,2.74-7.18-1.04-14.33-2.07-21.78-3.15-.32,2.77-.63,5.44-.97,8.36,7.22,1.09,14.3,2.15,21.49,3.24v2.91c-7.25-1.12-14.33-2.21-21.66-3.34-.24,1.63-.46,3.17-.74,5.03,7.16,1.11,14.16,2.19,21.41,3.31-.06.84-.13,1.72-.22,2.86-2.52-.35-4.87-.66-7.22-1.02-4.02-.61-8.04-1.18-12.04-1.91-1.63-.3-2.37.08-2.38,1.8,0,.92-.23,1.83-.38,2.96,6.99,1.08,14,2.15,21.24,3.26-.12.94-.23,1.76-.38,2.92-2.89-.45-5.69-.88-8.48-1.31-4.41-.69-8.81-1.44-13.23-2.05-.99-.14-2.11,0-3.06.32-2.9.97-5.86,1.61-8.8.59-1.33-.46-2.37-1.72-3.58-2.55-.61-.42-1.27-.92-1.97-1.02-12.58-1.9-25.16-3.82-37.76-5.6-17.94-2.53-35.9-4.96-53.85-7.41-2.7-.37-5.42-.58-8.44-.9ZM78.69,109.57c-.33,2.52-.56,4.76-.94,6.98-.25,1.45.35,1.83,1.66,1.99,3.37.41,6.71.98,10.07,1.45,3.4.48,6.8.93,10.36,1.42.39-2.86.74-5.47,1.13-8.37-7.44-1.16-14.71-2.29-22.28-3.46ZM124.74,117.05c-7.22-1.16-14.27-2.29-21.49-3.45-.39,2.85-.74,5.46-1.12,8.21,7.29,1.11,14.4,2.18,21.68,3.29.32-2.73.61-5.28.93-8.05ZM147.14,120.31c-6.71-.97-13.2-1.91-19.9-2.88-.35,2.85-.68,5.45-1.02,8.22,6.72.95,13.27,1.88,20.03,2.83.31-2.82.6-5.44.9-8.18ZM166.95,131.3c.32-2.92.62-5.58.92-8.33-6.21-.84-12.11-1.65-18.23-2.48-.36,2.94-.68,5.61-1.02,8.42,6.19.81,12.12,1.58,18.32,2.39ZM91.02,135.98c14.28,2.15,28.56,4.31,42.85,6.46-1.86-1.34-2.77-2.96-2.33-5.33-2.42-.37-4.71-.75-7.01-1.05-.41-.06-.94.07-1.29.3-3.09,1.96-6.45,2.31-9.99,1.79-2.16-.32-3.68-1.4-4.52-3.45-.17-.42-.57-.98-.95-1.05-2.42-.46-4.86-.81-7.3-1.15-.29-.04-.72.07-.9.27-2.32,2.61-5.52,2.65-8.56,3.22ZM79.28,106.87c7.44,1.15,14.59,2.25,21.98,3.38.25-1.69.48-3.28.73-5.04-7.51-1.15-14.71-2.25-22.03-3.37-.25,1.85-.45,3.34-.68,5.02ZM103.6,110.87c7.34,1.15,14.4,2.25,21.65,3.38.25-1.84.45-3.4.68-5.12-7.28-1.16-14.34-2.28-21.54-3.42-.26,1.69-.5,3.26-.8,5.15ZM147.74,136.66c6.26.79,12.18,1.53,18.3,2.3.18-1.65.34-3.13.52-4.79-6.16-.84-12.13-1.66-18.33-2.51-.16,1.68-.32,3.24-.49,5ZM76.49,125.99c2.15.25,4.12.46,6.08.72,2.02.27,3.94.62,5.74-1,.81-.73,2.18-1.09,3.32-1.18,2.34-.18,4.7-.05,7.05-.05.01-.14.03-.28.04-.42-7.03-1.05-14.06-2.1-21.23-3.18-.34,1.76-.65,3.35-1,5.1ZM145.62,131.73c.02-.18.04-.37.07-.55-6.56-.97-13.12-1.93-19.82-2.92-.25,1.67-.47,3.16-.71,4.8,2.39.37,4.6.79,6.83,1.01.83.08,1.81-.1,2.53-.52,2.56-1.48,5.24-2.25,8.2-2.05.97.07,1.94.14,2.91.22ZM100.97,129.52c2.9.44,5.58.85,8.26,1.22.29.04.64-.08.9-.24,2.14-1.29,4.27-2.61,6.16-3.78-4.48-.67-9.44-1.4-14.54-2.16-.27,1.71-.5,3.2-.78,4.95ZM140.15,143.49c3.42.45,7.14.95,10.86,1.41.29.04.67-.08.9-.26,1.71-1.29,3.4-2.62,5.11-3.95-3.1-.34-6.38-.71-9.66-1.06-.19-.02-.42,0-.58.1-2.25,1.26-4.48,2.54-6.63,3.75Z"/>
      <path class="cls-1" d="M148.59,92.23c-1.65-.22-3.1-.38-4.54-.6-2.42-.38-4.63-.78-6.79,1.31-1.2,1.16-3.41,1.27-5.76,2.05,21.55,2.9,42.63,5.74,63.87,8.59-.16.97-.29,1.73-.46,2.77-3.65-.51-7.25-1.03-10.85-1.51-12.35-1.64-24.72-3.12-37.05-4.92-17.67-2.57-35.3-5.39-52.95-8.06-4.54-.69-9.12-1.19-13.67-1.85-1.14-.16-1.75.15-2.39,1.16-2.57,4.04-9.77,5.17-13.58,2.24-1.52-1.17-1.75-2.09-1.28-5.45-1.76-.18-3.51-.35-5.52-.55.2-.93.37-1.73.62-2.87,4.63,1.33,8.99.46,13.36-.75,1.3-.36,2.79-.16,4.18-.07,1.37.09,1.62-.55,1.31-1.96-5.85-.7-11.77-1.41-17.84-2.14.07-.81.13-1.57.22-2.62,6.18.65,12.24,1.29,18.46,1.94.21-1.67.4-3.17.63-5.07-5.99-.7-11.89-1.4-17.78-2.09-.22-2.61-.11-2.78,2.31-2.53,4.44.46,8.87,1,13.3,1.5.78.09,1.57.13,2.54.2.28-1.74.54-3.36.85-5.29-5.92-.68-11.71-1.34-17.65-2.02.08-.96.15-1.78.23-2.78,6,.68,11.81,1.34,17.85,2.03.33-1.7.64-3.36.97-5.06,1.86-.23,1.81.98,1.74,2.13-.07,1.11-.21,2.22-.34,3.51,7.49,1.05,14.85,2.08,22.49,3.14.36-2.34.7-4.52,1.12-7.22-14.34-1.62-28.47-3.23-42.67-4.84.15-.77.3-1.54.52-2.69,14.1,1.59,28.17,3.17,42.38,4.77.25-1.13.51-2.34.82-3.71.7.13,1.32.25,2.02.38-.13,1.32-.24,2.49-.39,4.01,10.85,1.62,21.61,3.24,32.62,4.88.24-.93.52-2.04.82-3.25.67.12,1.23.23,1.9.35-.07,1.06-.13,2.04-.21,3.29,7.19,1,14.34,2,21.73,3.03.23-1.16.45-2.3.71-3.63.63.04,1.26.08,2.01.12-.11,1.3-.21,2.47-.33,3.87,10.57,1.53,21.03,3.04,31.65,4.58-.11.91-.22,1.74-.35,2.75-10.5-1.52-20.93-3.02-31.58-4.56-.33,2.24-.63,4.31-.96,6.59,10.6,1.49,21,2.94,31.6,4.43-.1.87-.19,1.69-.3,2.76-10.51-1.46-20.9-2.9-31.55-4.38-.25,1.68-.48,3.23-.77,5.19,10.57,1.5,21.02,2.98,31.64,4.49-.14.89-.27,1.72-.42,2.74-10.5-1.46-20.89-2.9-31.46-4.37-.26,1.69-.5,3.24-.79,5.12,10.6,1.46,21.04,2.91,31.6,4.37-.1.98-.17,1.75-.28,2.81-2.74-.35-5.42-.67-8.1-1.03-7.2-.96-14.39-1.94-21.59-2.9-1.46-.2-2.65-.08-4.04.92-3.2,2.29-6.96,2.55-10.71,1.48-2.17-.62-3.18-2.29-3.11-4.73ZM107.51,66.98c11.04,1.61,21.86,3.19,32.86,4.79.28-2.44.53-4.65.78-6.89-11.04-1.61-21.75-3.18-32.62-4.76-.32,2.18-.64,4.28-1.02,6.86ZM139.94,74.46c-11.06-1.6-21.82-3.16-32.77-4.74-.22,1.79-.41,3.4-.63,5.2,11.02,1.65,21.88,3.27,32.82,4.91.22-1.99.39-3.56.58-5.37ZM142.63,72.16c7.41,1.06,14.57,2.09,21.92,3.15.3-2.35.58-4.49.89-6.89-7.38-1.05-14.59-2.07-21.97-3.12-.29,2.35-.54,4.44-.83,6.87ZM138.9,83.18c.02-.2.04-.39.06-.59-10.89-1.63-21.77-3.26-32.9-4.92-.24,1.77-.47,3.43-.69,5.07.49.17.73.29.99.33,6.37.98,12.73,1.95,19.11,2.89.33.05.76-.14,1.04-.35,3.18-2.35,6.74-2.94,10.58-2.44.6.08,1.21.01,1.82.01ZM81.22,71.47c7.72,1.03,15.2,2.02,22.86,3.04.22-1.71.42-3.31.65-5.08-7.65-1.11-15.04-2.17-22.57-3.26-.33,1.87-.62,3.48-.94,5.3ZM98,89.89c9.48,1.36,19.39,2.78,29.29,4.2-1.9-1.27-3.01-2.87-2.8-5.34-6.5-.99-12.87-1.97-19.24-2.92-.29-.04-.65.06-.91.21-2.16,1.29-4.31,2.61-6.34,3.84ZM141.62,80.26c7.45,1,14.7,1.96,22.07,2.95.19-2.02.34-3.58.51-5.25-7.43-1.02-14.64-2-22.02-3.01-.19,1.85-.35,3.41-.55,5.32ZM103.54,77.91c-.04-.22-.08-.44-.12-.66-7.46-.99-14.92-1.98-22.5-2.98-.27,1.83-.5,3.44-.75,5.15,3.45.49,6.66.96,9.88,1.39.3.04.69-.01.92-.18,3.51-2.56,7.41-3.02,11.57-2.34.3.05.66-.24.99-.38ZM162.91,86.4c.02-.14.05-.28.07-.42-7.18-1.01-14.35-2.02-21.7-3.05-.23,1.8-.44,3.42-.69,5.33,3.1.4,6.04.8,8.99,1.12.36.04.84-.31,1.16-.6,1.89-1.69,4.14-2.33,6.61-2.37,1.85-.03,3.7,0,5.56,0ZM79.18,87.11c4.22.51,8.05.98,11.69,1.42-.7-1.63-1.35-3.13-2.15-5.01-2.61-.4-5.65-.87-8.89-1.38-.23,1.74-.42,3.22-.65,4.96Z"/>
      <path class="cls-2" d="M78.69,109.57c7.57,1.18,14.84,2.31,22.28,3.46-.39,2.9-.75,5.51-1.13,8.37-3.56-.48-6.96-.93-10.36-1.42-3.36-.48-6.71-1.04-10.07-1.45-1.31-.16-1.91-.54-1.66-1.99.38-2.21.61-4.46.94-6.98Z"/>
      <path class="cls-2" d="M124.74,117.05c-.32,2.77-.62,5.32-.93,8.05-7.27-1.1-14.39-2.18-21.68-3.29.37-2.75.73-5.36,1.12-8.21,7.23,1.16,14.27,2.29,21.49,3.45Z"/>
      <path class="cls-2" d="M147.14,120.31c-.3,2.74-.59,5.35-.9,8.18-6.76-.96-13.3-1.88-20.03-2.83.34-2.77.67-5.37,1.02-8.22,6.7.97,13.19,1.91,19.9,2.88Z"/>
      <path class="cls-2" d="M166.95,131.3c-6.21-.81-12.13-1.58-18.32-2.39.34-2.81.66-5.47,1.02-8.42,6.12.83,12.02,1.64,18.23,2.48-.3,2.75-.6,5.41-.92,8.33Z"/>
      <path class="cls-2" d="M91.02,135.98c3.04-.57,6.25-.61,8.56-3.22.18-.2.61-.31.9-.27,2.44.35,4.88.7,7.3,1.15.37.07.77.63.95,1.05.84,2.05,2.36,3.13,4.52,3.45,3.54.52,6.9.17,9.99-1.79.36-.23.88-.35,1.29-.3,2.3.31,4.59.68,7.01,1.05-.44,2.37.47,4,2.33,5.33-14.28-2.15-28.56-4.31-42.85-6.46Z"/>
      <path class="cls-2" d="M79.28,106.87c.23-1.68.43-3.17.68-5.02,7.33,1.12,14.52,2.22,22.03,3.37-.25,1.75-.49,3.34-.73,5.04-7.38-1.14-14.53-2.24-21.98-3.38Z"/>
      <path class="cls-2" d="M103.6,110.87c.29-1.9.53-3.46.8-5.15,7.19,1.14,14.26,2.27,21.54,3.42-.23,1.72-.44,3.27-.68,5.12-7.25-1.13-14.32-2.24-21.65-3.38Z"/>
      <path class="cls-2" d="M147.74,136.66c.17-1.76.32-3.32.49-5,6.2.85,12.17,1.67,18.33,2.51-.18,1.66-.34,3.14-.52,4.79-6.12-.77-12.04-1.51-18.3-2.3Z"/>
      <path class="cls-2" d="M76.49,125.99c.34-1.75.65-3.35,1-5.1,7.17,1.07,14.2,2.12,21.23,3.18-.01.14-.03.28-.04.42-2.35,0-4.71-.12-7.05.05-1.15.09-2.51.44-3.32,1.18-1.79,1.62-3.72,1.27-5.74,1-1.96-.26-3.93-.47-6.08-.72Z"/>
      <path class="cls-2" d="M145.62,131.73c-.97-.07-1.94-.15-2.91-.22-2.95-.2-5.64.57-8.2,2.05-.71.41-1.7.6-2.53.52-2.23-.22-4.44-.64-6.83-1.01.24-1.64.46-3.13.71-4.8,6.7.99,13.26,1.95,19.82,2.92-.02.18-.04.37-.07.55Z"/>
      <path class="cls-2" d="M100.97,129.52c.27-1.75.51-3.24.78-4.95,5.11.76,10.07,1.5,14.54,2.16-1.89,1.16-4.02,2.48-6.16,3.78-.26.16-.61.28-.9.24-2.68-.37-5.35-.79-8.26-1.22Z"/>
      <path class="cls-2" d="M140.15,143.49c2.14-1.22,4.38-2.49,6.63-3.75.16-.09.39-.12.58-.1,3.28.35,6.57.72,9.66,1.06-1.71,1.33-3.4,2.66-5.11,3.95-.24.18-.61.29-.9.26-3.72-.47-7.44-.96-10.86-1.41Z"/>
      <path class="cls-2" d="M107.51,66.98c.38-2.58.7-4.68,1.02-6.86,10.88,1.59,21.58,3.15,32.62,4.76-.25,2.23-.5,4.44-.78,6.89-11-1.6-21.82-3.18-32.86-4.79Z"/>
      <path class="cls-2" d="M139.94,74.46c-.2,1.81-.37,3.38-.58,5.37-10.94-1.64-21.79-3.26-32.82-4.91.22-1.79.41-3.4.63-5.2,10.95,1.58,21.71,3.14,32.77,4.74Z"/>
      <path class="cls-2" d="M142.63,72.16c.3-2.43.55-4.52.83-6.87,7.38,1.05,14.59,2.08,21.97,3.12-.31,2.4-.59,4.55-.89,6.89-7.35-1.05-14.51-2.08-21.92-3.15Z"/>
      <path class="cls-2" d="M138.9,83.18c-.61,0-1.22.07-1.82-.01-3.83-.5-7.4.1-10.58,2.44-.29.21-.72.4-1.04.35-6.37-.94-12.74-1.92-19.11-2.89-.26-.04-.5-.16-.99-.33.22-1.64.45-3.3.69-5.07,11.13,1.67,22.02,3.29,32.9,4.92-.02.2-.04.39-.06.59Z"/>
      <path class="cls-2" d="M81.22,71.47c.32-1.82.61-3.43.94-5.3,7.53,1.09,14.92,2.16,22.57,3.26-.23,1.77-.43,3.37-.65,5.08-7.66-1.02-15.14-2.02-22.86-3.04Z"/>
      <path class="cls-2" d="M98,89.89c2.02-1.23,4.17-2.55,6.34-3.84.26-.15.62-.26.91-.21,6.37.95,12.74,1.93,19.24,2.92-.21,2.47.9,4.07,2.8,5.34-9.9-1.42-19.81-2.84-29.29-4.2Z"/>
      <path class="cls-2" d="M141.62,80.26c.2-1.91.36-3.47.55-5.32,7.38,1.01,14.59,2,22.02,3.01-.16,1.67-.31,3.23-.51,5.25-7.36-.98-14.61-1.95-22.07-2.95Z"/>
      <path class="cls-2" d="M103.54,77.91c-.33.13-.69.43-.99.38-4.16-.68-8.07-.22-11.57,2.34-.23.17-.62.22-.92.18-3.22-.44-6.43-.9-9.88-1.39.25-1.71.48-3.32.75-5.15,7.58,1.01,15.04,2,22.5,2.98.04.22.08.44.12.66Z"/>
      <path class="cls-2" d="M162.91,86.4c-1.85,0-3.7-.02-5.56,0-2.47.04-4.72.68-6.61,2.37-.32.29-.8.64-1.16.6-2.95-.32-5.9-.72-8.99-1.12.25-1.91.46-3.54.69-5.33,7.35,1.03,14.53,2.04,21.7,3.05-.02.14-.05.28-.07.42Z"/>
      <path class="cls-2" d="M79.18,87.11c.23-1.74.42-3.22.65-4.96,3.24.5,6.28.97,8.89,1.38.8,1.87,1.45,3.38,2.15,5.01-3.64-.44-7.47-.91-11.69-1.42Z"/>
    </g>
  </g>
</svg>